{
.appVersion = "1075";
date = "2018-03-04 04:31:40 +0000";
familyName = Millbrae;
fontMaster = (
{
ascender = 1556;
capHeight = 700;
customParameters = (
{
name = typoAscender;
value = 1556;
},
{
name = typoDescender;
value = -492;
},
{
name = typoLineGap;
value = 410;
},
{
name = winAscent;
value = 1901;
},
{
name = winDescent;
value = 483;
},
{
name = hheaAscender;
value = 1901;
},
{
name = hheaDescender;
value = -483;
},
{
name = underlinePosition;
value = -175;
},
{
name = underlineThickness;
value = 90;
}
);
descender = -492;
id = "F25FDEC7-9088-49C2-ACEA-4290AADBBD1B";
weightValue = 400;
widthValue = 5;
xHeight = 500;
},
{
ascender = 1556;
capHeight = 700;
customParameters = (
{
name = typoAscender;
value = 1556;
},
{
name = typoDescender;
value = -492;
},
{
name = typoLineGap;
value = 410;
},
{
name = winAscent;
value = 1901;
},
{
name = winDescent;
value = 483;
},
{
name = hheaAscender;
value = 1901;
},
{
name = hheaDescender;
value = -483;
},
{
name = underlinePosition;
value = -175;
},
{
name = underlineThickness;
value = 90;
}
);
descender = -492;
id = "60AE9F57-5482-48B8-82FC-FC2DEE823110";
weight = Bold;
weightValue = 700;
widthValue = 5;
xHeight = 500;
}
);
glyphs = (
{
glyphname = A;
lastChange = "2018-03-04 04:33:50 +0000";
layers = (
{
layerId = "F25FDEC7-9088-49C2-ACEA-4290AADBBD1B";
paths = (
{
closed = 1;
nodes = (
"403 551 LINE",
"616 1315 LINE",
"829 551 LINE"
);
},
{
closed = 1;
nodes = (
"246 0 LINE",
"354 389 LINE",
"877 389 LINE",
"987 0 LINE",
"1196 0 LINE",
"739 1493 LINE",
"494 1493 LINE",
"37 0 LINE"
);
}
);
width = 1233;
},
{
layerId = "60AE9F57-5482-48B8-82FC-FC2DEE823110";
paths = (
{
closed = 1;
nodes = (
"477 612 LINE",
"616 1223 LINE",
"756 612 LINE"
);
},
{
closed = 1;
nodes = (
"328 0 LINE",
"418 369 LINE",
"813 369 LINE",
"905 0 LINE",
"1200 0 LINE",
"797 1493 LINE",
"436 1493 LINE",
"33 0 LINE"
);
}
);
width = 1233;
}
);
note = A;
unicode = 0041;
},
{
glyphname = "Ain-egyptological";
lastChange = "2018-03-04 04:33:50 +0000";
layers = (
{
layerId = "F25FDEC7-9088-49C2-ACEA-4290AADBBD1B";
paths = (
{
closed = 1;
nodes = (
"421 1192 OFFCURVE",
"618 1301 OFFCURVE",
"1012 1301 CURVE",
"1012 1520 LINE",
"494 1520 OFFCURVE",
"235 1339 OFFCURVE",
"235 976 CURVE SMOOTH",
"235 835 OFFCURVE",
"281 662 OFFCURVE",
"374 459 CURVE",
"538 505 LINE",
"460 645 OFFCURVE",
"421 801 OFFCURVE",
"421 973 CURVE SMOOTH"
);
}
);
width = 1233;
},
{
layerId = "60AE9F57-5482-48B8-82FC-FC2DEE823110";
paths = (
{
closed = 1;
nodes = (
"501 1119 OFFCURVE",
"685 1190 OFFCURVE",
"1052 1189 CURVE",
"1052 1520 LINE",
"474 1520 OFFCURVE",
"185 1339 OFFCURVE",
"185 976 CURVE SMOOTH",
"185 835 OFFCURVE",
"231 662 OFFCURVE",
"324 459 CURVE",
"590 537 LINE",
"531 686 OFFCURVE",
"501 832 OFFCURVE",
"501 976 CURVE SMOOTH"
);
}
);
width = 1233;
}
);
note = uniA724;
unicode = A724;
},
{
glyphname = "Alef-egyptological";
lastChange = "2018-03-04 04:33:50 +0000";
layers = (
{
layerId = "F25FDEC7-9088-49C2-ACEA-4290AADBBD1B";
paths = (
{
closed = 1;
nodes = (
"1151 0 OFFCURVE",
"1006 647 OFFCURVE",
"761 792 CURVE",
"877 858 OFFCURVE",
"932 967 OFFCURVE",
"926 1120 CURVE SMOOTH",
"917 1368 OFFCURVE",
"715 1492 OFFCURVE",
"321 1492 CURVE",
"321 1330 LINE",
"854 1330 OFFCURVE",
"878 877 OFFCURVE",
"371 877 CURVE",
"371 714 LINE",
"878 714 OFFCURVE",
"898 163 OFFCURVE",
"391 163 CURVE",
"391 0 LINE"
);
}
);
width = 1233;
},
{
layerId = "60AE9F57-5482-48B8-82FC-FC2DEE823110";
paths = (
{
closed = 1;
nodes = (
"787 0 OFFCURVE",
"1014 141 OFFCURVE",
"1007 422 CURVE SMOOTH",
"1003 596 OFFCURVE",
"940 719 OFFCURVE",
"817 792 CURVE",
"933 858 OFFCURVE",
"988 967 OFFCURVE",
"982 1120 CURVE SMOOTH",
"973 1368 OFFCURVE",
"731 1492 OFFCURVE",
"257 1492 CURVE",
"257 1241 LINE",
"750 1241 OFFCURVE",
"774 897 OFFCURVE",
"307 897 CURVE",
"307 644 LINE",
"774 644 OFFCURVE",
"794 251 OFFCURVE",
"327 251 CURVE",
"327 0 LINE"
);
}
);
width = 1233;
}
);
note = uniA722;
unicode = A722;
},
{
glyphname = "Alpha-latin";
lastChange = "2018-03-04 04:33:50 +0000";
layers = (
{
layerId = "F25FDEC7-9088-49C2-ACEA-4290AADBBD1B";
paths = (
{
closed = 1;
nodes = (
"855 1460 OFFCURVE",
"739 1520 OFFCURVE",
"590 1520 CURVE SMOOTH",
"291 1520 OFFCURVE",
"106 1230 OFFCURVE",
"106 751 CURVE SMOOTH",
"106 266 OFFCURVE",
"290 -29 OFFCURVE",
"590 -29 CURVE SMOOTH",
"737 -29 OFFCURVE",
"854 49 OFFCURVE",
"922 193 CURVE",
"922 0 LINE",
"1106 0 LINE",
"1106 1493 LINE",
"922 1493 LINE",
"922 1345 LINE"
);
},
{
closed = 1;
nodes = (
"445 1305 OFFCURVE",
"520 1356 OFFCURVE",
"619 1356 CURVE SMOOTH",
"816 1356 OFFCURVE",
"922 1149 OFFCURVE",
"922 746 CURVE SMOOTH",
"922 343 OFFCURVE",
"816 135 OFFCURVE",
"619 135 CURVE SMOOTH",
"420 135 OFFCURVE",
"317 344 OFFCURVE",
"317 746 CURVE SMOOTH",
"317 947 OFFCURVE",
"343 1099 OFFCURVE",
"394 1202 CURVE SMOOTH"
);
}
);
width = 1233;
},
{
layerId = "60AE9F57-5482-48B8-82FC-FC2DEE823110";
paths = (
{
closed = 1;
nodes = (
"782 1455 OFFCURVE",
"675 1520 OFFCURVE",
"546 1520 CURVE SMOOTH",
"258 1520 OFFCURVE",
"96 1245 OFFCURVE",
"96 746 CURVE SMOOTH",
"96 253 OFFCURVE",
"258 -29 OFFCURVE",
"535 -29 CURVE SMOOTH",
"680 -29 OFFCURVE",
"790 38 OFFCURVE",
"858 169 CURVE",
"858 0 LINE",
"1150 0 LINE",
"1150 1493 LINE",
"858 1493 LINE",
"858 1334 LINE"
);
},
{
closed = 1;
nodes = (
"403 905 OFFCURVE",
"423 1029 OFFCURVE",
"463 1119 CURVE SMOOTH",
"503 1210 OFFCURVE",
"558 1255 OFFCURVE",
"629 1255 CURVE SMOOTH",
"700 1255 OFFCURVE",
"756 1210 OFFCURVE",
"797 1119 CURVE SMOOTH",
"838 1030 OFFCURVE",
"858 905 OFFCURVE",
"858 746 CURVE SMOOTH",
"858 586 OFFCURVE",
"838 461 OFFCURVE",
"797 372 CURVE SMOOTH",
"756 281 OFFCURVE",
"700 236 OFFCURVE",
"629 236 CURVE SMOOTH",
"558 236 OFFCURVE",
"503 281 OFFCURVE",
"463 372 CURVE SMOOTH",
"423 462 OFFCURVE",
"403 587 OFFCURVE",
"403 746 CURVE SMOOTH"
);
}
);
width = 1233;
}
);
note = uni2C6D;
unicode = 2C6D;
},
{
glyphname = "Alphaturned-latin";
lastChange = "2018-03-04 04:33:50 +0000";
layers = (
{
layerId = "F25FDEC7-9088-49C2-ACEA-4290AADBBD1B";
paths = (
{
closed = 1;
nodes = (
"357 31 OFFCURVE",
"473 -29 OFFCURVE",
"622 -29 CURVE SMOOTH",
"921 -29 OFFCURVE",
"1106 261 OFFCURVE",
"1106 740 CURVE SMOOTH",
"1106 1225 OFFCURVE",
"922 1520 OFFCURVE",
"622 1520 CURVE SMOOTH",
"475 1520 OFFCURVE",
"358 1442 OFFCURVE",
"290 1298 CURVE",
"290 1491 LINE",
"106 1491 LINE",
"106 -2 LINE",
"290 -2 LINE",
"290 146 LINE"
);
},
{
closed = 1;
nodes = (
"767 186 OFFCURVE",
"692 135 OFFCURVE",
"593 135 CURVE SMOOTH",
"396 135 OFFCURVE",
"290 342 OFFCURVE",
"290 746 CURVE SMOOTH",
"290 1147 OFFCURVE",
"396 1356 OFFCURVE",
"593 1356 CURVE SMOOTH",
"792 1356 OFFCURVE",
"895 1148 OFFCURVE",
"895 746 CURVE SMOOTH",
"895 545 OFFCURVE",
"869 392 OFFCURVE",
"818 289 CURVE SMOOTH"
);
}
);
width = 1233;
},
{
layerId = "60AE9F57-5482-48B8-82FC-FC2DEE823110";
paths = (
{
closed = 1;
nodes = (
"464 36 OFFCURVE",
"571 -29 OFFCURVE",
"700 -29 CURVE SMOOTH",
"988 -29 OFFCURVE",
"1150 246 OFFCURVE",
"1150 745 CURVE SMOOTH",
"1150 1238 OFFCURVE",
"988 1520 OFFCURVE",
"711 1520 CURVE SMOOTH",
"566 1520 OFFCURVE",
"456 1453 OFFCURVE",
"388 1322 CURVE",
"388 1491 LINE",
"96 1491 LINE",
"96 -2 LINE",
"388 -2 LINE",
"388 157 LINE"
);
},
{
closed = 1;
nodes = (
"843 586 OFFCURVE",
"823 462 OFFCURVE",
"783 372 CURVE SMOOTH",
"743 281 OFFCURVE",
"688 236 OFFCURVE",
"617 236 CURVE SMOOTH",
"546 236 OFFCURVE",
"490 281 OFFCURVE",
"449 372 CURVE SMOOTH",
"408 461 OFFCURVE",
"388 586 OFFCURVE",
"388 745 CURVE SMOOTH",
"388 905 OFFCURVE",
"408 1030 OFFCURVE",
"449 1119 CURVE SMOOTH",
"490 1210 OFFCURVE",
"546 1255 OFFCURVE",
"617 1255 CURVE SMOOTH",
"688 1255 OFFCURVE",
"743 1210 OFFCURVE",
"783 1119 CURVE SMOOTH",
"823 1029 OFFCURVE",
"843 904 OFFCURVE",
"843 745 CURVE SMOOTH"
);
}
);
width = 1233;
}
);
note = uni2C70;
unicode = 2C70;
},
{
glyphname = Aring;
lastChange = "2018-03-04 04:33:50 +0000";
layers = (
{
layerId = "F25FDEC7-9088-49C2-ACEA-4290AADBBD1B";
paths = (
{
closed = 1;
nodes = (
"768 1542 OFFCURVE",
"700 1475 OFFCURVE",
"616 1475 CURVE SMOOTH",
"532 1475 OFFCURVE",
"465 1542 OFFCURVE",
"465 1626 CURVE SMOOTH",
"465 1713 OFFCURVE",
"531 1778 OFFCURVE",
"616 1778 CURVE SMOOTH",
"700 1778 OFFCURVE",
"768 1710 OFFCURVE",
"768 1626 CURVE SMOOTH"
);
},
{
closed = 1;
nodes = (
"403 551 LINE",
"616 1311 LINE",
"829 551 LINE"
);
},
{
closed = 1;
nodes = (
"246 0 LINE",
"354 389 LINE",
"877 389 LINE",
"987 0 LINE",
"1196 0 LINE",
"768 1399 LINE",
"847 1447 OFFCURVE",
"891 1529 OFFCURVE",
"891 1626 CURVE SMOOTH",
"891 1778 OFFCURVE",
"768 1901 OFFCURVE",
"616 1901 CURVE SMOOTH",
"464 1901 OFFCURVE",
"342 1778 OFFCURVE",
"342 1626 CURVE SMOOTH",
"342 1529 OFFCURVE",
"388 1443 OFFCURVE",
"465 1399 CURVE",
"37 0 LINE"
);
}
);
width = 1233;
},
{
layerId = "60AE9F57-5482-48B8-82FC-FC2DEE823110";
paths = (
{
closed = 1;
nodes = (
"874 1472 OFFCURVE",
"901 1533 OFFCURVE",
"901 1616 CURVE SMOOTH",
"901 1772 OFFCURVE",
"773 1901 OFFCURVE",
"616 1901 CURVE SMOOTH",
"460 1901 OFFCURVE",
"332 1772 OFFCURVE",
"332 1616 CURVE SMOOTH",
"332 1535 OFFCURVE",
"359 1470 OFFCURVE",
"418 1421 CURVE",
"33 0 LINE",
"328 0 LINE",
"418 369 LINE",
"813 369 LINE",
"905 0 LINE",
"1200 0 LINE",
"815 1421 LINE"
);
},
{
closed = 1;
nodes = (
"485 1688 OFFCURVE",
"545 1747 OFFCURVE",
"616 1747 CURVE SMOOTH",
"688 1747 OFFCURVE",
"748 1688 OFFCURVE",
"748 1616 CURVE SMOOTH",
"748 1544 OFFCURVE",
"689 1485 OFFCURVE",
"616 1485 CURVE SMOOTH",
"545 1485 OFFCURVE",
"485 1544 OFFCURVE",
"485 1616 CURVE SMOOTH"
);
},
{
closed = 1;
nodes = (
"477 612 LINE",
"616 1223 LINE",
"756 612 LINE"
);
}
);
width = 1233;
}
);
note = Aring;
unicode = 00C5;
},
{
glyphname = Astroke;
lastChange = "2018-03-04 04:33:50 +0000";
layers = (
{
layerId = "F25FDEC7-9088-49C2-ACEA-4290AADBBD1B";
paths = (
{
closed = 1;
nodes = (
"8 0 LINE",
"111 -70 LINE",
"160 0 LINE",
"246 0 LINE",
"302 203 LINE",
"432 389 LINE",
"877 389 LINE",
"987 0 LINE",
"1196 0 LINE",
"881 1029 LINE",
"1200 1485 LINE",
"1100 1559 LINE",
"835 1180 LINE",
"739 1493 LINE",
"494 1493 LINE",
"60 74 LINE"
);
},
{
closed = 1;
nodes = (
"829 551 LINE",
"546 551 LINE",
"748 840 LINE"
);
},
{
closed = 1;
nodes = (
"616 1315 LINE",
"705 995 LINE",
"409 572 LINE"
);
}
);
width = 1233;
},
{
layerId = "60AE9F57-5482-48B8-82FC-FC2DEE823110";
paths = (
{
closed = 1;
nodes = (
"-6 51 LINE",
"38 20 LINE",
"33 0 LINE",
"66 0 LINE",
"156 -63 LINE",
"201 0 LINE",
"328 0 LINE",
"395 275 LINE",
"461 369 LINE",
"813 369 LINE",
"905 0 LINE",
"1200 0 LINE",
"924 1023 LINE",
"1221 1444 LINE",
"1059 1559 LINE",
"857 1272 LINE",
"797 1493 LINE",
"436 1493 LINE",
"79 172 LINE"
);
},
{
closed = 1;
nodes = (
"616 1223 LINE",
"666 1003 LINE",
"518 793 LINE"
);
},
{
closed = 1;
nodes = (
"756 612 LINE",
"633 612 LINE",
"726 743 LINE"
);
}
);
width = 1233;
}
);
note = uni023A;
unicode = 023A;
},
{
glyphname = Aturned;
lastChange = "2018-03-04 04:33:50 +0000";
layers = (
{
layerId = "F25FDEC7-9088-49C2-ACEA-4290AADBBD1B";
paths = (
{
closed = 1;
nodes = (
"830 942 LINE",
"617 178 LINE",
"404 942 LINE"
);
},
{
closed = 1;
nodes = (
"987 1493 LINE",
"879 1104 LINE",
"356 1104 LINE",
"246 1493 LINE",
"37 1493 LINE",
"494 0 LINE",
"739 0 LINE",
"1196 1493 LINE"
);
}
);
width = 1233;
},
{
layerId = "60AE9F57-5482-48B8-82FC-FC2DEE823110";
paths = (
{
closed = 1;
nodes = (
"756 881 LINE",
"617 270 LINE",
"477 881 LINE"
);
},
{
closed = 1;
nodes = (
"905 1493 LINE",
"815 1124 LINE",
"420 1124 LINE",
"328 1493 LINE",
"33 1493 LINE",
"436 0 LINE",
"797 0 LINE",
"1200 1493 LINE"
);
}
);
width = 1233;
}
);
note = uni2C6F;
unicode = 2C6F;
},
{
glyphname = AE;
lastChange = "2018-03-04 04:33:50 +0000";
layers = (
{
layerId = "F25FDEC7-9088-49C2-ACEA-4290AADBBD1B";
paths = (
{
closed = 1;
nodes = (
"0 0 LINE",
"184 0 LINE",
"285 383 LINE",
"637 383 LINE",
"637 0 LINE",
"1180 0 LINE",
"1180 170 LINE",
"823 170 LINE",
"823 711 LINE",
"1130 711 LINE",
"1130 881 LINE",
"823 881 LINE",
"823 1323 LINE",
"1161 1323 LINE",
"1161 1493 LINE",
"410 1493 LINE"
);
},
{
closed = 1;
nodes = (
"637 551 LINE",
"328 551 LINE",
"530 1323 LINE",
"637 1323 LINE"
);
}
);
width = 1233;
},
{
layerId = "60AE9F57-5482-48B8-82FC-FC2DEE823110";
paths = (
{
closed = 1;
nodes = (
"0 0 LINE",
"248 0 LINE",
"334 362 LINE",
"616 362 LINE",
"616 0 LINE",
"1180 0 LINE",
"1180 260 LINE",
"870 260 LINE",
"870 662 LINE",
"1130 662 LINE",
"1130 922 LINE",
"870 922 LINE",
"870 1233 LINE",
"1161 1233 LINE",
"1161 1493 LINE",
"358 1493 LINE"
);
},
{
closed = 1;
nodes = (
"616 598 LINE",
"389 598 LINE",
"537 1233 LINE",
"616 1233 LINE"
);
}
);
width = 1233;
}
);
note = AE;
unicode = 00C6;
},
{
glyphname = B;
lastChange = "2018-03-04 04:33:50 +0000";
layers = (
{
layerId = "F25FDEC7-9088-49C2-ACEA-4290AADBBD1B";
paths = (
{
closed = 1;
nodes = (
"832 713 OFFCURVE",
"934 625 OFFCURVE",
"934 430 CURVE SMOOTH",
"934 242 OFFCURVE",
"843 166 OFFCURVE",
"608 166 CURVE SMOOTH",
"369 166 LINE",
"369 713 LINE",
"608 713 LINE SMOOTH"
);
},
{
closed = 1;
nodes = (
"801 1327 OFFCURVE",
"881 1265 OFFCURVE",
"881 1114 CURVE SMOOTH",
"881 947 OFFCURVE",
"799 877 OFFCURVE",
"604 877 CURVE SMOOTH",
"369 877 LINE",
"369 1327 LINE",
"604 1327 LINE SMOOTH"
);
},
{
closed = 1;
nodes = (
"608 0 LINE SMOOTH",
"959 0 OFFCURVE",
"1137 139 OFFCURVE",
"1137 410 CURVE SMOOTH",
"1137 623 OFFCURVE",
"1019 770 OFFCURVE",
"823 799 CURVE",
"998 826 OFFCURVE",
"1085 931 OFFCURVE",
"1085 1114 CURVE SMOOTH",
"1085 1355 OFFCURVE",
"913 1493 OFFCURVE",
"608 1493 CURVE SMOOTH",
"166 1493 LINE",
"166 0 LINE"
);
}
);
width = 1233;
},
{
layerId = "60AE9F57-5482-48B8-82FC-FC2DEE823110";
paths = (
{
closed = 1;
nodes = (
"787 678 OFFCURVE",
"860 612 OFFCURVE",
"860 451 CURVE SMOOTH",
"860 292 OFFCURVE",
"794 236 OFFCURVE",
"606 236 CURVE SMOOTH",
"410 236 LINE",
"410 678 LINE",
"606 678 LINE SMOOTH"
);
},
{
closed = 1;
nodes = (
"753 1260 OFFCURVE",
"813 1208 OFFCURVE",
"813 1085 CURVE SMOOTH",
"813 962 OFFCURVE",
"755 913 OFFCURVE",
"606 913 CURVE SMOOTH",
"410 913 LINE",
"410 1260 LINE",
"606 1260 LINE SMOOTH"
);
},
{
closed = 1;
nodes = (
"606 0 LINE SMOOTH",
"997 0 OFFCURVE",
"1159 122 OFFCURVE",
"1159 410 CURVE SMOOTH",
"1159 645 OFFCURVE",
"1043 776 OFFCURVE",
"815 799 CURVE",
"1006 816 OFFCURVE",
"1106 926 OFFCURVE",
"1106 1118 CURVE SMOOTH",
"1106 1369 OFFCURVE",
"938 1495 OFFCURVE",
"606 1495 CURVE SMOOTH",
"125 1495 LINE",
"125 0 LINE"
);
}
);
width = 1233;
}
);
note = B;
unicode = 0042;
},
{
glyphname = Bhook;
lastChange = "2018-03-04 04:33:50 +0000";
layers = (
{
layerId = "F25FDEC7-9088-49C2-ACEA-4290AADBBD1B";
paths = (
{
closed = 1;
nodes = (
"884 713 OFFCURVE",
"986 625 OFFCURVE",
"986 430 CURVE SMOOTH",
"986 242 OFFCURVE",
"895 166 OFFCURVE",
"660 166 CURVE SMOOTH",
"540 166 LINE",
"540 713 LINE",
"660 713 LINE SMOOTH"
);
},
{
closed = 1;
nodes = (
"853 1327 OFFCURVE",
"933 1265 OFFCURVE",
"933 1114 CURVE SMOOTH",
"933 947 OFFCURVE",
"851 877 OFFCURVE",
"656 877 CURVE SMOOTH",
"540 877 LINE",
"540 1327 LINE",
"656 1327 LINE SMOOTH"
);
},
{
closed = 1;
nodes = (
"139 1493 OFFCURVE",
"20 1361 OFFCURVE",
"20 1149 CURVE SMOOTH",
"20 1079 LINE",
"176 1079 LINE",
"176 1128 LINE SMOOTH",
"176 1277 OFFCURVE",
"255 1327 OFFCURVE",
"338 1327 CURVE",
"338 0 LINE",
"660 0 LINE SMOOTH",
"1011 0 OFFCURVE",
"1189 139 OFFCURVE",
"1189 410 CURVE SMOOTH",
"1189 623 OFFCURVE",
"1071 770 OFFCURVE",
"875 799 CURVE",
"1050 826 OFFCURVE",
"1137 931 OFFCURVE",
"1137 1114 CURVE SMOOTH",
"1137 1355 OFFCURVE",
"965 1493 OFFCURVE",
"660 1493 CURVE SMOOTH",
"338 1493 LINE SMOOTH"
);
}
);
width = 1233;
},
{
layerId = "60AE9F57-5482-48B8-82FC-FC2DEE823110";
paths = (
{
closed = 1;
nodes = (
"852 678 OFFCURVE",
"925 612 OFFCURVE",
"925 451 CURVE SMOOTH",
"925 292 OFFCURVE",
"859 236 OFFCURVE",
"671 236 CURVE SMOOTH",
"626 236 LINE",
"626 678 LINE",
"671 678 LINE SMOOTH"
);
},
{
closed = 1;
nodes = (
"818 1260 OFFCURVE",
"878 1208 OFFCURVE",
"878 1085 CURVE SMOOTH",
"878 962 OFFCURVE",
"820 913 OFFCURVE",
"671 913 CURVE SMOOTH",
"626 913 LINE",
"626 1260 LINE",
"671 1260 LINE SMOOTH"
);
},
{
closed = 1;
nodes = (
"92 1495 OFFCURVE",
"0 1406 OFFCURVE",
"0 1137 CURVE SMOOTH",
"0 1078 LINE",
"226 1078 LINE",
"226 1103 LINE SMOOTH",
"226 1191 OFFCURVE",
"253 1216 OFFCURVE",
"341 1216 CURVE",
"341 0 LINE",
"671 0 LINE SMOOTH",
"1062 0 OFFCURVE",
"1224 122 OFFCURVE",
"1224 410 CURVE SMOOTH",
"1224 645 OFFCURVE",
"1108 776 OFFCURVE",
"880 799 CURVE",
"1071 816 OFFCURVE",
"1171 926 OFFCURVE",
"1171 1118 CURVE SMOOTH",
"1171 1369 OFFCURVE",
"1003 1495 OFFCURVE",
"671 1495 CURVE SMOOTH",
"396 1495 LINE SMOOTH"
);
}
);
width = 1233;
}
);
note = uni0181;
unicode = 0181;
},
{
glyphname = Bstroke;
lastChange = "2018-03-04 04:33:50 +0000";
layers = (
{
layerId = "F25FDEC7-9088-49C2-ACEA-4290AADBBD1B";
paths = (
{
closed = 1;
nodes = (
"8 515 LINE",
"8 366 LINE",
"166 366 LINE",
"166 0 LINE",
"608 0 LINE SMOOTH",
"959 0 OFFCURVE",
"1137 139 OFFCURVE",
"1137 410 CURVE SMOOTH",
"1137 623 OFFCURVE",
"1019 770 OFFCURVE",
"823 799 CURVE",
"998 826 OFFCURVE",
"1085 931 OFFCURVE",
"1085 1114 CURVE SMOOTH",
"1085 1355 OFFCURVE",
"913 1493 OFFCURVE",
"608 1493 CURVE SMOOTH",
"166 1493 LINE",
"166 515 LINE"
);
},
{
closed = 1;
nodes = (
"801 1327 OFFCURVE",
"881 1265 OFFCURVE",
"881 1114 CURVE SMOOTH",
"881 947 OFFCURVE",
"799 877 OFFCURVE",
"604 877 CURVE SMOOTH",
"369 877 LINE",
"369 1327 LINE",
"604 1327 LINE SMOOTH"
);
},
{
closed = 1;
nodes = (
"604 515 LINE",
"369 515 LINE",
"369 713 LINE",
"608 713 LINE SMOOTH",
"832 713 OFFCURVE",
"934 625 OFFCURVE",
"934 430 CURVE SMOOTH",
"934 242 OFFCURVE",
"843 166 OFFCURVE",
"608 166 CURVE SMOOTH",
"369 166 LINE",
"369 366 LINE",
"604 366 LINE"
);
}
);
width = 1233;
},
{
layerId = "60AE9F57-5482-48B8-82FC-FC2DEE823110";
paths = (
{
closed = 1;
nodes = (
"0 575 LINE",
"0 338 LINE",
"125 338 LINE",
"125 0 LINE",
"606 0 LINE SMOOTH",
"997 0 OFFCURVE",
"1159 122 OFFCURVE",
"1159 410 CURVE SMOOTH",
"1159 645 OFFCURVE",
"1043 776 OFFCURVE",
"815 799 CURVE",
"1006 816 OFFCURVE",
"1106 926 OFFCURVE",
"1106 1118 CURVE SMOOTH",
"1106 1369 OFFCURVE",
"938 1495 OFFCURVE",
"606 1495 CURVE SMOOTH",
"125 1495 LINE",
"125 575 LINE"
);
},
{
closed = 1;
nodes = (
"753 1260 OFFCURVE",
"813 1208 OFFCURVE",
"813 1085 CURVE SMOOTH",
"813 962 OFFCURVE",
"755 913 OFFCURVE",
"606 913 CURVE SMOOTH",
"410 913 LINE",
"410 1260 LINE",
"606 1260 LINE SMOOTH"
);
},
{
closed = 1;
nodes = (
"643 575 LINE",
"410 575 LINE",
"410 678 LINE",
"606 678 LINE SMOOTH",
"787 678 OFFCURVE",
"860 612 OFFCURVE",
"860 451 CURVE SMOOTH",
"860 292 OFFCURVE",
"794 236 OFFCURVE",
"606 236 CURVE SMOOTH",
"410 236 LINE",
"410 338 LINE",
"643 338 LINE"
);
}
);
width = 1233;
}
);
note = uni0243;
unicode = 0243;
},
{
glyphname = C;
lastChange = "2018-03-04 04:33:50 +0000";
layers = (
{
layerId = "F25FDEC7-9088-49C2-ACEA-4290AADBBD1B";
paths = (
{
closed = 1;
nodes = (
"976 179 OFFCURVE",
"860 135 OFFCURVE",
"743 135 CURVE SMOOTH",
"480 135 OFFCURVE",
"350 337 OFFCURVE",
"350 745 CURVE SMOOTH",
"350 1154 OFFCURVE",
"480 1356 OFFCURVE",
"743 1356 CURVE SMOOTH",
"858 1356 OFFCURVE",
"974 1312 OFFCURVE",
"1073 1231 CURVE",
"1073 1438 LINE",
"970 1493 OFFCURVE",
"864 1520 OFFCURVE",
"743 1520 CURVE SMOOTH",
"363 1520 OFFCURVE",
"139 1233 OFFCURVE",
"139 745 CURVE SMOOTH",
"139 254 OFFCURVE",
"360 -29 OFFCURVE",
"743 -29 CURVE SMOOTH",
"864 -29 OFFCURVE",
"970 -2 OFFCURVE",
"1073 53 CURVE",
"1073 260 LINE"
);
}
);
width = 1233;
},
{
layerId = "60AE9F57-5482-48B8-82FC-FC2DEE823110";
paths = (
{
closed = 1;
nodes = (
"980 278 OFFCURVE",
"887 236 OFFCURVE",
"786 236 CURVE SMOOTH",
"570 236 OFFCURVE",
"459 409 OFFCURVE",
"459 745 CURVE SMOOTH",
"459 1082 OFFCURVE",
"570 1255 OFFCURVE",
"786 1255 CURVE SMOOTH",
"887 1255 OFFCURVE",
"980 1213 OFFCURVE",
"1081 1120 CURVE",
"1081 1448 LINE",
"990 1496 OFFCURVE",
"885 1520 OFFCURVE",
"772 1520 CURVE SMOOTH",
"369 1520 OFFCURVE",
"152 1248 OFFCURVE",
"152 745 CURVE SMOOTH",
"152 244 OFFCURVE",
"369 -29 OFFCURVE",
"772 -29 CURVE SMOOTH",
"885 -29 OFFCURVE",
"988 -5 OFFCURVE",
"1081 43 CURVE",
"1081 371 LINE"
);
}
);
width = 1233;
}
);
note = C;
unicode = 0043;
},
{
glyphname = Chook;
lastChange = "2018-03-04 04:33:50 +0000";
layers = (
{
layerId = "F25FDEC7-9088-49C2-ACEA-4290AADBBD1B";
paths = (
{
closed = 1;
nodes = (
"897 179 OFFCURVE",
"781 135 OFFCURVE",
"664 135 CURVE SMOOTH",
"401 135 OFFCURVE",
"271 337 OFFCURVE",
"271 745 CURVE SMOOTH",
"271 1064 OFFCURVE",
"401 1288 OFFCURVE",
"664 1288 CURVE SMOOTH",
"779 1288 OFFCURVE",
"895 1244 OFFCURVE",
"994 1163 CURVE",
"994 1233 LINE SMOOTH",
"994 1413 OFFCURVE",
"1061 1483 OFFCURVE",
"1173 1483 CURVE",
"1173 1639 LINE",
"1153 1639 LINE SMOOTH",
"1043 1639 OFFCURVE",
"958 1604 OFFCURVE",
"898 1533 CURVE SMOOTH",
"870 1500 OFFCURVE",
"848 1466 OFFCURVE",
"833 1432 CURVE",
"780 1445 OFFCURVE",
"724 1452 OFFCURVE",
"664 1452 CURVE SMOOTH",
"284 1452 OFFCURVE",
"60 1142 OFFCURVE",
"60 745 CURVE SMOOTH",
"60 254 OFFCURVE",
"281 -29 OFFCURVE",
"664 -29 CURVE SMOOTH",
"785 -29 OFFCURVE",
"891 -2 OFFCURVE",
"994 53 CURVE",
"994 260 LINE"
);
}
);
width = 1233;
},
{
layerId = "60AE9F57-5482-48B8-82FC-FC2DEE823110";
paths = (
{
closed = 1;
nodes = (
"773 236 OFFCURVE",
"761 237 OFFCURVE",
"748 238 CURVE SMOOTH",
"555 257 OFFCURVE",
"459 426 OFFCURVE",
"459 745 CURVE SMOOTH",
"459 1082 OFFCURVE",
"570 1255 OFFCURVE",
"786 1255 CURVE SMOOTH",
"885 1255 OFFCURVE",
"984 1210 OFFCURVE",
"1081 1120 CURVE",
"1081 1176 LINE SMOOTH",
"1081 1364 OFFCURVE",
"1140 1418 OFFCURVE",
"1263 1418 CURVE SMOOTH",
"1278 1418 LINE",
"1278 1643 LINE",
"1181 1643 LINE SMOOTH",
"1029 1643 OFFCURVE",
"924 1600 OFFCURVE",
"865 1514 CURVE",
"835 1518 OFFCURVE",
"804 1520 OFFCURVE",
"772 1520 CURVE SMOOTH",
"660 1520 OFFCURVE",
"562 1499 OFFCURVE",
"477 1456 CURVE SMOOTH",
"260 1347 OFFCURVE",
"152 1110 OFFCURVE",
"152 745 CURVE SMOOTH",
"152 244 OFFCURVE",
"369 -29 OFFCURVE",
"772 -29 CURVE SMOOTH",
"885 -29 OFFCURVE",
"988 -5 OFFCURVE",
"1081 43 CURVE",
"1081 371 LINE",
"983 281 OFFCURVE",
"885 236 OFFCURVE",
"786 236 CURVE SMOOTH"
);
}
);
width = 1233;
}
);
note = uni0187;
unicode = 0187;
},
{
glyphname = Cstroke;
lastChange = "2018-03-04 04:33:50 +0000";
layers = (
{
layerId = "F25FDEC7-9088-49C2-ACEA-4290AADBBD1B";
paths = (
{
closed = 1;
nodes = (
"356 584 OFFCURVE",
"350 661 OFFCURVE",
"350 745 CURVE SMOOTH",
"350 1154 OFFCURVE",
"480 1356 OFFCURVE",
"743 1356 CURVE SMOOTH",
"800 1356 OFFCURVE",
"857 1345 OFFCURVE",
"914 1324 CURVE SMOOTH",
"932 1318 LINE",
"368 514 LINE"
);
},
{
closed = 1;
nodes = (
"976 179 OFFCURVE",
"860 135 OFFCURVE",
"743 135 CURVE SMOOTH",
"612 135 OFFCURVE",
"513 186 OFFCURVE",
"448 287 CURVE SMOOTH",
"434 308 OFFCURVE",
"422 332 OFFCURVE",
"411 358 CURVE",
"1040 1256 LINE",
"1051 1248 OFFCURVE",
"1062 1240 OFFCURVE",
"1073 1231 CURVE",
"1073 1304 LINE",
"1200 1485 LINE",
"1100 1559 LINE",
"1030 1459 LINE",
"955 1494 OFFCURVE",
"864 1520 OFFCURVE",
"743 1520 CURVE SMOOTH",
"363 1520 OFFCURVE",
"139 1233 OFFCURVE",
"139 745 CURVE SMOOTH",
"139 570 OFFCURVE",
"166 422 OFFCURVE",
"220 303 CURVE",
"8 0 LINE",
"111 -70 LINE",
"289 185 LINE",
"298 174 LINE SMOOTH",
"403 39 OFFCURVE",
"552 -29 OFFCURVE",
"743 -29 CURVE SMOOTH",
"864 -29 OFFCURVE",
"970 -2 OFFCURVE",
"1073 53 CURVE",
"1073 260 LINE"
);
}
);
width = 1233;
},
{
layerId = "60AE9F57-5482-48B8-82FC-FC2DEE823110";
paths = (
{
closed = 1;
nodes = (
"462 714 OFFCURVE",
"463 717 OFFCURVE",
"463 720 CURVE",
"459 745 LINE",
"459 1082 OFFCURVE",
"570 1255 OFFCURVE",
"786 1255 CURVE SMOOTH",
"802 1255 OFFCURVE",
"820 1253 OFFCURVE",
"841 1250 CURVE",
"460 711 LINE"
);
},
{
closed = 1;
nodes = (
"980 278 OFFCURVE",
"887 236 OFFCURVE",
"786 236 CURVE SMOOTH",
"678 236 OFFCURVE",
"597 279 OFFCURVE",
"542 364 CURVE SMOOTH",
"529 385 OFFCURVE",
"517 408 OFFCURVE",
"507 433 CURVE",
"1025 1167 LINE",
"1044 1153 OFFCURVE",
"1062 1137 OFFCURVE",
"1081 1120 CURVE",
"1081 1246 LINE",
"1221 1444 LINE",
"1059 1559 LINE",
"1004 1482 LINE",
"982 1490 OFFCURVE",
"959 1497 OFFCURVE",
"935 1502 CURVE SMOOTH",
"883 1514 OFFCURVE",
"829 1520 OFFCURVE",
"772 1520 CURVE SMOOTH",
"369 1520 OFFCURVE",
"152 1248 OFFCURVE",
"152 745 CURVE SMOOTH",
"152 594 OFFCURVE",
"171 465 OFFCURVE",
"210 356 CURVE",
"-6 51 LINE",
"156 -63 LINE",
"316 164 LINE",
"422 35 OFFCURVE",
"574 -29 OFFCURVE",
"772 -29 CURVE SMOOTH",
"885 -29 OFFCURVE",
"988 -5 OFFCURVE",
"1081 43 CURVE",
"1081 371 LINE"
);
}
);
width = 1233;
}
);
note = uni023B;
unicode = 023B;
},
{
glyphname = D;
lastChange = "2018-03-04 04:33:50 +0000";
layers = (
{
layerId = "F25FDEC7-9088-49C2-ACEA-4290AADBBD1B";
paths = (
{
closed = 1;
nodes = (
"340 1327 LINE",
"436 1327 LINE SMOOTH",
"777 1327 OFFCURVE",
"893 1186 OFFCURVE",
"893 745 CURVE SMOOTH",
"893 308 OFFCURVE",
"776 166 OFFCURVE",
"436 166 CURVE SMOOTH",
"340 166 LINE"
);
},
{
closed = 1;
nodes = (
"137 0 LINE",
"440 0 LINE SMOOTH",
"896 0 OFFCURVE",
"1106 236 OFFCURVE",
"1106 745 CURVE SMOOTH",
"1106 1257 OFFCURVE",
"896 1493 OFFCURVE",
"440 1493 CURVE SMOOTH",
"137 1493 LINE"
);
}
);
width = 1233;
},
{
layerId = "60AE9F57-5482-48B8-82FC-FC2DEE823110";
paths = (
{
closed = 1;
nodes = (
"744 1227 OFFCURVE",
"834 1096 OFFCURVE",
"834 748 CURVE SMOOTH",
"834 397 OFFCURVE",
"744 266 OFFCURVE",
"512 266 CURVE SMOOTH",
"432 266 LINE",
"432 1227 LINE",
"512 1227 LINE SMOOTH"
);
},
{
closed = 1;
nodes = (
"453 0 LINE SMOOTH",
"941 0 OFFCURVE",
"1141 219 OFFCURVE",
"1141 748 CURVE SMOOTH",
"1141 1276 OFFCURVE",
"941 1493 OFFCURVE",
"453 1493 CURVE SMOOTH",
"137 1493 LINE",
"137 0 LINE"
);
}
);
width = 1233;
}
);
note = D;
unicode = 0044;
},
{
glyphname = Eth;
lastChange = "2018-03-04 04:33:50 +0000";
layers = (
{
layerId = "F25FDEC7-9088-49C2-ACEA-4290AADBBD1B";
paths = (
{
closed = 1;
nodes = (
"133 858 LINE",
"8 858 LINE",
"8 709 LINE",
"133 709 LINE",
"133 0 LINE",
"436 0 LINE SMOOTH",
"891 0 OFFCURVE",
"1102 236 OFFCURVE",
"1102 745 CURVE SMOOTH",
"1102 1257 OFFCURVE",
"892 1493 OFFCURVE",
"436 1493 CURVE SMOOTH",
"133 1493 LINE"
);
},
{
closed = 1;
nodes = (
"340 709 LINE",
"604 709 LINE",
"604 858 LINE",
"340 858 LINE",
"340 1327 LINE",
"436 1327 LINE SMOOTH",
"777 1327 OFFCURVE",
"893 1186 OFFCURVE",
"893 745 CURVE SMOOTH",
"893 308 OFFCURVE",
"776 166 OFFCURVE",
"436 166 CURVE SMOOTH",
"340 166 LINE"
);
}
);
width = 1233;
},
{
layerId = "60AE9F57-5482-48B8-82FC-FC2DEE823110";
paths = (
{
closed = 1;
nodes = (
"744 1227 OFFCURVE",
"834 1096 OFFCURVE",
"834 748 CURVE SMOOTH",
"834 397 OFFCURVE",
"744 266 OFFCURVE",
"512 266 CURVE SMOOTH",
"432 266 LINE",
"432 664 LINE",
"643 664 LINE",
"643 901 LINE",
"432 901 LINE",
"432 1227 LINE",
"512 1227 LINE SMOOTH"
);
},
{
closed = 1;
nodes = (
"0 901 LINE",
"0 664 LINE",
"137 664 LINE",
"137 0 LINE",
"453 0 LINE SMOOTH",
"941 0 OFFCURVE",
"1141 219 OFFCURVE",
"1141 748 CURVE SMOOTH",
"1141 1276 OFFCURVE",
"941 1493 OFFCURVE",
"453 1493 CURVE SMOOTH",
"137 1493 LINE",
"137 901 LINE"
);
}
);
width = 1233;
}
);
note = Eth;
unicode = 00D0;
},
{
glyphname = Dhook;
lastChange = "2018-03-04 04:33:50 +0000";
layers = (
{
layerId = "F25FDEC7-9088-49C2-ACEA-4290AADBBD1B";
paths = (
{
closed = 1;
nodes = (
"158 1493 OFFCURVE",
"8 1390 OFFCURVE",
"8 1149 CURVE SMOOTH",
"8 1079 LINE",
"164 1079 LINE",
"164 1128 LINE SMOOTH",
"164 1280 OFFCURVE",
"254 1327 OFFCURVE",
"326 1327 CURVE",
"326 0 LINE",
"559 0 LINE SMOOTH",
"1015 0 OFFCURVE",
"1225 236 OFFCURVE",
"1225 745 CURVE SMOOTH",
"1225 1257 OFFCURVE",
"1015 1493 OFFCURVE",
"559 1493 CURVE SMOOTH",
"326 1493 LINE SMOOTH"
);
},
{
closed = 1;
nodes = (
"529 1327 LINE",
"555 1327 LINE SMOOTH",
"896 1327 OFFCURVE",
"1012 1186 OFFCURVE",
"1012 745 CURVE SMOOTH",
"1012 308 OFFCURVE",
"895 166 OFFCURVE",
"555 166 CURVE SMOOTH",
"529 166 LINE"
);
}
);
width = 1233;
},
{
layerId = "60AE9F57-5482-48B8-82FC-FC2DEE823110";
paths = (
{
closed = 1;
nodes = (
"518 0 LINE SMOOTH",
"1006 0 OFFCURVE",
"1206 219 OFFCURVE",
"1206 748 CURVE SMOOTH",
"1206 1276 OFFCURVE",
"1006 1493 OFFCURVE",
"518 1493 CURVE SMOOTH",
"282 1493 LINE SMOOTH",
"265 1493 OFFCURVE",
"248 1492 OFFCURVE",
"231 1489 CURVE",
"50 1464 OFFCURVE",
"-28 1341 OFFCURVE",
"-28 1141 CURVE SMOOTH",
"-28 1064 LINE",
"227 1064 LINE",
"227 1080 OFFCURVE",
"227 1088 OFFCURVE",
"227 1088 CURVE",
"227 1125 OFFCURVE",
"243 1206 OFFCURVE",
"282 1206 CURVE",
"282 0 LINE"
);
},
{
closed = 1;
nodes = (
"809 1227 OFFCURVE",
"899 1096 OFFCURVE",
"899 748 CURVE SMOOTH",
"899 397 OFFCURVE",
"809 266 OFFCURVE",
"577 266 CURVE",
"577 1227 LINE"
);
}
);
width = 1233;
}
);
note = uni018A;
unicode = 018A;
},
{
glyphname = Dtopbar;
lastChange = "2018-03-04 04:33:50 +0000";
layers = (
{
layerId = "F25FDEC7-9088-49C2-ACEA-4290AADBBD1B";
paths = (
{
closed = 1;
nodes = (
"660 166 LINE SMOOTH",
"425 166 OFFCURVE",
"334 242 OFFCURVE",
"334 430 CURVE SMOOTH",
"334 625 OFFCURVE",
"436 713 OFFCURVE",
"660 713 CURVE SMOOTH",
"899 713 LINE",
"899 166 LINE"
);
},
{
closed = 1;
nodes = (
"899 877 LINE",
"664 877 LINE",
"411 867 OFFCURVE",
"251 798 OFFCURVE",
"184 671 CURVE SMOOTH",
"149 604 OFFCURVE",
"131 517 OFFCURVE",
"131 410 CURVE SMOOTH",
"131 139 OFFCURVE",
"309 0 OFFCURVE",
"660 0 CURVE SMOOTH",
"1102 0 LINE",
"1102 1493 LINE",
"200 1493 LINE",
"200 1327 LINE",
"899 1327 LINE"
);
}
);
width = 1233;
},
{
layerId = "60AE9F57-5482-48B8-82FC-FC2DEE823110";
paths = (
{
closed = 1;
nodes = (
"678 236 LINE SMOOTH",
"490 236 OFFCURVE",
"424 292 OFFCURVE",
"424 451 CURVE SMOOTH",
"424 612 OFFCURVE",
"497 678 OFFCURVE",
"678 678 CURVE SMOOTH",
"874 678 LINE",
"874 236 LINE"
);
},
{
closed = 1;
nodes = (
"874 1260 LINE",
"874 913 LINE",
"678 913 LINE SMOOTH",
"497 911 OFFCURVE",
"359 861 OFFCURVE",
"266 763 CURVE",
"223 713 LINE",
"212 698 OFFCURVE",
"204 689 OFFCURVE",
"200 684 CURVE",
"152 630 OFFCURVE",
"127 545 OFFCURVE",
"125 429 CURVE SMOOTH",
"125 423 OFFCURVE",
"125 417 OFFCURVE",
"125 410 CURVE SMOOTH",
"125 122 OFFCURVE",
"287 0 OFFCURVE",
"678 0 CURVE SMOOTH",
"1159 0 LINE",
"1159 1493 LINE",
"207 1494 LINE",
"207 1260 LINE"
);
}
);
width = 1233;
}
);
note = uni018B;
unicode = 018B;
},
{
glyphname = E;
lastChange = "2018-03-04 04:33:50 +0000";
layers = (
{
layerId = "F25FDEC7-9088-49C2-ACEA-4290AADBBD1B";
paths = (
{
closed = 1;
nodes = (
"1102 0 LINE",
"1102 170 LINE",
"399 170 LINE",
"399 711 LINE",
"1053 711 LINE",
"1053 881 LINE",
"399 881 LINE",
"399 1323 LINE",
"1083 1323 LINE",
"1083 1493 LINE",
"197 1493 LINE",
"197 0 LINE"
);
}
);
width = 1233;
},
{
layerId = "60AE9F57-5482-48B8-82FC-FC2DEE823110";
paths = (
{
closed = 1;
nodes = (
"463 260 LINE",
"463 651 LINE",
"1038 651 LINE",
"1038 911 LINE",
"463 911 LINE",
"463 1233 LINE",
"1098 1233 LINE",
"1098 1493 LINE",
"168 1493 LINE",
"168 0 LINE",
"1098 0 LINE",
"1098 260 LINE"
);
}
);
width = 1233;
}
);
note = E;
unicode = 0045;
},
{
glyphname = Eopen;
lastChange = "2018-03-04 04:33:50 +0000";
layers = (
{
layerId = "F25FDEC7-9088-49C2-ACEA-4290AADBBD1B";
paths = (
{
closed = 1;
nodes = (
"244 747 OFFCURVE",
"137 611 OFFCURVE",
"137 412 CURVE SMOOTH",
"137 137 OFFCURVE",
"332 -29 OFFCURVE",
"659 -29 CURVE SMOOTH",
"796 -29 OFFCURVE",
"942 -3 OFFCURVE",
"1079 45 CURVE",
"1079 246 LINE",
"943 175 OFFCURVE",
"812 141 OFFCURVE",
"681 141 CURVE SMOOTH",
"460 141 OFFCURVE",
"337 244 OFFCURVE",
"337 432 CURVE SMOOTH",
"337 605 OFFCURVE",
"464 715 OFFCURVE",
"667 715 CURVE SMOOTH",
"821 715 LINE",
"821 881 LINE",
"667 881 LINE SMOOTH",
"482 881 OFFCURVE",
"372 967 OFFCURVE",
"372 1112 CURVE SMOOTH",
"372 1265 OFFCURVE",
"472 1350 OFFCURVE",
"651 1350 CURVE SMOOTH",
"770 1350 OFFCURVE",
"895 1323 OFFCURVE",
"1034 1270 CURVE",
"1034 1456 LINE",
"873 1499 OFFCURVE",
"748 1520 OFFCURVE",
"651 1520 CURVE SMOOTH",
"360 1520 OFFCURVE",
"172 1359 OFFCURVE",
"172 1118 CURVE SMOOTH",
"172 954 OFFCURVE",
"265 844 OFFCURVE",
"440 799 CURVE"
);
}
);
width = 1233;
},
{
layerId = "60AE9F57-5482-48B8-82FC-FC2DEE823110";
paths = (
{
closed = 1;
nodes = (
"240 768 OFFCURVE",
"125 632 OFFCURVE",
"125 416 CURVE SMOOTH",
"125 127 OFFCURVE",
"315 -29 OFFCURVE",
"668 -29 CURVE SMOOTH",
"819 -29 OFFCURVE",
"967 -3 OFFCURVE",
"1100 45 CURVE",
"1100 319 LINE",
"975 256 OFFCURVE",
"828 223 OFFCURVE",
"668 223 CURVE SMOOTH",
"508 223 OFFCURVE",
"408 303 OFFCURVE",
"408 428 CURVE SMOOTH",
"408 581 OFFCURVE",
"505 668 OFFCURVE",
"676 668 CURVE SMOOTH",
"834 668 LINE",
"834 928 LINE",
"676 928 LINE SMOOTH",
"529 928 OFFCURVE",
"445 989 OFFCURVE",
"445 1094 CURVE SMOOTH",
"445 1205 OFFCURVE",
"529 1270 OFFCURVE",
"676 1270 CURVE SMOOTH",
"788 1270 OFFCURVE",
"918 1241 OFFCURVE",
"1055 1188 CURVE",
"1055 1456 LINE",
"918 1497 OFFCURVE",
"783 1520 OFFCURVE",
"660 1520 CURVE SMOOTH",
"345 1520 OFFCURVE",
"160 1374 OFFCURVE",
"160 1133 CURVE SMOOTH",
"160 956 OFFCURVE",
"265 840 OFFCURVE",
"453 805 CURVE"
);
}
);
width = 1233;
}
);
note = uni0190;
unicode = 0190;
},
{
glyphname = Ereversed;
lastChange = "2018-03-04 04:33:50 +0000";
layers = (
{
layerId = "F25FDEC7-9088-49C2-ACEA-4290AADBBD1B";
paths = (
{
closed = 1;
nodes = (
"216 1323 LINE",
"900 1323 LINE",
"900 881 LINE",
"246 881 LINE",
"246 711 LINE",
"900 711 LINE",
"900 170 LINE",
"197 170 LINE",
"197 0 LINE",
"1102 0 LINE",
"1102 1493 LINE",
"216 1493 LINE"
);
}
);
width = 1233;
},
{
layerId = "60AE9F57-5482-48B8-82FC-FC2DEE823110";
paths = (
{
closed = 1;
nodes = (
"168 1233 LINE",
"803 1233 LINE",
"803 911 LINE",
"228 911 LINE",
"228 651 LINE",
"803 651 LINE",
"803 260 LINE",
"168 260 LINE",
"168 0 LINE",
"1098 0 LINE",
"1098 1493 LINE",
"168 1493 LINE"
);
}
);
width = 1233;
}
);
note = uni018E;
unicode = 018E;
},
{
glyphname = Ezh;
lastChange = "2018-03-04 04:33:50 +0000";
layers = (
{
layerId = "F25FDEC7-9088-49C2-ACEA-4290AADBBD1B";
paths = (
{
closed = 1;
nodes = (
"26 140 OFFCURVE",
"233 -28 OFFCURVE",
"622 -28 CURVE SMOOTH",
"995 -28 OFFCURVE",
"1206 140 OFFCURVE",
"1206 435 CURVE SMOOTH",
"1206 527 OFFCURVE",
"1179 608 OFFCURVE",
"1126 677 CURVE SMOOTH",
"1011 821 OFFCURVE",
"847 884 OFFCURVE",
"708 884 CURVE",
"1084 1325 LINE",
"1084 1493 LINE",
"114 1493 LINE",
"114 1323 LINE",
"852 1323 LINE",
"482 882 LINE",
"482 716 LINE",
"656 716 LINE SMOOTH",
"875 716 OFFCURVE",
"1006 614 OFFCURVE",
"1006 435 CURVE SMOOTH",
"1006 244 OFFCURVE",
"869 142 OFFCURVE",
"617 142 CURVE SMOOTH",
"364 142 OFFCURVE",
"228 244 OFFCURVE",
"228 435 CURVE",
"26 435 LINE"
);
}
);
width = 1233;
},
{
layerId = "60AE9F57-5482-48B8-82FC-FC2DEE823110";
paths = (
{
closed = 1;
nodes = (
"1223 525 OFFCURVE",
"1196 612 OFFCURVE",
"1142 685 CURVE SMOOTH",
"1045 818 OFFCURVE",
"932 836 OFFCURVE",
"739 848 CURVE",
"1140 1249 LINE",
"1140 1493 LINE",
"130 1493 LINE",
"130 1233 LINE",
"696 1233 LINE",
"324 864 LINE",
"324 646 LINE",
"579 646 LINE SMOOTH",
"605 646 OFFCURVE",
"629 645 OFFCURVE",
"652 642 CURVE SMOOTH",
"801 626 OFFCURVE",
"876 558 OFFCURVE",
"876 439 CURVE SMOOTH",
"876 418 OFFCURVE",
"873 399 OFFCURVE",
"868 380 CURVE SMOOTH",
"841 283 OFFCURVE",
"749 234 OFFCURVE",
"592 234 CURVE SMOOTH",
"461 234 OFFCURVE",
"328 296 OFFCURVE",
"328 439 CURVE",
"10 439 LINE",
"10 142 OFFCURVE",
"172 -28 OFFCURVE",
"623 -28 CURVE SMOOTH",
"914 -28 OFFCURVE",
"1223 50 OFFCURVE",
"1223 425 CURVE SMOOTH"
);
}
);
width = 1233;
}
);
note = uni01B7;
unicode = 01B7;
},
{
glyphname = Ezhreversed;
lastChange = "2018-03-04 04:33:50 +0000";
layers = (
{
layerId = "F25FDEC7-9088-49C2-ACEA-4290AADBBD1B";
paths = (
{
closed = 1;
nodes = (
"1006 244 OFFCURVE",
"869 142 OFFCURVE",
"617 142 CURVE SMOOTH",
"364 142 OFFCURVE",
"228 244 OFFCURVE",
"228 435 CURVE SMOOTH",
"228 614 OFFCURVE",
"357 716 OFFCURVE",
"578 716 CURVE SMOOTH",
"752 716 LINE",
"752 882 LINE",
"382 1323 LINE",
"1118 1323 LINE",
"1118 1493 LINE",
"150 1493 LINE",
"150 1325 LINE",
"526 884 LINE",
"456 884 OFFCURVE",
"378 865 OFFCURVE",
"292 828 CURVE SMOOTH",
"160 771 OFFCURVE",
"26 619 OFFCURVE",
"26 435 CURVE SMOOTH",
"26 140 OFFCURVE",
"237 -28 OFFCURVE",
"610 -28 CURVE SMOOTH",
"999 -28 OFFCURVE",
"1206 140 OFFCURVE",
"1206 435 CURVE",
"1006 435 LINE"
);
}
);
width = 1233;
},
{
layerId = "60AE9F57-5482-48B8-82FC-FC2DEE823110";
paths = (
{
closed = 1;
nodes = (
"526 234 OFFCURVE",
"357 254 OFFCURVE",
"357 439 CURVE SMOOTH",
"357 577 OFFCURVE",
"456 646 OFFCURVE",
"654 646 CURVE SMOOTH",
"909 646 LINE",
"909 864 LINE",
"537 1233 LINE",
"1103 1233 LINE",
"1103 1493 LINE",
"93 1493 LINE",
"93 1249 LINE",
"494 848 LINE",
"397 842 OFFCURVE",
"323 831 OFFCURVE",
"271 816 CURVE SMOOTH",
"123 772 OFFCURVE",
"10 616 OFFCURVE",
"10 425 CURVE SMOOTH",
"10 359 OFFCURVE",
"21 299 OFFCURVE",
"42 246 CURVE SMOOTH",
"115 63 OFFCURVE",
"305 -28 OFFCURVE",
"610 -28 CURVE SMOOTH",
"1061 -28 OFFCURVE",
"1223 142 OFFCURVE",
"1223 439 CURVE",
"905 439 LINE",
"905 340 OFFCURVE",
"829 234 OFFCURVE",
"641 234 CURVE SMOOTH"
);
}
);
width = 1233;
}
);
note = uni01B8;
unicode = 01B8;
},
{
glyphname = F;
lastChange = "2018-03-04 04:33:50 +0000";
layers = (
{
layerId = "F25FDEC7-9088-49C2-ACEA-4290AADBBD1B";
paths = (
{
closed = 1;
nodes = (
"436 0 LINE",
"436 713 LINE",
"1049 713 LINE",
"1049 883 LINE",
"436 883 LINE",
"436 1323 LINE",
"1112 1323 LINE",
"1112 1493 LINE",
"233 1493 LINE",
"233 0 LINE"
);
}
);
width = 1233;
},
{
layerId = "60AE9F57-5482-48B8-82FC-FC2DEE823110";
paths = (
{
closed = 1;
nodes = (
"182 1493 LINE",
"182 0 LINE",
"477 0 LINE",
"477 651 LINE",
"1055 651 LINE",
"1055 911 LINE",
"477 911 LINE",
"477 1233 LINE",
"1112 1233 LINE",
"1112 1493 LINE"
);
}
);
width = 1233;
}
);
note = F;
unicode = 0046;
},
{
glyphname = Fhook;
lastChange = "2018-03-04 04:33:50 +0000";
layers = (
{
layerId = "F25FDEC7-9088-49C2-ACEA-4290AADBBD1B";
paths = (
{
closed = 1;
nodes = (
"380 -188 OFFCURVE",
"321 -270 OFFCURVE",
"201 -270 CURVE SMOOTH",
"63 -270 LINE",
"63 -426 LINE",
"239 -426 LINE SMOOTH",
"459 -426 OFFCURVE",
"583 -280 OFFCURVE",
"583 -20 CURVE SMOOTH",
"583 713 LINE",
"1107 713 LINE",
"1107 883 LINE",
"583 883 LINE",
"583 1323 LINE",
"1170 1323 LINE",
"1170 1493 LINE",
"380 1493 LINE",
"380 -20 LINE SMOOTH"
);
}
);
width = 1233;
},
{
layerId = "60AE9F57-5482-48B8-82FC-FC2DEE823110";
paths = (
{
closed = 1;
nodes = (
"290 1493 LINE",
"290 168 LINE",
"290 43 LINE SMOOTH",
"290 -140 OFFCURVE",
"247 -199 OFFCURVE",
"108 -199 CURVE",
"108 -424 LINE",
"194 -424 LINE SMOOTH",
"474 -424 OFFCURVE",
"574 -288 OFFCURVE",
"585 0 CURVE",
"585 43 LINE",
"585 168 LINE",
"585 651 LINE",
"1068 651 LINE",
"1068 911 LINE",
"585 911 LINE",
"585 1233 LINE",
"1125 1233 LINE",
"1125 1493 LINE"
);
}
);
width = 1233;
}
);
note = uni0191;
unicode = 0191;
},
{
glyphname = G;
lastChange = "2018-03-04 04:33:50 +0000";
layers = (
{
layerId = "F25FDEC7-9088-49C2-ACEA-4290AADBBD1B";
paths = (
{
closed = 1;
nodes = (
"694 766 LINE",
"694 600 LINE",
"911 600 LINE",
"911 199 LINE",
"856 155 OFFCURVE",
"791 135 OFFCURVE",
"702 135 CURVE SMOOTH",
"438 135 OFFCURVE",
"313 330 OFFCURVE",
"313 745 CURVE SMOOTH",
"313 1153 OFFCURVE",
"444 1356 OFFCURVE",
"707 1356 CURVE SMOOTH",
"834 1356 OFFCURVE",
"945 1309 OFFCURVE",
"1053 1206 CURVE",
"1053 1413 LINE",
"946 1485 OFFCURVE",
"832 1520 OFFCURVE",
"707 1520 CURVE SMOOTH",
"327 1520 OFFCURVE",
"102 1233 OFFCURVE",
"102 745 CURVE SMOOTH",
"102 256 OFFCURVE",
"323 -29 OFFCURVE",
"702 -29 CURVE SMOOTH",
"859 -29 OFFCURVE",
"996 23 OFFCURVE",
"1104 123 CURVE",
"1104 766 LINE"
);
}
);
width = 1233;
},
{
layerId = "60AE9F57-5482-48B8-82FC-FC2DEE823110";
paths = (
{
closed = 1;
nodes = (
"844 247 OFFCURVE",
"798 236 OFFCURVE",
"737 236 CURVE SMOOTH",
"533 236 OFFCURVE",
"424 413 OFFCURVE",
"424 745 CURVE SMOOTH",
"424 1088 OFFCURVE",
"534 1255 OFFCURVE",
"758 1255 CURVE SMOOTH",
"886 1255 OFFCURVE",
"994 1201 OFFCURVE",
"1077 1094 CURVE",
"1077 1421 LINE",
"976 1485 OFFCURVE",
"857 1520 OFFCURVE",
"737 1520 CURVE SMOOTH",
"336 1520 OFFCURVE",
"117 1248 OFFCURVE",
"117 745 CURVE SMOOTH",
"117 250 OFFCURVE",
"336 -29 OFFCURVE",
"723 -29 CURVE SMOOTH",
"879 -29 OFFCURVE",
"1017 22 OFFCURVE",
"1130 119 CURVE",
"1130 803 LINE",
"670 803 LINE",
"670 555 LINE",
"872 555 LINE",
"872 270 LINE"
);
}
);
width = 1233;
}
);
note = G;
unicode = 0047;
},
{
glyphname = Ghook;
lastChange = "2018-03-04 04:33:50 +0000";
layers = (
{
layerId = "F25FDEC7-9088-49C2-ACEA-4290AADBBD1B";
paths = (
{
closed = 1;
nodes = (
"644 766 LINE",
"644 600 LINE",
"860 600 LINE",
"860 199 LINE",
"807 155 OFFCURVE",
"740 135 OFFCURVE",
"652 135 CURVE SMOOTH",
"388 135 OFFCURVE",
"262 330 OFFCURVE",
"262 745 CURVE SMOOTH",
"262 1153 OFFCURVE",
"395 1356 OFFCURVE",
"656 1356 CURVE SMOOTH",
"784 1356 OFFCURVE",
"895 1309 OFFCURVE",
"1002 1206 CURVE",
"1002 1233 LINE SMOOTH",
"1003 1412 OFFCURVE",
"1069 1483 OFFCURVE",
"1181 1483 CURVE",
"1181 1639 LINE",
"1162 1639 LINE SMOOTH",
"1051 1639 OFFCURVE",
"966 1604 OFFCURVE",
"906 1533 CURVE SMOOTH",
"892 1516 OFFCURVE",
"880 1499 OFFCURVE",
"870 1482 CURVE",
"836 1494 LINE",
"779 1511 OFFCURVE",
"719 1520 OFFCURVE",
"656 1520 CURVE SMOOTH",
"277 1520 OFFCURVE",
"52 1233 OFFCURVE",
"52 745 CURVE SMOOTH",
"52 256 OFFCURVE",
"273 -29 OFFCURVE",
"652 -29 CURVE SMOOTH",
"809 -29 OFFCURVE",
"945 23 OFFCURVE",
"1054 123 CURVE",
"1054 766 LINE"
);
}
);
width = 1233;
},
{
layerId = "60AE9F57-5482-48B8-82FC-FC2DEE823110";
paths = (
{
closed = 1;
nodes = (
"621 236 OFFCURVE",
"588 242 OFFCURVE",
"557 254 CURVE SMOOTH",
"416 307 OFFCURVE",
"345 470 OFFCURVE",
"345 745 CURVE SMOOTH",
"345 764 OFFCURVE",
"345 783 OFFCURVE",
"346 801 CURVE SMOOTH",
"358 1104 OFFCURVE",
"469 1255 OFFCURVE",
"679 1255 CURVE SMOOTH",
"806 1255 OFFCURVE",
"912 1203 OFFCURVE",
"995 1098 CURVE SMOOTH",
"998 1094 LINE",
"998 1176 LINE SMOOTH",
"998 1364 OFFCURVE",
"1057 1418 OFFCURVE",
"1180 1418 CURVE SMOOTH",
"1195 1418 LINE",
"1195 1643 LINE",
"1098 1643 LINE SMOOTH",
"958 1643 OFFCURVE",
"858 1607 OFFCURVE",
"798 1535 CURVE SMOOTH",
"791 1527 OFFCURVE",
"785 1518 OFFCURVE",
"778 1508 CURVE",
"738 1516 OFFCURVE",
"698 1520 OFFCURVE",
"658 1520 CURVE SMOOTH",
"544 1520 OFFCURVE",
"444 1498 OFFCURVE",
"358 1453 CURVE SMOOTH",
"145 1342 OFFCURVE",
"38 1106 OFFCURVE",
"38 745 CURVE SMOOTH",
"38 250 OFFCURVE",
"257 -29 OFFCURVE",
"644 -29 CURVE SMOOTH",
"801 -29 OFFCURVE",
"936 20 OFFCURVE",
"1051 119 CURVE",
"1051 803 LINE",
"591 803 LINE",
"591 555 LINE",
"793 555 LINE",
"793 270 LINE",
"765 247 OFFCURVE",
"720 236 OFFCURVE",
"658 236 CURVE SMOOTH"
);
}
);
width = 1233;
}
);
note = uni0193;
unicode = 0193;
},
{
glyphname = Glottalstop;
lastChange = "2018-03-04 04:33:50 +0000";
layers = (
{
layerId = "F25FDEC7-9088-49C2-ACEA-4290AADBBD1B";
paths = (
{
closed = 1;
nodes = (
"857 1327 OFFCURVE",
"966 1224 OFFCURVE",
"966 1047 CURVE SMOOTH",
"966 870 OFFCURVE",
"856 766 OFFCURVE",
"669 766 CURVE SMOOTH",
"467 766 LINE",
"467 0 LINE",
"669 0 LINE",
"669 600 LINE",
"1004 600 OFFCURVE",
"1177 752 OFFCURVE",
"1177 1047 CURVE SMOOTH",
"1177 1339 OFFCURVE",
"1002 1493 OFFCURVE",
"669 1493 CURVE SMOOTH",
"374 1493 LINE SMOOTH",
"206 1493 OFFCURVE",
"56 1390 OFFCURVE",
"56 1149 CURVE SMOOTH",
"56 1079 LINE",
"212 1079 LINE",
"212 1128 LINE SMOOTH",
"212 1280 OFFCURVE",
"302 1327 OFFCURVE",
"374 1327 CURVE SMOOTH",
"669 1327 LINE SMOOTH"
);
}
);
width = 1233;
},
{
layerId = "60AE9F57-5482-48B8-82FC-FC2DEE823110";
paths = (
{
closed = 1;
nodes = (
"809 1214 OFFCURVE",
"894 1139 OFFCURVE",
"894 1006 CURVE SMOOTH",
"894 873 OFFCURVE",
"809 797 OFFCURVE",
"660 797 CURVE SMOOTH",
"318 797 LINE",
"318 0 LINE",
"613 0 LINE",
"613 518 LINE",
"993 518 OFFCURVE",
"1203 693 OFFCURVE",
"1203 1006 CURVE SMOOTH",
"1203 1318 OFFCURVE",
"992 1494 OFFCURVE",
"613 1493 CURVE SMOOTH",
"458 1492 LINE SMOOTH",
"413 1492 OFFCURVE",
"374 1491 OFFCURVE",
"342 1488 CURVE SMOOTH",
"250 1479 OFFCURVE",
"179 1453 OFFCURVE",
"129 1411 CURVE SMOOTH",
"107 1392 OFFCURVE",
"90 1375 OFFCURVE",
"78 1359 CURVE SMOOTH",
"46 1315 OFFCURVE",
"30 1241 OFFCURVE",
"30 1138 CURVE SMOOTH",
"30 1061 LINE",
"285 1061 LINE",
"285 1084 OFFCURVE",
"285 1099 OFFCURVE",
"286 1108 CURVE",
"289 1172 OFFCURVE",
"322 1213 OFFCURVE",
"379 1213 CURVE SMOOTH",
"380 1213 OFFCURVE",
"406 1213 OFFCURVE",
"458 1213 CURVE SMOOTH",
"660 1214 LINE SMOOTH"
);
}
);
width = 1233;
}
);
note = uni0241;
unicode = 0241;
},
{
glyphname = Yogh;
lastChange = "2018-03-04 04:33:50 +0000";
layers = (
{
layerId = "F25FDEC7-9088-49C2-ACEA-4290AADBBD1B";
paths = (
{
closed = 1;
nodes = (
"909 753 OFFCURVE",
"982 830 OFFCURVE",
"1021 906 CURVE SMOOTH",
"1060 981 OFFCURVE",
"1073 1044 OFFCURVE",
"1073 1124 CURVE SMOOTH",
"1073 1209 OFFCURVE",
"1052 1282 OFFCURVE",
"1011 1343 CURVE SMOOTH",
"928 1464 OFFCURVE",
"790 1520 OFFCURVE",
"615 1520 CURVE SMOOTH",
"478 1520 OFFCURVE",
"329 1465 OFFCURVE",
"170 1356 CURVE",
"170 1166 LINE",
"332 1289 OFFCURVE",
"474 1350 OFFCURVE",
"597 1350 CURVE SMOOTH",
"622 1350 OFFCURVE",
"647 1348 OFFCURVE",
"671 1344 CURVE SMOOTH",
"719 1336 OFFCURVE",
"773 1313 OFFCURVE",
"810 1279 CURVE SMOOTH",
"846 1245 OFFCURVE",
"872 1185 OFFCURVE",
"872 1112 CURVE SMOOTH",
"872 1003 OFFCURVE",
"828 908 OFFCURVE",
"759 842 CURVE SMOOTH",
"690 776 OFFCURVE",
"625 736 OFFCURVE",
"545 701 CURVE SMOOTH",
"297 595 LINE",
"297 424 LINE",
"460 496 LINE SMOOTH",
"537 530 OFFCURVE",
"607 547 OFFCURVE",
"670 547 CURVE SMOOTH",
"819 547 OFFCURVE",
"907 449 OFFCURVE",
"907 314 CURVE SMOOTH",
"907 209 OFFCURVE",
"846 104 OFFCURVE",
"723 2 CURVE SMOOTH",
"599 -100 OFFCURVE",
"392 -197 OFFCURVE",
"125 -270 CURVE",
"125 -430 LINE",
"227 -407 OFFCURVE",
"324 -380 OFFCURVE",
"417 -348 CURVE SMOOTH",
"602 -284 OFFCURVE",
"781 -191 OFFCURVE",
"905 -84 CURVE SMOOTH",
"1028 23 OFFCURVE",
"1108 165 OFFCURVE",
"1108 314 CURVE SMOOTH",
"1108 509 OFFCURVE",
"1005 629 OFFCURVE",
"800 674 CURVE"
);
}
);
width = 1233;
},
{
layerId = "60AE9F57-5482-48B8-82FC-FC2DEE823110";
paths = (
{
closed = 1;
nodes = (
"1050 772 OFFCURVE",
"1144 917 OFFCURVE",
"1144 1108 CURVE SMOOTH",
"1144 1141 OFFCURVE",
"1138 1175 OFFCURVE",
"1127 1210 CURVE SMOOTH",
"1104 1281 OFFCURVE",
"1047 1361 OFFCURVE",
"966 1420 CURVE SMOOTH",
"885 1479 OFFCURVE",
"750 1520 OFFCURVE",
"593 1520 CURVE SMOOTH",
"436 1520 OFFCURVE",
"278 1465 OFFCURVE",
"118 1356 CURVE",
"118 1100 LINE",
"274 1204 OFFCURVE",
"404 1256 OFFCURVE",
"507 1256 CURVE SMOOTH",
"560 1256 OFFCURVE",
"614 1245 OFFCURVE",
"668 1219 CURVE SMOOTH",
"722 1193 OFFCURVE",
"758 1138 OFFCURVE",
"758 1066 CURVE SMOOTH",
"758 1047 OFFCURVE",
"757 1031 OFFCURVE",
"755 1016 CURVE SMOOTH",
"751 986 OFFCURVE",
"729 926 OFFCURVE",
"690 882 CURVE SMOOTH",
"650 838 OFFCURVE",
"569 781 OFFCURVE",
"461 737 CURVE SMOOTH",
"227 642 LINE",
"227 388 LINE",
"443 473 LINE SMOOTH",
"486 490 OFFCURVE",
"526 498 OFFCURVE",
"563 498 CURVE SMOOTH",
"597 498 OFFCURVE",
"630 491 OFFCURVE",
"662 478 CURVE SMOOTH",
"725 450 OFFCURVE",
"779 385 OFFCURVE",
"779 300 CURVE SMOOTH",
"779 227 OFFCURVE",
"723 152 OFFCURVE",
"648 97 CURVE SMOOTH",
"572 41 OFFCURVE",
"460 -14 OFFCURVE",
"368 -49 CURVE SMOOTH",
"275 -85 OFFCURVE",
"167 -119 OFFCURVE",
"116 -132 CURVE SMOOTH",
"91 -139 OFFCURVE",
"70 -144 OFFCURVE",
"54 -147 CURVE",
"54 -430 LINE",
"215 -387 OFFCURVE",
"353 -346 OFFCURVE",
"470 -307 CURVE SMOOTH",
"702 -228 OFFCURVE",
"895 -137 OFFCURVE",
"1007 -40 CURVE SMOOTH",
"1119 57 OFFCURVE",
"1179 172 OFFCURVE",
"1179 311 CURVE SMOOTH",
"1179 472 OFFCURVE",
"1060 626 OFFCURVE",
"861 674 CURVE"
);
}
);
width = 1233;
}
);
note = uni021C;
unicode = 021C;
},
{
glyphname = H;
lastChange = "2018-03-04 04:33:50 +0000";
layers = (
{
layerId = "F25FDEC7-9088-49C2-ACEA-4290AADBBD1B";
paths = (
{
closed = 1;
nodes = (
"340 0 LINE",
"340 711 LINE",
"893 711 LINE",
"893 0 LINE",
"1096 0 LINE",
"1096 1493 LINE",
"893 1493 LINE",
"893 881 LINE",
"340 881 LINE",
"340 1493 LINE",
"137 1493 LINE",
"137 0 LINE"
);
}
);
width = 1233;
},
{
layerId = "60AE9F57-5482-48B8-82FC-FC2DEE823110";
paths = (
{
closed = 1;
nodes = (
"432 0 LINE",
"432 664 LINE",
"801 664 LINE",
"801 0 LINE",
"1096 0 LINE",
"1096 1493 LINE",
"801 1493 LINE",
"801 924 LINE",
"432 924 LINE",
"432 1493 LINE",
"137 1493 LINE",
"137 0 LINE"
);
}
);
width = 1233;
}
);
note = H;
unicode = 0048;
},
{
glyphname = Halfh;
lastChange = "2018-03-04 04:33:50 +0000";
layers = (
{
layerId = "F25FDEC7-9088-49C2-ACEA-4290AADBBD1B";
paths = (
{
closed = 1;
nodes = (
"340 0 LINE",
"340 711 LINE",
"1096 711 LINE",
"1096 881 LINE",
"340 881 LINE",
"340 1493 LINE",
"137 1493 LINE",
"137 0 LINE"
);
}
);
width = 1233;
},
{
layerId = "60AE9F57-5482-48B8-82FC-FC2DEE823110";
paths = (
{
closed = 1;
nodes = (
"432 0 LINE",
"432 664 LINE",
"1096 664 LINE",
"1096 924 LINE",
"432 924 LINE",
"432 1493 LINE",
"137 1493 LINE",
"137 0 LINE"
);
}
);
width = 1233;
}
);
note = uni2C75;
unicode = 2C75;
},
{
glyphname = Hbar;
lastChange = "2018-03-04 04:33:50 +0000";
layers = (
{
layerId = "F25FDEC7-9088-49C2-ACEA-4290AADBBD1B";
paths = (
{
closed = 1;
nodes = (
"3 1269 LINE",
"3 1105 LINE",
"137 1105 LINE",
"137 0 LINE",
"339 0 LINE",
"339 711 LINE",
"893 711 LINE",
"893 0 LINE",
"1095 0 LINE",
"1095 1105 LINE",
"1230 1105 LINE",
"1230 1269 LINE",
"1095 1269 LINE",
"1095 1493 LINE",
"893 1493 LINE",
"893 1269 LINE",
"339 1269 LINE",
"339 1493 LINE",
"137 1493 LINE",
"137 1269 LINE"
);
},
{
closed = 1;
nodes = (
"893 881 LINE",
"339 881 LINE",
"339 1105 LINE",
"893 1105 LINE"
);
}
);
width = 1233;
},
{
layerId = "60AE9F57-5482-48B8-82FC-FC2DEE823110";
paths = (
{
closed = 1;
nodes = (
"3 1269 LINE",
"3 1105 LINE",
"137 1105 LINE",
"137 0 LINE",
"432 0 LINE",
"432 664 LINE",
"801 664 LINE",
"801 0 LINE",
"1095 0 LINE",
"1095 1105 LINE",
"1230 1105 LINE",
"1230 1269 LINE",
"1095 1269 LINE",
"1095 1493 LINE",
"801 1493 LINE",
"801 1269 LINE",
"432 1269 LINE",
"432 1493 LINE",
"137 1493 LINE",
"137 1269 LINE"
);
},
{
closed = 1;
nodes = (
"801 924 LINE",
"432 924 LINE",
"432 1105 LINE",
"801 1105 LINE"
);
}
);
width = 1233;
}
);
note = Hbar;
unicode = 0126;
},
{
glyphname = Heng;
lastChange = "2018-03-04 04:33:50 +0000";
layers = (
{
layerId = "F25FDEC7-9088-49C2-ACEA-4290AADBBD1B";
paths = (
{
closed = 1;
nodes = (
"893 881 LINE",
"340 881 LINE",
"340 1493 LINE",
"137 1493 LINE",
"137 0 LINE",
"340 0 LINE",
"340 711 LINE",
"893 711 LINE",
"893 0 LINE SMOOTH",
"893 -195 OFFCURVE",
"834 -270 OFFCURVE",
"714 -270 CURVE SMOOTH",
"547 -270 LINE",
"547 -426 LINE",
"752 -426 LINE SMOOTH",
"972 -426 OFFCURVE",
"1096 -280 OFFCURVE",
"1096 -20 CURVE SMOOTH",
"1096 1493 LINE",
"893 1493 LINE"
);
}
);
width = 1233;
},
{
layerId = "60AE9F57-5482-48B8-82FC-FC2DEE823110";
paths = (
{
closed = 1;
nodes = (
"801 1493 LINE",
"801 924 LINE",
"432 924 LINE",
"432 1493 LINE",
"137 1493 LINE",
"137 0 LINE",
"432 0 LINE",
"432 664 LINE",
"801 664 LINE",
"801 44 LINE SMOOTH",
"801 -133 OFFCURVE",
"753 -199 OFFCURVE",
"620 -199 CURVE SMOOTH",
"583 -199 LINE",
"583 -426 LINE",
"704 -426 LINE SMOOTH",
"981 -426 OFFCURVE",
"1096 -297 OFFCURVE",
"1096 58 CURVE SMOOTH",
"1096 1493 LINE"
);
}
);
width = 1233;
}
);
note = uniA726;
unicode = A726;
},
{
glyphname = Hhook;
lastChange = "2018-03-04 04:33:50 +0000";
layers = (
{
layerId = "F25FDEC7-9088-49C2-ACEA-4290AADBBD1B";
paths = (
{
closed = 1;
nodes = (
"541 0 LINE",
"541 711 LINE",
"996 711 LINE",
"996 0 LINE",
"1199 0 LINE",
"1199 1493 LINE",
"996 1493 LINE",
"996 881 LINE",
"541 881 LINE",
"541 1493 LINE",
"338 1493 LINE SMOOTH",
"139 1493 OFFCURVE",
"20 1361 OFFCURVE",
"20 1149 CURVE SMOOTH",
"20 1079 LINE",
"176 1079 LINE",
"176 1128 LINE SMOOTH",
"176 1277 OFFCURVE",
"255 1327 OFFCURVE",
"338 1327 CURVE",
"338 0 LINE"
);
}
);
width = 1233;
},
{
layerId = "60AE9F57-5482-48B8-82FC-FC2DEE823110";
paths = (
{
closed = 1;
nodes = (
"92 1498 OFFCURVE",
"0 1406 OFFCURVE",
"0 1137 CURVE SMOOTH",
"0 1078 LINE",
"226 1078 LINE",
"226 1103 LINE SMOOTH",
"226 1191 OFFCURVE",
"253 1216 OFFCURVE",
"341 1216 CURVE",
"341 0 LINE",
"636 0 LINE",
"636 664 LINE",
"935 664 LINE",
"935 0 LINE",
"1230 0 LINE",
"1230 1493 LINE",
"935 1493 LINE",
"935 924 LINE",
"636 924 LINE",
"636 1493 LINE",
"396 1495 LINE SMOOTH"
);
}
);
width = 1233;
}
);
note = uniA7AA;
unicode = A7AA;
},
{
glyphname = Hwair;
lastChange = "2018-03-04 04:33:50 +0000";
layers = (
{
layerId = "F25FDEC7-9088-49C2-ACEA-4290AADBBD1B";
paths = (
{
closed = 1;
nodes = (
"846 135 OFFCURVE",
"823 148 OFFCURVE",
"808 174 CURVE SMOOTH",
"753 267 OFFCURVE",
"726 404 OFFCURVE",
"726 586 CURVE SMOOTH",
"726 1493 LINE",
"543 1493 LINE",
"543 881 LINE",
"244 881 LINE",
"244 1493 LINE",
"62 1493 LINE",
"62 0 LINE",
"244 0 LINE",
"244 711 LINE",
"543 711 LINE",
"543 561 LINE SMOOTH",
"543 325 OFFCURVE",
"588 156 OFFCURVE",
"677 54 CURVE SMOOTH",
"725 -1 OFFCURVE",
"792 -29 OFFCURVE",
"877 -29 CURVE SMOOTH",
"966 -29 OFFCURVE",
"1029 -3 OFFCURVE",
"1067 48 CURVE SMOOTH",
"1136 141 OFFCURVE",
"1171 312 OFFCURVE",
"1171 561 CURVE SMOOTH",
"1171 881 LINE",
"989 881 LINE",
"989 586 LINE SMOOTH",
"989 406 OFFCURVE",
"978 282 OFFCURVE",
"956 214 CURVE SMOOTH",
"939 161 OFFCURVE",
"913 135 OFFCURVE",
"877 135 CURVE SMOOTH"
);
}
);
width = 1233;
},
{
layerId = "60AE9F57-5482-48B8-82FC-FC2DEE823110";
paths = (
{
closed = 1;
nodes = (
"276 0 LINE",
"276 664 LINE",
"498 664 LINE",
"498 551 LINE SMOOTH",
"498 146 OFFCURVE",
"657 -29 OFFCURVE",
"845 -29 CURVE SMOOTH",
"1054 -29 OFFCURVE",
"1208 146 OFFCURVE",
"1208 551 CURVE SMOOTH",
"1208 924 LINE",
"957 924 LINE",
"957 477 LINE SMOOTH",
"957 310 OFFCURVE",
"937 238 OFFCURVE",
"845 238 CURVE SMOOTH",
"808 238 OFFCURVE",
"781 255 OFFCURVE",
"766 288 CURVE SMOOTH",
"755 313 OFFCURVE",
"749 376 OFFCURVE",
"749 477 CURVE SMOOTH",
"749 551 LINE",
"749 1493 LINE",
"498 1493 LINE",
"498 924 LINE",
"276 924 LINE",
"276 1493 LINE",
"25 1493 LINE",
"25 0 LINE"
);
}
);
width = 1233;
}
);
note = uni01F6;
unicode = 01F6;
},
{
glyphname = I;
lastChange = "2018-03-04 04:33:50 +0000";
layers = (
{
layerId = "F25FDEC7-9088-49C2-ACEA-4290AADBBD1B";
paths = (
{
closed = 1;
nodes = (
"514 1323 LINE",
"514 170 LINE",
"201 170 LINE",
"201 0 LINE",
"1030 0 LINE",
"1030 170 LINE",
"717 170 LINE",
"717 1323 LINE",
"1030 1323 LINE",
"1030 1493 LINE",
"201 1493 LINE",
"201 1323 LINE"
);
}
);
width = 1233;
},
{
layerId = "60AE9F57-5482-48B8-82FC-FC2DEE823110";
paths = (
{
closed = 1;
nodes = (
"469 260 LINE",
"172 260 LINE",
"172 0 LINE",
"1061 0 LINE",
"1061 260 LINE",
"764 260 LINE",
"764 1233 LINE",
"1061 1233 LINE",
"1061 1493 LINE",
"172 1493 LINE",
"172 1233 LINE",
"469 1233 LINE"
);
}
);
width = 1233;
}
);
note = I;
unicode = 0049;
},
{
glyphname = IJ;
lastChange = "2018-03-04 04:33:50 +0000";
layers = (
{
layerId = "F25FDEC7-9088-49C2-ACEA-4290AADBBD1B";
paths = (
{
closed = 1;
nodes = (
"745 3 OFFCURVE",
"829 -26 OFFCURVE",
"916 -26 CURVE SMOOTH",
"1140 -26 OFFCURVE",
"1228 114 OFFCURVE",
"1228 490 CURVE SMOOTH",
"1228 1496 LINE",
"831 1496 LINE",
"831 1326 LINE",
"1090 1326 LINE",
"1090 490 LINE SMOOTH",
"1090 355 OFFCURVE",
"1077 262 OFFCURVE",
"1052 212 CURVE SMOOTH",
"1026 163 OFFCURVE",
"981 138 OFFCURVE",
"916 138 CURVE SMOOTH",
"821 138 OFFCURVE",
"733 192 OFFCURVE",
"652 300 CURVE",
"652 64 LINE"
);
},
{
closed = 1;
nodes = (
"227 1323 LINE",
"227 170 LINE",
"-1 170 LINE",
"-1 0 LINE",
"604 0 LINE",
"604 170 LINE",
"376 170 LINE",
"376 1323 LINE",
"604 1323 LINE",
"604 1493 LINE",
"-1 1493 LINE",
"-1 1323 LINE"
);
}
);
width = 1233;
},
{
layerId = "60AE9F57-5482-48B8-82FC-FC2DEE823110";
paths = (
{
closed = 1;
nodes = (
"678 9 OFFCURVE",
"780 -26 OFFCURVE",
"872 -26 CURVE SMOOTH",
"1128 -26 OFFCURVE",
"1231 118 OFFCURVE",
"1231 482 CURVE SMOOTH",
"1231 1496 LINE",
"752 1496 LINE",
"752 1236 LINE",
"1016 1236 LINE",
"1016 482 LINE SMOOTH",
"1016 313 OFFCURVE",
"965 239 OFFCURVE",
"852 239 CURVE SMOOTH",
"756 239 OFFCURVE",
"659 302 OFFCURVE",
"575 419 CURVE",
"575 77 LINE"
);
},
{
closed = 1;
nodes = (
"182 260 LINE",
"-8 260 LINE",
"-8 0 LINE",
"561 0 LINE",
"561 260 LINE",
"371 260 LINE",
"371 1233 LINE",
"561 1233 LINE",
"561 1493 LINE",
"-8 1493 LINE",
"-8 1233 LINE",
"182 1233 LINE"
);
}
);
width = 1233;
}
);
note = IJ;
unicode = 0132;
},
{
glyphname = Iotaafrican;
lastChange = "2018-03-04 04:33:50 +0000";
layers = (
{
layerId = "F25FDEC7-9088-49C2-ACEA-4290AADBBD1B";
paths = (
{
closed = 1;
nodes = (
"514 142 OFFCURVE",
"638 0 OFFCURVE",
"865 0 CURVE SMOOTH",
"1082 0 LINE",
"1081 171 LINE",
"896 171 LINE SMOOTH",
"776 171 OFFCURVE",
"717 252 OFFCURVE",
"717 421 CURVE SMOOTH",
"717 1323 LINE",
"1030 1323 LINE",
"1030 1493 LINE",
"201 1493 LINE",
"201 1323 LINE",
"514 1323 LINE",
"514 406 LINE SMOOTH"
);
}
);
width = 1233;
},
{
layerId = "60AE9F57-5482-48B8-82FC-FC2DEE823110";
paths = (
{
closed = 1;
nodes = (
"470 163 OFFCURVE",
"619 0 OFFCURVE",
"894 0 CURVE SMOOTH",
"1128 0 LINE",
"1128 260 LINE",
"942 261 LINE SMOOTH",
"806 262 OFFCURVE",
"764 306 OFFCURVE",
"764 495 CURVE SMOOTH",
"764 1233 LINE",
"1061 1233 LINE",
"1061 1493 LINE",
"172 1493 LINE",
"172 1233 LINE",
"469 1233 LINE",
"470 719 OFFCURVE",
"470 462 OFFCURVE",
"470 462 CURVE"
);
}
);
width = 1233;
}
);
note = uni0196;
unicode = 0196;
},
{
glyphname = Istroke;
lastChange = "2018-03-04 04:33:50 +0000";
layers = (
{
layerId = "F25FDEC7-9088-49C2-ACEA-4290AADBBD1B";
paths = (
{
closed = 1;
nodes = (
"514 1323 LINE",
"514 747 LINE",
"251 747 LINE",
"251 577 LINE",
"514 577 LINE",
"514 170 LINE",
"201 170 LINE",
"201 0 LINE",
"1030 0 LINE",
"1030 170 LINE",
"717 170 LINE",
"717 577 LINE",
"984 577 LINE",
"984 747 LINE",
"717 747 LINE",
"717 1323 LINE",
"1030 1323 LINE",
"1030 1493 LINE",
"201 1493 LINE",
"201 1323 LINE"
);
}
);
width = 1233;
},
{
layerId = "60AE9F57-5482-48B8-82FC-FC2DEE823110";
paths = (
{
closed = 1;
nodes = (
"469 730 LINE",
"222 730 LINE",
"222 538 LINE",
"469 538 LINE",
"469 260 LINE",
"172 260 LINE",
"172 0 LINE",
"1061 0 LINE",
"1061 260 LINE",
"764 260 LINE",
"764 538 LINE",
"1011 538 LINE",
"1011 730 LINE",
"764 730 LINE",
"764 1233 LINE",
"1061 1233 LINE",
"1061 1493 LINE",
"172 1493 LINE",
"172 1233 LINE",
"469 1233 LINE"
);
}
);
width = 1233;
}
);
note = uni0197;
unicode = 0197;
},
{
glyphname = J;
lastChange = "2018-03-04 04:33:50 +0000";
layers = (
{
layerId = "F25FDEC7-9088-49C2-ACEA-4290AADBBD1B";
paths = (
{
closed = 1;
nodes = (
"246 0 OFFCURVE",
"370 -29 OFFCURVE",
"498 -29 CURVE SMOOTH",
"827 -29 OFFCURVE",
"956 111 OFFCURVE",
"956 487 CURVE SMOOTH",
"956 1493 LINE",
"373 1493 LINE",
"373 1323 LINE",
"754 1323 LINE",
"754 487 LINE SMOOTH",
"754 216 OFFCURVE",
"689 135 OFFCURVE",
"498 135 CURVE SMOOTH",
"359 135 OFFCURVE",
"230 189 OFFCURVE",
"109 297 CURVE",
"109 61 LINE"
);
}
);
width = 1233;
},
{
layerId = "60AE9F57-5482-48B8-82FC-FC2DEE823110";
paths = (
{
closed = 1;
nodes = (
"249 6 OFFCURVE",
"389 -29 OFFCURVE",
"516 -29 CURVE SMOOTH",
"867 -29 OFFCURVE",
"1008 115 OFFCURVE",
"1008 479 CURVE SMOOTH",
"1008 1493 LINE",
"352 1493 LINE",
"352 1233 LINE",
"713 1233 LINE",
"713 479 LINE SMOOTH",
"713 310 OFFCURVE",
"644 236 OFFCURVE",
"489 236 CURVE SMOOTH",
"357 236 OFFCURVE",
"224 299 OFFCURVE",
"109 416 CURVE",
"109 74 LINE"
);
}
);
width = 1233;
}
);
note = J;
unicode = 004A;
},
{
glyphname = K;
lastChange = "2018-03-04 04:33:50 +0000";
layers = (
{
layerId = "F25FDEC7-9088-49C2-ACEA-4290AADBBD1B";
paths = (
{
closed = 1;
nodes = (
"340 0 LINE",
"340 584 LINE",
"494 748 LINE",
"981 0 LINE",
"1225 0 LINE",
"627 883 LINE",
"1208 1493 LINE",
"971 1493 LINE",
"340 829 LINE",
"340 1493 LINE",
"137 1493 LINE",
"137 0 LINE"
);
}
);
width = 1233;
},
{
layerId = "60AE9F57-5482-48B8-82FC-FC2DEE823110";
paths = (
{
closed = 1;
nodes = (
"412 0 LINE",
"412 506 LINE",
"543 672 LINE",
"897 0 LINE",
"1225 0 LINE",
"737 905 LINE",
"1208 1493 LINE",
"874 1493 LINE",
"412 903 LINE",
"412 1493 LINE",
"117 1493 LINE",
"117 0 LINE"
);
}
);
width = 1233;
}
);
note = K;
unicode = 004B;
},
{
glyphname = Khook;
lastChange = "2018-03-04 04:33:50 +0000";
layers = (
{
layerId = "F25FDEC7-9088-49C2-ACEA-4290AADBBD1B";
paths = (
{
closed = 1;
nodes = (
"313 1493 LINE",
"110 1493 LINE",
"110 0 LINE",
"313 0 LINE",
"313 584 LINE",
"467 748 LINE",
"954 0 LINE",
"1198 0 LINE",
"600 883 LINE",
"764 1055 LINE SMOOTH",
"837 1132 OFFCURVE",
"895 1175 OFFCURVE",
"939 1185 CURVE SMOOTH",
"952 1188 OFFCURVE",
"964 1189 OFFCURVE",
"975 1189 CURVE SMOOTH",
"1015 1189 OFFCURVE",
"1050 1172 OFFCURVE",
"1080 1138 CURVE SMOOTH",
"1113 1101 LINE",
"1219 1215 LINE",
"1172 1266 LINE SMOOTH",
"1111 1332 OFFCURVE",
"1038 1365 OFFCURVE",
"954 1365 CURVE SMOOTH",
"941 1365 OFFCURVE",
"927 1364 OFFCURVE",
"913 1362 CURVE SMOOTH",
"843 1354 OFFCURVE",
"754 1293 OFFCURVE",
"647 1180 CURVE SMOOTH",
"313 829 LINE"
);
}
);
width = 1233;
},
{
layerId = "60AE9F57-5482-48B8-82FC-FC2DEE823110";
paths = (
{
closed = 1;
nodes = (
"911 1243 OFFCURVE",
"970 1246 OFFCURVE",
"1073 1165 CURVE",
"1213 1341 LINE",
"1149 1392 LINE SMOOTH",
"961 1543 OFFCURVE",
"802 1525 OFFCURVE",
"571 1230 CURVE SMOOTH",
"315 903 LINE",
"315 1493 LINE",
"20 1493 LINE",
"20 0 LINE",
"315 0 LINE",
"315 506 LINE",
"446 672 LINE",
"800 0 LINE",
"1128 0 LINE",
"640 905 LINE",
"764 1060 LINE SMOOTH"
);
}
);
width = 1233;
}
);
note = uni0198;
unicode = 0198;
},
{
glyphname = L;
lastChange = "2018-03-04 04:33:50 +0000";
layers = (
{
layerId = "F25FDEC7-9088-49C2-ACEA-4290AADBBD1B";
paths = (
{
closed = 1;
nodes = (
"1139 0 LINE",
"1139 170 LINE",
"418 170 LINE",
"418 1493 LINE",
"215 1493 LINE",
"215 0 LINE"
);
}
);
width = 1233;
},
{
layerId = "60AE9F57-5482-48B8-82FC-FC2DEE823110";
paths = (
{
closed = 1;
nodes = (
"1151 260 LINE",
"520 260 LINE",
"520 1493 LINE",
"225 1493 LINE",
"225 0 LINE",
"1151 0 LINE"
);
}
);
width = 1233;
}
);
note = L;
unicode = 004C;
},
{
glyphname = Lbar;
lastChange = "2018-03-04 04:33:50 +0000";
layers = (
{
layerId = "F25FDEC7-9088-49C2-ACEA-4290AADBBD1B";
paths = (
{
closed = 1;
nodes = (
"21 747 LINE",
"21 577 LINE",
"288 577 LINE",
"288 0 LINE",
"1212 0 LINE",
"1212 170 LINE",
"491 170 LINE",
"491 577 LINE",
"754 577 LINE",
"754 747 LINE",
"491 747 LINE",
"491 1493 LINE",
"288 1493 LINE",
"288 747 LINE"
);
}
);
width = 1233;
},
{
layerId = "60AE9F57-5482-48B8-82FC-FC2DEE823110";
paths = (
{
closed = 1;
nodes = (
"28 538 LINE",
"278 538 LINE",
"278 0 LINE",
"1204 0 LINE",
"1204 260 LINE",
"574 260 LINE",
"574 538 LINE",
"818 538 LINE",
"818 730 LINE",
"574 730 LINE",
"574 1493 LINE",
"278 1493 LINE",
"278 730 LINE",
"28 730 LINE"
);
}
);
width = 1233;
}
);
note = uni023D;
unicode = 023D;
},
{
glyphname = Lslash;
lastChange = "2018-03-04 04:33:50 +0000";
layers = (
{
layerId = "F25FDEC7-9088-49C2-ACEA-4290AADBBD1B";
paths = (
{
closed = 1;
nodes = (
"-10 575 LINE",
"70 465 LINE",
"215 571 LINE",
"215 0 LINE",
"1139 0 LINE",
"1139 170 LINE",
"418 170 LINE",
"418 711 LINE",
"811 985 LINE",
"733 1096 LINE",
"418 877 LINE",
"418 1493 LINE",
"215 1493 LINE",
"215 733 LINE"
);
}
);
width = 1233;
},
{
layerId = "60AE9F57-5482-48B8-82FC-FC2DEE823110";
paths = (
{
closed = 1;
nodes = (
"1151 260 LINE",
"520 260 LINE",
"520 741 LINE",
"907 1014 LINE",
"795 1167 LINE",
"520 973 LINE",
"520 1493 LINE",
"225 1493 LINE",
"225 768 LINE",
"-39 580 LINE",
"74 426 LINE",
"225 537 LINE",
"225 0 LINE",
"1151 0 LINE"
);
}
);
width = 1233;
}
);
note = Lslash;
unicode = 0141;
},
{
glyphname = M;
lastChange = "2018-03-04 04:33:50 +0000";
layers = (
{
layerId = "F25FDEC7-9088-49C2-ACEA-4290AADBBD1B";
paths = (
{
closed = 1;
nodes = (
"272 0 LINE",
"272 1319 LINE",
"539 532 LINE",
"692 532 LINE",
"958 1319 LINE",
"958 0 LINE",
"1145 0 LINE",
"1145 1493 LINE",
"874 1493 LINE",
"614 733 LINE",
"356 1493 LINE",
"86 1493 LINE",
"86 0 LINE"
);
}
);
width = 1233;
},
{
layerId = "60AE9F57-5482-48B8-82FC-FC2DEE823110";
paths = (
{
closed = 1;
nodes = (
"340 0 LINE",
"340 1196 LINE",
"500 543 LINE",
"735 543 LINE",
"893 1196 LINE",
"893 0 LINE",
"1147 0 LINE",
"1147 1493 LINE",
"793 1493 LINE",
"616 838 LINE",
"438 1493 LINE",
"86 1493 LINE",
"86 0 LINE"
);
}
);
width = 1233;
}
);
note = M;
unicode = 004D;
},
{
glyphname = Mhook;
lastChange = "2018-03-04 04:33:50 +0000";
layers = (
{
layerId = "F25FDEC7-9088-49C2-ACEA-4290AADBBD1B";
paths = (
{
closed = 1;
nodes = (
"958 -195 OFFCURVE",
"899 -270 OFFCURVE",
"779 -270 CURVE SMOOTH",
"596 -270 LINE",
"596 -426 LINE",
"801 -426 LINE SMOOTH",
"1021 -426 OFFCURVE",
"1145 -280 OFFCURVE",
"1145 -20 CURVE SMOOTH",
"1145 1493 LINE",
"874 1493 LINE",
"614 733 LINE",
"356 1493 LINE",
"86 1493 LINE",
"86 0 LINE",
"272 0 LINE",
"272 1319 LINE",
"539 532 LINE",
"692 532 LINE",
"958 1319 LINE",
"958 0 LINE SMOOTH"
);
}
);
width = 1233;
},
{
layerId = "60AE9F57-5482-48B8-82FC-FC2DEE823110";
paths = (
{
closed = 1;
nodes = (
"893 -133 OFFCURVE",
"844 -199 OFFCURVE",
"711 -199 CURVE SMOOTH",
"634 -199 LINE",
"634 -426 LINE",
"755 -426 LINE SMOOTH",
"1032 -426 OFFCURVE",
"1147 -299 OFFCURVE",
"1147 58 CURVE SMOOTH",
"1147 1493 LINE",
"793 1493 LINE",
"616 838 LINE",
"438 1493 LINE",
"86 1493 LINE",
"86 0 LINE",
"340 0 LINE",
"340 1196 LINE",
"500 543 LINE",
"735 543 LINE",
"893 1196 LINE",
"893 44 LINE SMOOTH"
);
}
);
width = 1233;
}
);
note = uni2C6E;
unicode = 2C6E;
},
{
glyphname = Mturned;
lastChange = "2018-03-04 04:33:50 +0000";
layers = (
{
layerId = "F25FDEC7-9088-49C2-ACEA-4290AADBBD1B";
paths = (
{
closed = 1;
nodes = (
"605 19 OFFCURVE",
"672 -27 OFFCURVE",
"773 -27 CURVE SMOOTH",
"857 -27 OFFCURVE",
"924 16 OFFCURVE",
"968 96 CURVE",
"968 0 LINE",
"1135 0 LINE",
"1135 1493 LINE",
"968 1493 LINE",
"968 479 LINE SMOOTH",
"968 326 OFFCURVE",
"959 230 OFFCURVE",
"940 189 CURVE SMOOTH",
"921 148 OFFCURVE",
"887 127 OFFCURVE",
"838 127 CURVE SMOOTH",
"789 127 OFFCURVE",
"755 146 OFFCURVE",
"736 183 CURVE SMOOTH",
"717 220 OFFCURVE",
"707 319 OFFCURVE",
"707 479 CURVE SMOOTH",
"707 1493 LINE",
"539 1493 LINE",
"539 479 LINE SMOOTH",
"539 326 OFFCURVE",
"529 230 OFFCURVE",
"510 189 CURVE SMOOTH",
"490 148 OFFCURVE",
"453 127 OFFCURVE",
"400 127 CURVE SMOOTH",
"353 127 OFFCURVE",
"321 146 OFFCURVE",
"304 185 CURVE SMOOTH",
"286 223 OFFCURVE",
"277 321 OFFCURVE",
"277 479 CURVE SMOOTH",
"277 1493 LINE",
"109 1493 LINE",
"109 471 LINE SMOOTH",
"109 278 OFFCURVE",
"128 147 OFFCURVE",
"165 78 CURVE SMOOTH",
"202 8 OFFCURVE",
"265 -27 OFFCURVE",
"355 -27 CURVE SMOOTH",
"454 -27 OFFCURVE",
"523 18 OFFCURVE",
"568 114 CURVE"
);
}
);
width = 1233;
},
{
layerId = "60AE9F57-5482-48B8-82FC-FC2DEE823110";
paths = (
{
closed = 1;
nodes = (
"563 35 OFFCURVE",
"648 -27 OFFCURVE",
"739 -27 CURVE SMOOTH",
"830 -27 OFFCURVE",
"909 28 OFFCURVE",
"942 116 CURVE",
"942 0 LINE",
"1155 0 LINE",
"1155 1493 LINE",
"915 1493 LINE",
"915 401 LINE SMOOTH",
"915 318 OFFCURVE",
"909 262 OFFCURVE",
"896 234 CURVE SMOOTH",
"883 206 OFFCURVE",
"860 192 OFFCURVE",
"827 192 CURVE SMOOTH",
"794 192 OFFCURVE",
"770 206 OFFCURVE",
"757 235 CURVE SMOOTH",
"744 264 OFFCURVE",
"737 319 OFFCURVE",
"737 401 CURVE SMOOTH",
"737 1493 LINE",
"500 1493 LINE",
"500 401 LINE SMOOTH",
"500 319 OFFCURVE",
"493 264 OFFCURVE",
"480 235 CURVE SMOOTH",
"467 206 OFFCURVE",
"443 192 OFFCURVE",
"410 192 CURVE SMOOTH",
"377 192 OFFCURVE",
"354 206 OFFCURVE",
"341 234 CURVE SMOOTH",
"328 262 OFFCURVE",
"322 318 OFFCURVE",
"322 401 CURVE SMOOTH",
"322 1493 LINE",
"82 1493 LINE",
"82 489 LINE SMOOTH",
"82 278 OFFCURVE",
"101 140 OFFCURVE",
"138 73 CURVE SMOOTH",
"175 6 OFFCURVE",
"241 -27 OFFCURVE",
"338 -27 CURVE SMOOTH",
"437 -27 OFFCURVE",
"503 17 OFFCURVE",
"547 112 CURVE"
);
}
);
width = 1233;
}
);
note = uni019C;
unicode = 019C;
},
{
glyphname = N;
lastChange = "2018-03-04 04:33:50 +0000";
layers = (
{
layerId = "F25FDEC7-9088-49C2-ACEA-4290AADBBD1B";
paths = (
{
closed = 1;
nodes = (
"334 0 LINE",
"334 1229 LINE",
"838 0 LINE",
"1094 0 LINE",
"1094 1493 LINE",
"899 1493 LINE",
"899 264 LINE",
"395 1493 LINE",
"139 1493 LINE",
"139 0 LINE"
);
}
);
width = 1233;
},
{
layerId = "60AE9F57-5482-48B8-82FC-FC2DEE823110";
paths = (
{
closed = 1;
nodes = (
"379 0 LINE",
"379 1085 LINE",
"797 0 LINE",
"1112 0 LINE",
"1112 1493 LINE",
"852 1493 LINE",
"852 408 LINE",
"436 1493 LINE",
"119 1493 LINE",
"119 0 LINE"
);
}
);
width = 1233;
}
);
note = N;
unicode = 004E;
},
{
glyphname = Ndescender;
lastChange = "2018-03-04 04:33:50 +0000";
layers = (
{
layerId = "F25FDEC7-9088-49C2-ACEA-4290AADBBD1B";
paths = (
{
closed = 1;
nodes = (
"279 0 LINE",
"279 1229 LINE",
"783 0 LINE",
"1003 0 LINE",
"1003 -322 LINE",
"1173 -322 LINE",
"1173 170 LINE",
"1039 170 LINE",
"1039 1493 LINE",
"844 1493 LINE",
"844 264 LINE",
"340 1493 LINE",
"84 1493 LINE",
"84 0 LINE"
);
}
);
width = 1233;
},
{
layerId = "60AE9F57-5482-48B8-82FC-FC2DEE823110";
paths = (
{
closed = 1;
nodes = (
"340 0 LINE",
"340 1085 LINE",
"758 0 LINE",
"883 0 LINE",
"883 -322 LINE",
"1176 -322 LINE",
"1176 260 LINE",
"1073 260 LINE",
"1073 1493 LINE",
"813 1493 LINE",
"813 408 LINE",
"397 1493 LINE",
"80 1493 LINE",
"80 0 LINE"
);
}
);
width = 1233;
}
);
note = uniA790;
unicode = A790;
},
{
glyphname = Eng;
lastChange = "2018-03-04 04:33:50 +0000";
layers = (
{
layerId = "F25FDEC7-9088-49C2-ACEA-4290AADBBD1B";
paths = (
{
closed = 1;
nodes = (
"1085 1348 OFFCURVE",
"962 1522 OFFCURVE",
"713 1522 CURVE SMOOTH",
"545 1522 OFFCURVE",
"421 1443 OFFCURVE",
"349 1295 CURVE",
"349 1493 LINE",
"147 1493 LINE",
"147 0 LINE",
"349 0 LINE",
"349 937 LINE SMOOTH",
"349 1208 OFFCURVE",
"454 1358 OFFCURVE",
"642 1358 CURVE SMOOTH",
"807 1358 OFFCURVE",
"882 1249 OFFCURVE",
"882 1009 CURVE SMOOTH",
"882 0 LINE SMOOTH",
"882 -195 OFFCURVE",
"823 -270 OFFCURVE",
"703 -270 CURVE SMOOTH",
"536 -270 LINE",
"536 -426 LINE",
"741 -426 LINE SMOOTH",
"961 -426 OFFCURVE",
"1085 -280 OFFCURVE",
"1085 -20 CURVE SMOOTH",
"1085 999 LINE SMOOTH"
);
}
);
width = 1233;
},
{
layerId = "60AE9F57-5482-48B8-82FC-FC2DEE823110";
paths = (
{
closed = 1;
nodes = (
"1125 1327 OFFCURVE",
"995 1522 OFFCURVE",
"743 1522 CURVE SMOOTH",
"575 1522 OFFCURVE",
"450 1424 OFFCURVE",
"401 1253 CURVE",
"401 1493 LINE",
"106 1493 LINE",
"106 0 LINE",
"401 0 LINE",
"401 972 LINE SMOOTH",
"401 1145 OFFCURVE",
"486 1255 OFFCURVE",
"631 1255 CURVE SMOOTH",
"772 1255 OFFCURVE",
"831 1187 OFFCURVE",
"831 1015 CURVE SMOOTH",
"831 44 LINE SMOOTH",
"831 -133 OFFCURVE",
"782 -199 OFFCURVE",
"649 -199 CURVE SMOOTH",
"612 -199 LINE",
"612 -426 LINE",
"733 -426 LINE SMOOTH",
"1010 -426 OFFCURVE",
"1125 -297 OFFCURVE",
"1125 58 CURVE SMOOTH",
"1125 942 LINE SMOOTH"
);
}
);
width = 1233;
}
);
note = Eng;
unicode = 014A;
},
{
glyphname = Nhookleft;
lastChange = "2018-03-04 04:33:50 +0000";
layers = (
{
layerId = "F25FDEC7-9088-49C2-ACEA-4290AADBBD1B";
paths = (
{
closed = 1;
nodes = (
"190 -189 OFFCURVE",
"137 -270 OFFCURVE",
"29 -270 CURVE",
"29 -426 LINE",
"56 -426 LINE SMOOTH",
"253 -426 OFFCURVE",
"366 -280 OFFCURVE",
"366 -20 CURVE SMOOTH",
"366 1229 LINE",
"819 0 LINE",
"1049 0 LINE",
"1049 1493 LINE",
"874 1493 LINE",
"874 264 LINE",
"420 1493 LINE",
"190 1493 LINE",
"190 -20 LINE SMOOTH"
);
}
);
width = 1233;
},
{
layerId = "60AE9F57-5482-48B8-82FC-FC2DEE823110";
paths = (
{
closed = 1;
nodes = (
"470 1085 LINE",
"888 0 LINE",
"1202 0 LINE",
"1202 1493 LINE",
"942 1493 LINE",
"942 408 LINE",
"526 1493 LINE",
"210 1493 LINE",
"210 41 LINE SMOOTH",
"210 -143 OFFCURVE",
"169 -201 OFFCURVE",
"90 -201 CURVE SMOOTH",
"30 -201 LINE",
"30 -426 LINE",
"78 -426 LINE SMOOTH",
"278 -426 OFFCURVE",
"457 -379 OFFCURVE",
"469 0 CURVE",
"470 0 LINE"
);
}
);
width = 1233;
}
);
note = uni019D;
unicode = 019D;
},
{
glyphname = Nlongrightleg;
lastChange = "2018-03-04 04:33:50 +0000";
layers = (
{
layerId = "F25FDEC7-9088-49C2-ACEA-4290AADBBD1B";
paths = (
{
closed = 1;
nodes = (
"1085 1348 OFFCURVE",
"962 1522 OFFCURVE",
"713 1522 CURVE SMOOTH",
"545 1522 OFFCURVE",
"421 1443 OFFCURVE",
"349 1295 CURVE",
"349 1493 LINE",
"147 1493 LINE",
"147 0 LINE",
"349 0 LINE",
"349 937 LINE SMOOTH",
"349 1208 OFFCURVE",
"454 1358 OFFCURVE",
"642 1358 CURVE SMOOTH",
"807 1358 OFFCURVE",
"882 1249 OFFCURVE",
"882 1009 CURVE SMOOTH",
"882 -430 LINE",
"1085 -430 LINE",
"1085 999 LINE SMOOTH"
);
}
);
width = 1233;
},
{
layerId = "60AE9F57-5482-48B8-82FC-FC2DEE823110";
paths = (
{
closed = 1;
nodes = (
"1125 1327 OFFCURVE",
"995 1522 OFFCURVE",
"743 1522 CURVE SMOOTH",
"575 1522 OFFCURVE",
"450 1424 OFFCURVE",
"401 1253 CURVE",
"401 1493 LINE",
"106 1493 LINE",
"106 0 LINE",
"401 0 LINE",
"401 972 LINE SMOOTH",
"401 1145 OFFCURVE",
"486 1255 OFFCURVE",
"631 1255 CURVE SMOOTH",
"772 1255 OFFCURVE",
"831 1187 OFFCURVE",
"831 1015 CURVE SMOOTH",
"831 -426 LINE",
"1125 -426 LINE",
"1125 942 LINE SMOOTH"
);
}
);
width = 1233;
}
);
note = uni0220;
unicode = 0220;
},
{
glyphname = O;
lastChange = "2018-03-04 04:33:50 +0000";
layers = (
{
layerId = "F25FDEC7-9088-49C2-ACEA-4290AADBBD1B";
paths = (
{
closed = 1;
nodes = (
"905 526 OFFCURVE",
"883 369 OFFCURVE",
"838 276 CURVE SMOOTH",
"793 182 OFFCURVE",
"719 135 OFFCURVE",
"616 135 CURVE SMOOTH",
"514 135 OFFCURVE",
"441 182 OFFCURVE",
"396 276 CURVE SMOOTH",
"351 370 OFFCURVE",
"328 526 OFFCURVE",
"328 745 CURVE SMOOTH",
"328 964 OFFCURVE",
"351 1121 OFFCURVE",
"396 1215 CURVE SMOOTH",
"441 1309 OFFCURVE",
"514 1356 OFFCURVE",
"616 1356 CURVE SMOOTH",
"719 1356 OFFCURVE",
"793 1309 OFFCURVE",
"838 1215 CURVE SMOOTH",
"883 1121 OFFCURVE",
"905 964 OFFCURVE",
"905 745 CURVE SMOOTH"
);
},
{
closed = 1;
nodes = (
"1116 1266 OFFCURVE",
"953 1520 OFFCURVE",
"616 1520 CURVE SMOOTH",
"280 1520 OFFCURVE",
"117 1266 OFFCURVE",
"117 745 CURVE SMOOTH",
"117 222 OFFCURVE",
"279 -29 OFFCURVE",
"616 -29 CURVE SMOOTH",
"953 -29 OFFCURVE",
"1116 225 OFFCURVE",
"1116 745 CURVE SMOOTH"
);
}
);
width = 1233;
},
{
layerId = "60AE9F57-5482-48B8-82FC-FC2DEE823110";
paths = (
{
closed = 1;
nodes = (
"692 1255 OFFCURVE",
"747 1215 OFFCURVE",
"782 1135 CURVE SMOOTH",
"817 1054 OFFCURVE",
"834 924 OFFCURVE",
"834 745 CURVE SMOOTH",
"834 566 OFFCURVE",
"817 437 OFFCURVE",
"782 357 CURVE SMOOTH",
"747 276 OFFCURVE",
"692 236 OFFCURVE",
"616 236 CURVE SMOOTH",
"541 236 OFFCURVE",
"486 276 OFFCURVE",
"451 357 CURVE SMOOTH",
"416 437 OFFCURVE",
"399 566 OFFCURVE",
"399 745 CURVE SMOOTH",
"399 924 OFFCURVE",
"416 1054 OFFCURVE",
"451 1135 CURVE SMOOTH",
"486 1215 OFFCURVE",
"541 1255 OFFCURVE",
"616 1255 CURVE SMOOTH"
);
},
{
closed = 1;
nodes = (
"92 236 OFFCURVE",
"271 -29 OFFCURVE",
"616 -29 CURVE SMOOTH",
"963 -29 OFFCURVE",
"1141 236 OFFCURVE",
"1141 745 CURVE SMOOTH",
"1141 1256 OFFCURVE",
"963 1520 OFFCURVE",
"616 1520 CURVE SMOOTH",
"271 1520 OFFCURVE",
"92 1256 OFFCURVE",
"92 745 CURVE SMOOTH"
);
}
);
width = 1233;
}
);
note = O;
unicode = 004F;
},
{
glyphname = Ocenteredtilde;
lastChange = "2018-03-04 04:33:50 +0000";
layers = (
{
layerId = "F25FDEC7-9088-49C2-ACEA-4290AADBBD1B";
paths = (
{
closed = 1;
nodes = (
"1116 1266 OFFCURVE",
"953 1520 OFFCURVE",
"616 1520 CURVE SMOOTH",
"280 1520 OFFCURVE",
"117 1266 OFFCURVE",
"117 745 CURVE SMOOTH",
"117 222 OFFCURVE",
"279 -29 OFFCURVE",
"616 -29 CURVE SMOOTH",
"953 -29 OFFCURVE",
"1116 225 OFFCURVE",
"1116 745 CURVE SMOOTH"
);
},
{
closed = 1;
nodes = (
"340 1180 OFFCURVE",
"412 1356 OFFCURVE",
"616 1356 CURVE SMOOTH",
"821 1356 OFFCURVE",
"893 1180 OFFCURVE",
"904 828 CURVE",
"329 828 LINE"
);
},
{
closed = 1;
nodes = (
"891 309 OFFCURVE",
"821 135 OFFCURVE",
"616 135 CURVE SMOOTH",
"412 135 OFFCURVE",
"342 311 OFFCURVE",
"330 644 CURVE",
"903 644 LINE"
);
}
);
width = 1233;
},
{
layerId = "60AE9F57-5482-48B8-82FC-FC2DEE823110";
paths = (
{
closed = 1;
nodes = (
"675 -29 OFFCURVE",
"728 -22 OFFCURVE",
"777 -7 CURVE SMOOTH",
"1020 68 OFFCURVE",
"1141 318 OFFCURVE",
"1141 745 CURVE SMOOTH",
"1141 1256 OFFCURVE",
"963 1520 OFFCURVE",
"616 1520 CURVE SMOOTH",
"552 1520 OFFCURVE",
"494 1511 OFFCURVE",
"441 1493 CURVE SMOOTH",
"208 1413 OFFCURVE",
"92 1164 OFFCURVE",
"92 745 CURVE SMOOTH",
"92 448 OFFCURVE",
"124 -29 OFFCURVE",
"616 -29 CURVE SMOOTH"
);
},
{
closed = 1;
nodes = (
"410 964 OFFCURVE",
"416 1008 OFFCURVE",
"423 1041 CURVE SMOOTH",
"453 1184 OFFCURVE",
"517 1255 OFFCURVE",
"616 1255 CURVE SMOOTH",
"673 1255 OFFCURVE",
"718 1232 OFFCURVE",
"752 1187 CURVE SMOOTH",
"791 1134 OFFCURVE",
"816 1042 OFFCURVE",
"828 911 CURVE",
"405 911 LINE"
);
},
{
closed = 1;
nodes = (
"819 382 OFFCURVE",
"768 236 OFFCURVE",
"616 236 CURVE SMOOTH",
"465 236 OFFCURVE",
"413 384 OFFCURVE",
"401 651 CURVE",
"832 651 LINE"
);
}
);
width = 1233;
}
);
note = uni019F;
unicode = 019F;
},
{
glyphname = Oi;
lastChange = "2018-03-04 04:33:50 +0000";
layers = (
{
layerId = "F25FDEC7-9088-49C2-ACEA-4290AADBBD1B";
paths = (
{
closed = 1;
nodes = (
"45 222 OFFCURVE",
"190 -29 OFFCURVE",
"494 -29 CURVE SMOOTH",
"646 -29 OFFCURVE",
"759 35 OFFCURVE",
"833 163 CURVE",
"833 1069 LINE",
"1013 1229 LINE",
"1013 0 LINE",
"1188 0 LINE",
"1188 1493 LINE",
"958 1493 LINE",
"811 1362 LINE",
"737 1467 OFFCURVE",
"631 1520 OFFCURVE",
"494 1520 CURVE SMOOTH",
"453 1520 OFFCURVE",
"414 1515 OFFCURVE",
"379 1506 CURVE SMOOTH",
"156 1447 OFFCURVE",
"45 1193 OFFCURVE",
"45 745 CURVE SMOOTH"
);
},
{
closed = 1;
nodes = (
"652 182 OFFCURVE",
"586 135 OFFCURVE",
"494 135 CURVE SMOOTH",
"402 135 OFFCURVE",
"336 182 OFFCURVE",
"296 276 CURVE SMOOTH",
"255 370 OFFCURVE",
"235 526 OFFCURVE",
"235 745 CURVE SMOOTH",
"235 964 OFFCURVE",
"255 1121 OFFCURVE",
"296 1215 CURVE SMOOTH",
"336 1309 OFFCURVE",
"402 1356 OFFCURVE",
"494 1356 CURVE SMOOTH",
"586 1356 OFFCURVE",
"652 1309 OFFCURVE",
"693 1215 CURVE",
"693 276 LINE"
);
}
);
width = 1233;
},
{
layerId = "60AE9F57-5482-48B8-82FC-FC2DEE823110";
paths = (
{
closed = 1;
nodes = (
"657 -29 OFFCURVE",
"775 36 OFFCURVE",
"855 167 CURVE",
"855 976 LINE",
"969 1136 LINE",
"969 0 LINE",
"1203 0 LINE",
"1203 1493 LINE",
"920 1493 LINE",
"827 1365 LINE",
"749 1468 OFFCURVE",
"640 1520 OFFCURVE",
"501 1520 CURVE SMOOTH",
"448 1520 OFFCURVE",
"400 1512 OFFCURVE",
"355 1497 CURVE SMOOTH",
"138 1422 OFFCURVE",
"30 1171 OFFCURVE",
"30 745 CURVE SMOOTH",
"30 448 OFFCURVE",
"60 -29 OFFCURVE",
"501 -29 CURVE SMOOTH"
);
},
{
closed = 1;
nodes = (
"306 961 OFFCURVE",
"313 1255 OFFCURVE",
"501 1255 CURVE SMOOTH",
"570 1255 OFFCURVE",
"620 1215 OFFCURVE",
"651 1134 CURVE",
"651 356 LINE",
"620 276 OFFCURVE",
"570 236 OFFCURVE",
"501 236 CURVE SMOOTH",
"456 236 OFFCURVE",
"420 254 OFFCURVE",
"391 289 CURVE SMOOTH",
"334 359 OFFCURVE",
"306 511 OFFCURVE",
"306 745 CURVE SMOOTH"
);
}
);
width = 1233;
}
);
note = uni01A2;
unicode = 01A2;
},
{
glyphname = Oopen;
lastChange = "2018-03-04 04:33:50 +0000";
layers = (
{
layerId = "F25FDEC7-9088-49C2-ACEA-4290AADBBD1B";
paths = (
{
closed = 1;
nodes = (
"238 1312 OFFCURVE",
"354 1356 OFFCURVE",
"469 1356 CURVE SMOOTH",
"732 1356 OFFCURVE",
"862 1154 OFFCURVE",
"862 745 CURVE SMOOTH",
"862 337 OFFCURVE",
"732 135 OFFCURVE",
"469 135 CURVE SMOOTH",
"352 135 OFFCURVE",
"236 179 OFFCURVE",
"139 260 CURVE",
"139 53 LINE",
"242 -2 OFFCURVE",
"348 -29 OFFCURVE",
"469 -29 CURVE SMOOTH",
"852 -29 OFFCURVE",
"1073 254 OFFCURVE",
"1073 745 CURVE SMOOTH",
"1073 1233 OFFCURVE",
"849 1520 OFFCURVE",
"469 1520 CURVE SMOOTH",
"348 1520 OFFCURVE",
"242 1493 OFFCURVE",
"139 1438 CURVE",
"139 1231 LINE"
);
}
);
width = 1233;
},
{
layerId = "60AE9F57-5482-48B8-82FC-FC2DEE823110";
paths = (
{
closed = 1;
nodes = (
"253 1213 OFFCURVE",
"346 1255 OFFCURVE",
"447 1255 CURVE SMOOTH",
"663 1255 OFFCURVE",
"774 1082 OFFCURVE",
"774 745 CURVE SMOOTH",
"774 409 OFFCURVE",
"663 236 OFFCURVE",
"447 236 CURVE SMOOTH",
"346 236 OFFCURVE",
"253 278 OFFCURVE",
"152 371 CURVE",
"152 43 LINE",
"245 -5 OFFCURVE",
"348 -29 OFFCURVE",
"461 -29 CURVE SMOOTH",
"864 -29 OFFCURVE",
"1081 244 OFFCURVE",
"1081 745 CURVE SMOOTH",
"1081 1248 OFFCURVE",
"864 1520 OFFCURVE",
"461 1520 CURVE SMOOTH",
"348 1520 OFFCURVE",
"243 1496 OFFCURVE",
"152 1448 CURVE",
"152 1120 LINE"
);
}
);
width = 1233;
}
);
note = uni0186;
unicode = 0186;
},
{
glyphname = Oslash;
lastChange = "2018-03-04 04:33:50 +0000";
layers = (
{
layerId = "F25FDEC7-9088-49C2-ACEA-4290AADBBD1B";
paths = (
{
closed = 1;
nodes = (
"898 976 OFFCURVE",
"905 892 OFFCURVE",
"905 745 CURVE SMOOTH",
"905 526 OFFCURVE",
"883 369 OFFCURVE",
"838 276 CURVE SMOOTH",
"793 182 OFFCURVE",
"719 135 OFFCURVE",
"616 135 CURVE SMOOTH",
"504 135 OFFCURVE",
"411 199 OFFCURVE",
"371 303 CURVE",
"885 1036 LINE"
);
},
{
closed = 1;
nodes = (
"331 516 OFFCURVE",
"328 579 OFFCURVE",
"328 686 CURVE SMOOTH",
"328 938 OFFCURVE",
"350 1113 OFFCURVE",
"394 1210 CURVE SMOOTH",
"437 1307 OFFCURVE",
"511 1356 OFFCURVE",
"616 1356 CURVE SMOOTH",
"731 1356 OFFCURVE",
"809 1298 OFFCURVE",
"842 1190 CURVE",
"338 471 LINE"
);
},
{
closed = 1;
nodes = (
"1100 1559 LINE",
"961 1358 LINE",
"885 1465 OFFCURVE",
"769 1520 OFFCURVE",
"616 1520 CURVE SMOOTH",
"280 1520 OFFCURVE",
"117 1266 OFFCURVE",
"117 745 CURVE SMOOTH",
"117 534 OFFCURVE",
"143 349 OFFCURVE",
"186 252 CURVE",
"8 0 LINE",
"111 -70 LINE",
"254 133 LINE",
"335 25 OFFCURVE",
"455 -29 OFFCURVE",
"616 -29 CURVE SMOOTH",
"953 -29 OFFCURVE",
"1116 225 OFFCURVE",
"1116 745 CURVE SMOOTH",
"1116 962 OFFCURVE",
"1087 1139 OFFCURVE",
"1032 1247 CURVE",
"1200 1485 LINE"
);
}
);
width = 1233;
},
{
layerId = "60AE9F57-5482-48B8-82FC-FC2DEE823110";
paths = (
{
closed = 1;
nodes = (
"833 817 OFFCURVE",
"834 782 OFFCURVE",
"834 745 CURVE SMOOTH",
"834 566 OFFCURVE",
"817 437 OFFCURVE",
"782 357 CURVE SMOOTH",
"747 276 OFFCURVE",
"692 236 OFFCURVE",
"616 236 CURVE SMOOTH",
"541 236 OFFCURVE",
"483 278 OFFCURVE",
"451 354 CURVE",
"829 888 LINE"
);
},
{
closed = 1;
nodes = (
"399 756 LINE SMOOTH",
"399 929 OFFCURVE",
"417 1055 OFFCURVE",
"452 1135 CURVE SMOOTH",
"487 1215 OFFCURVE",
"541 1255 OFFCURVE",
"616 1255 CURVE SMOOTH",
"685 1255 OFFCURVE",
"737 1221 OFFCURVE",
"772 1153 CURVE",
"399 629 LINE"
);
},
{
closed = 1;
nodes = (
"156 -63 LINE",
"276 104 LINE",
"361 16 OFFCURVE",
"475 -29 OFFCURVE",
"616 -29 CURVE SMOOTH",
"963 -29 OFFCURVE",
"1141 236 OFFCURVE",
"1141 745 CURVE SMOOTH",
"1141 936 OFFCURVE",
"1115 1096 OFFCURVE",
"1063 1221 CURVE",
"1221 1444 LINE",
"1059 1559 LINE",
"946 1397 LINE",
"865 1478 OFFCURVE",
"753 1520 OFFCURVE",
"616 1520 CURVE SMOOTH",
"271 1520 OFFCURVE",
"92 1256 OFFCURVE",
"92 745 CURVE SMOOTH",
"92 557 OFFCURVE",
"115 406 OFFCURVE",
"162 289 CURVE",
"-6 51 LINE"
);
}
);
width = 1233;
}
);
note = Oslash;
unicode = 00D8;
},
{
glyphname = OE;
lastChange = "2018-03-04 04:33:50 +0000";
layers = (
{
layerId = "F25FDEC7-9088-49C2-ACEA-4290AADBBD1B";
paths = (
{
closed = 1;
nodes = (
"848 711 LINE",
"1176 711 LINE",
"1176 881 LINE",
"848 881 LINE",
"848 1323 LINE",
"1206 1323 LINE",
"1206 1493 LINE",
"612 1493 LINE SMOOTH",
"217 1493 OFFCURVE",
"72 1301 OFFCURVE",
"72 745 CURVE SMOOTH",
"72 196 OFFCURVE",
"219 0 OFFCURVE",
"612 0 CURVE SMOOTH",
"1217 0 LINE",
"1217 170 LINE",
"848 170 LINE"
);
},
{
closed = 1;
nodes = (
"651 170 LINE",
"590 170 LINE SMOOTH",
"354 170 OFFCURVE",
"274 284 OFFCURVE",
"274 745 CURVE SMOOTH",
"274 1209 OFFCURVE",
"354 1323 OFFCURVE",
"590 1323 CURVE SMOOTH",
"651 1323 LINE"
);
}
);
width = 1233;
},
{
layerId = "60AE9F57-5482-48B8-82FC-FC2DEE823110";
paths = (
{
closed = 1;
nodes = (
"874 662 LINE",
"1176 662 LINE",
"1176 922 LINE",
"874 922 LINE",
"874 1233 LINE",
"1206 1233 LINE",
"1206 1493 LINE",
"633 1493 LINE SMOOTH",
"202 1493 OFFCURVE",
"68 1326 OFFCURVE",
"68 745 CURVE SMOOTH",
"68 166 OFFCURVE",
"201 0 OFFCURVE",
"633 0 CURVE SMOOTH",
"1217 0 LINE",
"1217 260 LINE",
"874 260 LINE"
);
},
{
closed = 1;
nodes = (
"621 260 LINE",
"569 260 LINE SMOOTH",
"486 260 OFFCURVE",
"430 289 OFFCURVE",
"400 347 CURVE SMOOTH",
"369 405 OFFCURVE",
"354 538 OFFCURVE",
"354 745 CURVE SMOOTH",
"354 952 OFFCURVE",
"369 1085 OFFCURVE",
"400 1144 CURVE SMOOTH",
"431 1203 OFFCURVE",
"487 1233 OFFCURVE",
"569 1233 CURVE SMOOTH",
"621 1233 LINE"
);
}
);
width = 1233;
}
);
note = OE;
unicode = 0152;
},
{
glyphname = P;
lastChange = "2018-03-04 04:33:50 +0000";
layers = (
{
layerId = "F25FDEC7-9088-49C2-ACEA-4290AADBBD1B";
paths = (
{
closed = 1;
nodes = (
"821 1327 OFFCURVE",
"930 1224 OFFCURVE",
"930 1047 CURVE SMOOTH",
"930 870 OFFCURVE",
"820 766 OFFCURVE",
"633 766 CURVE SMOOTH",
"399 766 LINE",
"399 1327 LINE",
"633 1327 LINE SMOOTH"
);
},
{
closed = 1;
nodes = (
"399 0 LINE",
"399 600 LINE",
"633 600 LINE SMOOTH",
"968 600 OFFCURVE",
"1141 752 OFFCURVE",
"1141 1047 CURVE SMOOTH",
"1141 1339 OFFCURVE",
"966 1493 OFFCURVE",
"633 1493 CURVE SMOOTH",
"197 1493 LINE",
"197 0 LINE"
);
}
);
width = 1233;
},
{
layerId = "60AE9F57-5482-48B8-82FC-FC2DEE823110";
paths = (
{
closed = 1;
nodes = (
"771 1245 OFFCURVE",
"840 1187 OFFCURVE",
"840 1026 CURVE SMOOTH",
"840 865 OFFCURVE",
"771 807 OFFCURVE",
"578 807 CURVE SMOOTH",
"457 807 LINE",
"457 1245 LINE",
"578 1245 LINE SMOOTH"
);
},
{
closed = 1;
nodes = (
"457 0 LINE",
"457 559 LINE",
"567 559 LINE SMOOTH",
"979 559 OFFCURVE",
"1147 697 OFFCURVE",
"1147 1026 CURVE SMOOTH",
"1147 1355 OFFCURVE",
"979 1493 OFFCURVE",
"567 1493 CURVE SMOOTH",
"162 1493 LINE",
"162 0 LINE"
);
}
);
width = 1233;
}
);
note = P;
unicode = 0050;
},
{
glyphname = Phook;
lastChange = "2018-03-04 04:33:50 +0000";
layers = (
{
layerId = "F25FDEC7-9088-49C2-ACEA-4290AADBBD1B";
paths = (
{
closed = 1;
nodes = (
"1177 1104 OFFCURVE",
"1171 1155 OFFCURVE",
"1158 1201 CURVE SMOOTH",
"1103 1396 OFFCURVE",
"940 1493 OFFCURVE",
"669 1493 CURVE SMOOTH",
"374 1493 LINE SMOOTH",
"206 1493 OFFCURVE",
"56 1390 OFFCURVE",
"56 1149 CURVE SMOOTH",
"56 1079 LINE",
"212 1079 LINE",
"212 1128 LINE SMOOTH",
"212 1280 OFFCURVE",
"302 1327 OFFCURVE",
"374 1327 CURVE",
"374 0 LINE",
"576 0 LINE",
"576 600 LINE",
"669 600 LINE SMOOTH",
"742 600 OFFCURVE",
"808 607 OFFCURVE",
"865 622 CURVE SMOOTH",
"1073 673 OFFCURVE",
"1177 815 OFFCURVE",
"1177 1047 CURVE SMOOTH"
);
},
{
closed = 1;
nodes = (
"576 1327 LINE",
"669 1327 LINE SMOOTH",
"857 1327 OFFCURVE",
"966 1224 OFFCURVE",
"966 1047 CURVE SMOOTH",
"966 1002 OFFCURVE",
"959 960 OFFCURVE",
"944 923 CURVE SMOOTH",
"901 818 OFFCURVE",
"810 766 OFFCURVE",
"669 766 CURVE SMOOTH",
"576 766 LINE"
);
}
);
width = 1233;
},
{
layerId = "60AE9F57-5482-48B8-82FC-FC2DEE823110";
paths = (
{
closed = 1;
nodes = (
"837 1245 OFFCURVE",
"906 1187 OFFCURVE",
"906 1026 CURVE SMOOTH",
"906 865 OFFCURVE",
"837 807 OFFCURVE",
"644 807 CURVE SMOOTH",
"625 807 LINE",
"625 1245 LINE",
"644 1245 LINE SMOOTH"
);
},
{
closed = 1;
nodes = (
"625 0 LINE",
"625 559 LINE",
"633 559 LINE SMOOTH",
"1045 559 OFFCURVE",
"1213 697 OFFCURVE",
"1213 1026 CURVE SMOOTH",
"1213 1355 OFFCURVE",
"1045 1493 OFFCURVE",
"633 1493 CURVE SMOOTH",
"330 1493 LINE SMOOTH",
"313 1493 OFFCURVE",
"296 1492 OFFCURVE",
"279 1489 CURVE",
"98 1464 OFFCURVE",
"20 1341 OFFCURVE",
"20 1141 CURVE SMOOTH",
"20 1064 LINE",
"275 1064 LINE",
"275 1088 LINE SMOOTH",
"275 1125 OFFCURVE",
"291 1206 OFFCURVE",
"330 1206 CURVE",
"330 0 LINE"
);
}
);
width = 1233;
}
);
note = uni01A4;
unicode = 01A4;
},
{
glyphname = Thorn;
lastChange = "2018-03-04 04:33:50 +0000";
layers = (
{
layerId = "F25FDEC7-9088-49C2-ACEA-4290AADBBD1B";
paths = (
{
closed = 1;
nodes = (
"848 1057 OFFCURVE",
"952 970 OFFCURVE",
"952 795 CURVE SMOOTH",
"952 620 OFFCURVE",
"848 532 OFFCURVE",
"637 532 CURVE SMOOTH",
"403 532 LINE",
"403 1057 LINE",
"637 1057 LINE SMOOTH"
);
},
{
closed = 1;
nodes = (
"403 0 LINE",
"403 367 LINE",
"657 367 LINE SMOOTH",
"1004 367 OFFCURVE",
"1165 503 OFFCURVE",
"1165 795 CURVE SMOOTH",
"1165 1086 OFFCURVE",
"1004 1223 OFFCURVE",
"657 1223 CURVE SMOOTH",
"403 1223 LINE",
"403 1493 LINE",
"201 1493 LINE",
"201 0 LINE"
);
}
);
width = 1233;
},
{
layerId = "60AE9F57-5482-48B8-82FC-FC2DEE823110";
paths = (
{
closed = 1;
nodes = (
"771 1014 OFFCURVE",
"840 954 OFFCURVE",
"840 793 CURVE SMOOTH",
"840 633 OFFCURVE",
"773 575 OFFCURVE",
"578 575 CURVE SMOOTH",
"457 575 LINE",
"457 1014 LINE",
"578 1014 LINE SMOOTH"
);
},
{
closed = 1;
nodes = (
"457 0 LINE",
"457 332 LINE",
"567 332 LINE SMOOTH",
"975 332 OFFCURVE",
"1147 469 OFFCURVE",
"1147 788 CURVE SMOOTH",
"1147 1119 OFFCURVE",
"979 1255 OFFCURVE",
"567 1255 CURVE SMOOTH",
"457 1255 LINE",
"457 1493 LINE",
"162 1493 LINE",
"162 0 LINE"
);
}
);
width = 1233;
}
);
note = Thorn;
unicode = 00DE;
},
{
glyphname = Q;
lastChange = "2018-03-04 04:33:50 +0000";
layers = (
{
layerId = "F25FDEC7-9088-49C2-ACEA-4290AADBBD1B";
paths = (
{
closed = 1;
nodes = (
"1040 -170 LINE",
"840 20 LINE",
"1025 116 OFFCURVE",
"1116 353 OFFCURVE",
"1116 745 CURVE SMOOTH",
"1116 1266 OFFCURVE",
"953 1520 OFFCURVE",
"616 1520 CURVE SMOOTH",
"280 1520 OFFCURVE",
"117 1266 OFFCURVE",
"117 745 CURVE SMOOTH",
"117 225 OFFCURVE",
"281 -29 OFFCURVE",
"614 -29 CURVE SMOOTH",
"619 -29 OFFCURVE",
"626 -29 OFFCURVE",
"635 -28 CURVE SMOOTH",
"644 -27 OFFCURVE",
"650 -27 OFFCURVE",
"655 -27 CURVE",
"889 -270 LINE"
);
},
{
closed = 1;
nodes = (
"905 526 OFFCURVE",
"883 369 OFFCURVE",
"838 276 CURVE SMOOTH",
"793 182 OFFCURVE",
"719 135 OFFCURVE",
"616 135 CURVE SMOOTH",
"514 135 OFFCURVE",
"441 182 OFFCURVE",
"396 276 CURVE SMOOTH",
"351 370 OFFCURVE",
"328 526 OFFCURVE",
"328 745 CURVE SMOOTH",
"328 964 OFFCURVE",
"351 1121 OFFCURVE",
"396 1215 CURVE SMOOTH",
"441 1309 OFFCURVE",
"514 1356 OFFCURVE",
"616 1356 CURVE SMOOTH",
"719 1356 OFFCURVE",
"793 1309 OFFCURVE",
"838 1215 CURVE SMOOTH",
"883 1121 OFFCURVE",
"905 964 OFFCURVE",
"905 745 CURVE SMOOTH"
);
}
);
width = 1233;
},
{
layerId = "60AE9F57-5482-48B8-82FC-FC2DEE823110";
paths = (
{
closed = 1;
nodes = (
"1081 -131 LINE",
"895 51 LINE",
"1055 152 OFFCURVE",
"1141 394 OFFCURVE",
"1141 745 CURVE SMOOTH",
"1141 1256 OFFCURVE",
"963 1520 OFFCURVE",
"616 1520 CURVE SMOOTH",
"271 1520 OFFCURVE",
"92 1256 OFFCURVE",
"92 745 CURVE SMOOTH",
"92 236 OFFCURVE",
"271 -29 OFFCURVE",
"614 -29 CURVE SMOOTH",
"626 -29 OFFCURVE",
"637 -27 OFFCURVE",
"656 -23 CURVE",
"879 -281 LINE"
);
},
{
closed = 1;
nodes = (
"692 1255 OFFCURVE",
"747 1215 OFFCURVE",
"782 1135 CURVE SMOOTH",
"817 1054 OFFCURVE",
"834 924 OFFCURVE",
"834 745 CURVE SMOOTH",
"834 566 OFFCURVE",
"817 437 OFFCURVE",
"782 357 CURVE SMOOTH",
"747 276 OFFCURVE",
"692 236 OFFCURVE",
"616 236 CURVE SMOOTH",
"541 236 OFFCURVE",
"486 276 OFFCURVE",
"451 357 CURVE SMOOTH",
"416 437 OFFCURVE",
"399 566 OFFCURVE",
"399 745 CURVE SMOOTH",
"399 924 OFFCURVE",
"416 1054 OFFCURVE",
"451 1135 CURVE SMOOTH",
"486 1215 OFFCURVE",
"541 1255 OFFCURVE",
"616 1255 CURVE SMOOTH"
);
}
);
width = 1233;
}
);
note = Q;
unicode = 0051;
},
{
glyphname = R;
lastChange = "2018-03-04 04:33:50 +0000";
layers = (
{
layerId = "F25FDEC7-9088-49C2-ACEA-4290AADBBD1B";
paths = (
{
closed = 1;
nodes = (
"955 733 OFFCURVE",
"1067 864 OFFCURVE",
"1067 1061 CURVE SMOOTH",
"1067 1341 OFFCURVE",
"887 1493 OFFCURVE",
"559 1493 CURVE SMOOTH",
"143 1493 LINE",
"143 0 LINE",
"346 0 LINE",
"346 631 LINE",
"539 631 LINE SMOOTH",
"671 631 OFFCURVE",
"735 592 OFFCURVE",
"838 377 CURVE SMOOTH",
"1016 0 LINE",
"1233 0 LINE",
"1030 408 LINE SMOOTH",
"921 629 OFFCURVE",
"864 678 OFFCURVE",
"760 705 CURVE"
);
},
{
closed = 1;
nodes = (
"751 1327 OFFCURVE",
"854 1233 OFFCURVE",
"854 1061 CURVE SMOOTH",
"854 882 OFFCURVE",
"760 797 OFFCURVE",
"567 797 CURVE SMOOTH",
"346 797 LINE",
"346 1327 LINE",
"559 1327 LINE SMOOTH"
);
}
);
width = 1233;
},
{
layerId = "60AE9F57-5482-48B8-82FC-FC2DEE823110";
paths = (
{
closed = 1;
nodes = (
"995 729 OFFCURVE",
"1098 854 OFFCURVE",
"1098 1059 CURVE SMOOTH",
"1098 1366 OFFCURVE",
"943 1493 OFFCURVE",
"559 1493 CURVE SMOOTH",
"133 1493 LINE",
"133 0 LINE",
"428 0 LINE",
"428 590 LINE",
"522 590 LINE SMOOTH",
"593 590 OFFCURVE",
"655 534 OFFCURVE",
"708 421 CURVE SMOOTH",
"717 402 OFFCURVE",
"724 388 OFFCURVE",
"729 377 CURVE SMOOTH",
"909 0 LINE",
"1233 0 LINE",
"963 537 LINE SMOOTH",
"900 662 OFFCURVE",
"866 693 OFFCURVE",
"807 705 CURVE"
);
},
{
closed = 1;
nodes = (
"730 1245 OFFCURVE",
"793 1187 OFFCURVE",
"793 1042 CURVE SMOOTH",
"793 897 OFFCURVE",
"728 838 OFFCURVE",
"567 838 CURVE SMOOTH",
"428 838 LINE",
"428 1245 LINE",
"567 1245 LINE SMOOTH"
);
}
);
width = 1233;
}
);
note = R;
unicode = 0052;
},
{
glyphname = Rstroke;
lastChange = "2018-03-04 04:33:50 +0000";
layers = (
{
layerId = "F25FDEC7-9088-49C2-ACEA-4290AADBBD1B";
paths = (
{
closed = 1;
nodes = (
"21 797 LINE",
"21 631 LINE",
"227 631 LINE",
"227 0 LINE",
"430 0 LINE",
"430 631 LINE",
"539 631 LINE SMOOTH",
"671 631 OFFCURVE",
"735 592 OFFCURVE",
"838 377 CURVE SMOOTH",
"1016 0 LINE",
"1233 0 LINE",
"1030 408 LINE SMOOTH",
"919 631 OFFCURVE",
"864 678 OFFCURVE",
"760 705 CURVE",
"955 733 OFFCURVE",
"1067 864 OFFCURVE",
"1067 1061 CURVE SMOOTH",
"1067 1341 OFFCURVE",
"887 1493 OFFCURVE",
"559 1493 CURVE SMOOTH",
"227 1493 LINE",
"227 797 LINE"
);
},
{
closed = 1;
nodes = (
"751 1327 OFFCURVE",
"854 1233 OFFCURVE",
"854 1061 CURVE SMOOTH",
"854 882 OFFCURVE",
"760 797 OFFCURVE",
"567 797 CURVE SMOOTH",
"430 797 LINE",
"430 1327 LINE",
"559 1327 LINE SMOOTH"
);
}
);
width = 1233;
},
{
layerId = "60AE9F57-5482-48B8-82FC-FC2DEE823110";
paths = (
{
closed = 1;
nodes = (
"21 838 LINE",
"21 590 LINE",
"196 590 LINE",
"196 0 LINE",
"491 0 LINE",
"491 590 LINE",
"522 590 LINE SMOOTH",
"593 590 OFFCURVE",
"655 534 OFFCURVE",
"708 421 CURVE",
"708 420 OFFCURVE",
"715 406 OFFCURVE",
"729 377 CURVE SMOOTH",
"909 0 LINE",
"1233 0 LINE",
"963 537 LINE SMOOTH",
"899 664 OFFCURVE",
"866 693 OFFCURVE",
"807 705 CURVE",
"995 729 OFFCURVE",
"1098 854 OFFCURVE",
"1098 1059 CURVE SMOOTH",
"1098 1366 OFFCURVE",
"943 1493 OFFCURVE",
"559 1493 CURVE SMOOTH",
"196 1493 LINE",
"196 838 LINE"
);
},
{
closed = 1;
nodes = (
"730 1245 OFFCURVE",
"793 1187 OFFCURVE",
"793 1042 CURVE SMOOTH",
"793 897 OFFCURVE",
"728 838 OFFCURVE",
"567 838 CURVE SMOOTH",
"491 838 LINE",
"491 1245 LINE",
"567 1245 LINE SMOOTH"
);
}
);
width = 1233;
}
);
note = uni024C;
unicode = 024C;
},
{
glyphname = Rtail;
lastChange = "2018-03-04 04:33:50 +0000";
layers = (
{
layerId = "F25FDEC7-9088-49C2-ACEA-4290AADBBD1B";
paths = (
{
closed = 1;
nodes = (
"143 -290 OFFCURVE",
"267 -436 OFFCURVE",
"487 -436 CURVE SMOOTH",
"710 -436 LINE",
"710 -280 LINE",
"525 -280 LINE SMOOTH",
"405 -280 OFFCURVE",
"346 -198 OFFCURVE",
"346 -30 CURVE SMOOTH",
"346 631 LINE",
"539 631 LINE SMOOTH",
"671 631 OFFCURVE",
"735 592 OFFCURVE",
"838 377 CURVE SMOOTH",
"1016 0 LINE",
"1233 0 LINE",
"1030 408 LINE SMOOTH",
"919 631 OFFCURVE",
"864 678 OFFCURVE",
"760 705 CURVE",
"955 733 OFFCURVE",
"1067 864 OFFCURVE",
"1067 1061 CURVE SMOOTH",
"1067 1341 OFFCURVE",
"887 1493 OFFCURVE",
"559 1493 CURVE SMOOTH",
"143 1493 LINE",
"143 -30 LINE SMOOTH"
);
},
{
closed = 1;
nodes = (
"751 1327 OFFCURVE",
"854 1233 OFFCURVE",
"854 1061 CURVE SMOOTH",
"854 882 OFFCURVE",
"760 797 OFFCURVE",
"567 797 CURVE SMOOTH",
"346 797 LINE",
"346 1327 LINE",
"559 1327 LINE SMOOTH"
);
}
);
width = 1233;
},
{
layerId = "60AE9F57-5482-48B8-82FC-FC2DEE823110";
paths = (
{
closed = 1;
nodes = (
"522 590 LINE SMOOTH",
"593 590 OFFCURVE",
"655 534 OFFCURVE",
"708 421 CURVE SMOOTH",
"717 402 OFFCURVE",
"724 388 OFFCURVE",
"729 377 CURVE SMOOTH",
"909 0 LINE",
"1233 0 LINE",
"963 537 LINE SMOOTH",
"900 662 OFFCURVE",
"866 693 OFFCURVE",
"807 705 CURVE",
"995 729 OFFCURVE",
"1098 854 OFFCURVE",
"1098 1059 CURVE SMOOTH",
"1098 1366 OFFCURVE",
"943 1493 OFFCURVE",
"559 1493 CURVE SMOOTH",
"133 1493 LINE",
"133 0 LINE SMOOTH",
"133 -145 OFFCURVE",
"164 -253 OFFCURVE",
"227 -322 CURVE",
"284 -391 OFFCURVE",
"383 -426 OFFCURVE",
"523 -426 CURVE SMOOTH",
"649 -426 LINE",
"649 -201 LINE",
"610 -201 LINE SMOOTH",
"479 -201 OFFCURVE",
"428 -138 OFFCURVE",
"428 41 CURVE SMOOTH",
"428 590 LINE"
);
},
{
closed = 1;
nodes = (
"730 1245 OFFCURVE",
"793 1187 OFFCURVE",
"793 1042 CURVE SMOOTH",
"793 897 OFFCURVE",
"728 838 OFFCURVE",
"567 838 CURVE SMOOTH",
"428 838 LINE",
"428 1245 LINE",
"567 1245 LINE SMOOTH"
);
}
);
width = 1233;
}
);
note = uni2C64;
unicode = 2C64;
},
{
glyphname = S;
lastChange = "2018-03-04 04:33:50 +0000";
layers = (
{
layerId = "F25FDEC7-9088-49C2-ACEA-4290AADBBD1B";
paths = (
{
closed = 1;
nodes = (
"872 1494 OFFCURVE",
"746 1520 OFFCURVE",
"631 1520 CURVE SMOOTH",
"334 1520 OFFCURVE",
"139 1346 OFFCURVE",
"139 1079 CURVE SMOOTH",
"139 866 OFFCURVE",
"258 745 OFFCURVE",
"535 682 CURVE SMOOTH",
"643 657 LINE SMOOTH",
"836 614 OFFCURVE",
"905 544 OFFCURVE",
"905 395 CURVE SMOOTH",
"905 231 OFFCURVE",
"786 135 OFFCURVE",
"582 135 CURVE SMOOTH",
"443 135 OFFCURVE",
"311 179 OFFCURVE",
"158 276 CURVE",
"158 61 LINE",
"301 1 OFFCURVE",
"442 -29 OFFCURVE",
"582 -29 CURVE SMOOTH",
"918 -29 OFFCURVE",
"1098 124 OFFCURVE",
"1098 408 CURVE SMOOTH",
"1098 649 OFFCURVE",
"976 783 OFFCURVE",
"696 848 CURVE SMOOTH",
"590 872 LINE SMOOTH",
"391 919 OFFCURVE",
"332 978 OFFCURVE",
"332 1110 CURVE SMOOTH",
"332 1261 OFFCURVE",
"450 1356 OFFCURVE",
"641 1356 CURVE SMOOTH",
"766 1356 OFFCURVE",
"889 1316 OFFCURVE",
"1012 1237 CURVE",
"1012 1442 LINE"
);
}
);
width = 1233;
},
{
layerId = "60AE9F57-5482-48B8-82FC-FC2DEE823110";
paths = (
{
closed = 1;
nodes = (
"756 561 OFFCURVE",
"811 492 OFFCURVE",
"811 403 CURVE SMOOTH",
"811 284 OFFCURVE",
"727 215 OFFCURVE",
"582 215 CURVE SMOOTH",
"438 215 OFFCURVE",
"292 269 OFFCURVE",
"135 381 CURVE",
"135 76 LINE",
"274 7 OFFCURVE",
"425 -29 OFFCURVE",
"573 -29 CURVE SMOOTH",
"933 -29 OFFCURVE",
"1110 119 OFFCURVE",
"1110 420 CURVE SMOOTH",
"1110 641 OFFCURVE",
"1000 782 OFFCURVE",
"760 870 CURVE SMOOTH",
"633 918 LINE SMOOTH",
"545 951 OFFCURVE",
"487 981 OFFCURVE",
"460 1008 CURVE SMOOTH",
"432 1035 OFFCURVE",
"418 1069 OFFCURVE",
"418 1110 CURVE SMOOTH",
"418 1217 OFFCURVE",
"496 1276 OFFCURVE",
"639 1276 CURVE SMOOTH",
"767 1276 OFFCURVE",
"899 1228 OFFCURVE",
"1026 1139 CURVE",
"1026 1427 LINE",
"891 1488 OFFCURVE",
"753 1520 OFFCURVE",
"616 1520 CURVE SMOOTH",
"313 1520 OFFCURVE",
"129 1356 OFFCURVE",
"129 1085 CURVE SMOOTH",
"129 874 OFFCURVE",
"213 768 OFFCURVE",
"510 655 CURVE SMOOTH",
"655 600 LINE SMOOTH"
);
}
);
width = 1233;
}
);
note = S;
unicode = 0053;
},
{
glyphname = Saltillo;
lastChange = "2018-03-04 04:33:50 +0000";
layers = (
{
layerId = "F25FDEC7-9088-49C2-ACEA-4290AADBBD1B";
paths = (
{
closed = 1;
nodes = (
"537 481 LINE",
"698 481 LINE",
"719 838 LINE",
"719 1493 LINE",
"516 1493 LINE",
"516 838 LINE"
);
}
);
width = 1233;
},
{
layerId = "60AE9F57-5482-48B8-82FC-FC2DEE823110";
paths = (
{
closed = 1;
nodes = (
"518 481 LINE",
"717 481 LINE",
"750 838 LINE",
"750 1493 LINE",
"483 1493 LINE",
"483 838 LINE"
);
}
);
width = 1233;
}
);
note = uniA78B;
unicode = A78B;
},
{
glyphname = Sswashtail;
lastChange = "2018-03-04 04:33:50 +0000";
layers = (
{
layerId = "F25FDEC7-9088-49C2-ACEA-4290AADBBD1B";
paths = (
{
closed = 1;
nodes = (
"872 1494 OFFCURVE",
"746 1520 OFFCURVE",
"631 1520 CURVE SMOOTH",
"334 1520 OFFCURVE",
"139 1346 OFFCURVE",
"139 1079 CURVE SMOOTH",
"139 866 OFFCURVE",
"256 746 OFFCURVE",
"535 682 CURVE SMOOTH",
"643 657 LINE SMOOTH",
"836 614 OFFCURVE",
"905 544 OFFCURVE",
"905 395 CURVE SMOOTH",
"905 231 OFFCURVE",
"786 135 OFFCURVE",
"582 135 CURVE SMOOTH",
"443 135 OFFCURVE",
"311 179 OFFCURVE",
"158 276 CURVE",
"158 61 LINE",
"232 30 OFFCURVE",
"303 7 OFFCURVE",
"371 -6 CURVE SMOOTH",
"410 -14 OFFCURVE",
"462 -60 OFFCURVE",
"489 -89 CURVE SMOOTH",
"711 -325 LINE SMOOTH",
"741 -357 OFFCURVE",
"773 -384 OFFCURVE",
"807 -407 CURVE SMOOTH",
"875 -452 OFFCURVE",
"922 -472 OFFCURVE",
"986 -484 CURVE SMOOTH",
"1049 -496 OFFCURVE",
"1072 -496 OFFCURVE",
"1116 -496 CURVE SMOOTH",
"1167 -496 LINE",
"1167 -326 LINE",
"1143 -326 LINE SMOOTH",
"1043 -326 OFFCURVE",
"931 -271 OFFCURVE",
"807 -162 CURVE",
"677 -25 LINE",
"921 -1 OFFCURVE",
"1098 124 OFFCURVE",
"1098 408 CURVE SMOOTH",
"1098 649 OFFCURVE",
"976 783 OFFCURVE",
"696 848 CURVE SMOOTH",
"590 872 LINE SMOOTH",
"391 919 OFFCURVE",
"332 978 OFFCURVE",
"332 1110 CURVE SMOOTH",
"332 1261 OFFCURVE",
"450 1356 OFFCURVE",
"641 1356 CURVE SMOOTH",
"766 1356 OFFCURVE",
"889 1316 OFFCURVE",
"1012 1237 CURVE",
"1012 1442 LINE"
);
}
);
width = 1233;
},
{
layerId = "60AE9F57-5482-48B8-82FC-FC2DEE823110";
paths = (
{
closed = 1;
nodes = (
"756 561 OFFCURVE",
"811 492 OFFCURVE",
"811 403 CURVE SMOOTH",
"811 284 OFFCURVE",
"727 215 OFFCURVE",
"582 215 CURVE SMOOTH",
"438 215 OFFCURVE",
"292 269 OFFCURVE",
"135 381 CURVE",
"135 76 LINE",
"204 41 OFFCURVE",
"276 15 OFFCURVE",
"350 -2 CURVE",
"361 -5 OFFCURVE",
"373 -8 OFFCURVE",
"384 -10 CURVE SMOOTH",
"435 -21 OFFCURVE",
"493 -56 OFFCURVE",
"560 -115 CURVE SMOOTH",
"846 -369 LINE SMOOTH",
"937 -449 OFFCURVE",
"1028 -489 OFFCURVE",
"1119 -489 CURVE SMOOTH",
"1177 -489 LINE",
"1177 -198 LINE",
"1106 -198 LINE SMOOTH",
"1063 -198 OFFCURVE",
"1014 -174 OFFCURVE",
"959 -127 CURVE SMOOTH",
"815 1 LINE",
"880 19 OFFCURVE",
"933 46 OFFCURVE",
"976 82 CURVE SMOOTH",
"1065 157 OFFCURVE",
"1110 269 OFFCURVE",
"1110 420 CURVE SMOOTH",
"1110 641 OFFCURVE",
"1003 778 OFFCURVE",
"760 870 CURVE SMOOTH",
"633 918 LINE SMOOTH",
"544 951 OFFCURVE",
"487 981 OFFCURVE",
"460 1008 CURVE SMOOTH",
"432 1035 OFFCURVE",
"418 1069 OFFCURVE",
"418 1110 CURVE SMOOTH",
"418 1217 OFFCURVE",
"496 1276 OFFCURVE",
"639 1276 CURVE SMOOTH",
"767 1276 OFFCURVE",
"899 1228 OFFCURVE",
"1026 1139 CURVE",
"1026 1427 LINE",
"891 1488 OFFCURVE",
"753 1520 OFFCURVE",
"616 1520 CURVE SMOOTH",
"313 1520 OFFCURVE",
"129 1356 OFFCURVE",
"129 1085 CURVE SMOOTH",
"129 874 OFFCURVE",
"213 768 OFFCURVE",
"510 655 CURVE SMOOTH",
"655 600 LINE SMOOTH"
);
}
);
width = 1233;
}
);
note = uni2C7E;
unicode = 2C7E;
},
{
glyphname = Schwa;
lastChange = "2018-03-04 04:33:50 +0000";
layers = (
{
layerId = "F25FDEC7-9088-49C2-ACEA-4290AADBBD1B";
paths = (
{
closed = 1;
nodes = (
"117 222 OFFCURVE",
"279 -29 OFFCURVE",
"616 -29 CURVE SMOOTH",
"953 -29 OFFCURVE",
"1116 225 OFFCURVE",
"1116 745 CURVE SMOOTH",
"1116 1266 OFFCURVE",
"953 1520 OFFCURVE",
"616 1520 CURVE SMOOTH",
"495 1520 OFFCURVE",
"389 1493 OFFCURVE",
"286 1438 CURVE",
"286 1231 LINE",
"385 1312 OFFCURVE",
"501 1356 OFFCURVE",
"616 1356 CURVE SMOOTH",
"816 1356 OFFCURVE",
"904 1157 OFFCURVE",
"904 836 CURVE SMOOTH",
"904 828 LINE",
"117 828 LINE",
"117 745 LINE SMOOTH"
);
},
{
closed = 1;
nodes = (
"891 305 OFFCURVE",
"817 135 OFFCURVE",
"620 135 CURVE SMOOTH",
"423 135 OFFCURVE",
"332 313 OFFCURVE",
"332 644 CURVE",
"903 644 LINE"
);
}
);
width = 1233;
},
{
layerId = "60AE9F57-5482-48B8-82FC-FC2DEE823110";
paths = (
{
closed = 1;
nodes = (
"92 236 OFFCURVE",
"271 -29 OFFCURVE",
"616 -29 CURVE SMOOTH",
"963 -29 OFFCURVE",
"1141 236 OFFCURVE",
"1141 745 CURVE SMOOTH",
"1141 1256 OFFCURVE",
"963 1520 OFFCURVE",
"616 1520 CURVE SMOOTH",
"503 1520 OFFCURVE",
"400 1496 OFFCURVE",
"307 1448 CURVE",
"307 1120 LINE",
"408 1213 OFFCURVE",
"501 1255 OFFCURVE",
"602 1255 CURVE SMOOTH",
"762 1255 OFFCURVE",
"832 1098 OFFCURVE",
"832 845 CURVE SMOOTH",
"832 840 LINE",
"92 840 LINE",
"92 745 LINE SMOOTH"
);
},
{
closed = 1;
nodes = (
"808 356 OFFCURVE",
"751 236 OFFCURVE",
"618 236 CURVE SMOOTH",
"489 236 OFFCURVE",
"420 347 OFFCURVE",
"405 580 CURVE",
"828 580 LINE"
);
}
);
width = 1233;
}
);
note = uni018F;
unicode = 018F;
},
{
glyphname = T;
lastChange = "2018-03-04 04:33:50 +0000";
layers = (
{
layerId = "F25FDEC7-9088-49C2-ACEA-4290AADBBD1B";
paths = (
{
closed = 1;
nodes = (
"516 1323 LINE",
"516 0 LINE",
"719 0 LINE",
"719 1323 LINE",
"1186 1323 LINE",
"1186 1493 LINE",
"47 1493 LINE",
"47 1323 LINE"
);
}
);
width = 1233;
},
{
layerId = "60AE9F57-5482-48B8-82FC-FC2DEE823110";
paths = (
{
closed = 1;
nodes = (
"1143 1235 LINE",
"1143 1493 LINE",
"90 1493 LINE",
"90 1235 LINE",
"469 1235 LINE",
"469 0 LINE",
"764 0 LINE",
"764 1235 LINE"
);
}
);
width = 1233;
}
);
note = T;
unicode = 0054;
},
{
glyphname = Tbar;
lastChange = "2018-03-04 04:33:50 +0000";
layers = (
{
layerId = "F25FDEC7-9088-49C2-ACEA-4290AADBBD1B";
paths = (
{
closed = 1;
nodes = (
"516 1323 LINE",
"516 747 LINE",
"251 747 LINE",
"251 577 LINE",
"516 577 LINE",
"516 0 LINE",
"719 0 LINE",
"719 577 LINE",
"984 577 LINE",
"984 747 LINE",
"719 747 LINE",
"719 1323 LINE",
"1186 1323 LINE",
"1186 1493 LINE",
"47 1493 LINE",
"47 1323 LINE"
);
}
);
width = 1233;
},
{
layerId = "60AE9F57-5482-48B8-82FC-FC2DEE823110";
paths = (
{
closed = 1;
nodes = (
"1011 538 LINE",
"1011 730 LINE",
"764 730 LINE",
"764 1235 LINE",
"1143 1235 LINE",
"1143 1493 LINE",
"90 1493 LINE",
"90 1235 LINE",
"469 1235 LINE",
"469 730 LINE",
"222 730 LINE",
"222 538 LINE",
"469 538 LINE",
"469 0 LINE",
"764 0 LINE",
"764 538 LINE"
);
}
);
width = 1233;
}
);
note = Tbar;
unicode = 0166;
},
{
glyphname = Tdiagonalstroke;
lastChange = "2018-03-04 04:33:50 +0000";
layers = (
{
layerId = "F25FDEC7-9088-49C2-ACEA-4290AADBBD1B";
paths = (
{
closed = 1;
nodes = (
"960 1323 LINE",
"717 976 LINE",
"717 1323 LINE"
);
},
{
closed = 1;
nodes = (
"136 -70 LINE",
"514 470 LINE",
"514 0 LINE",
"717 0 LINE",
"717 760 LINE",
"1112 1323 LINE",
"1186 1323 LINE",
"1186 1429 LINE",
"1225 1485 LINE",
"1125 1559 LINE",
"1079 1493 LINE",
"47 1493 LINE",
"47 1323 LINE",
"514 1323 LINE",
"514 687 LINE",
"33 0 LINE"
);
}
);
width = 1233;
},
{
layerId = "60AE9F57-5482-48B8-82FC-FC2DEE823110";
paths = (
{
closed = 1;
nodes = (
"764 772 LINE",
"1091 1235 LINE",
"1143 1235 LINE",
"1143 1308 LINE",
"1239 1444 LINE",
"1077 1559 LINE",
"1030 1493 LINE",
"90 1493 LINE",
"90 1235 LINE",
"469 1235 LINE",
"469 698 LINE",
"12 51 LINE",
"174 -63 LINE",
"469 354 LINE",
"469 0 LINE",
"764 0 LINE"
);
},
{
closed = 1;
nodes = (
"848 1235 LINE",
"764 1116 LINE",
"764 1235 LINE"
);
}
);
width = 1233;
}
);
note = uni023E;
unicode = 023E;
},
{
glyphname = Thook;
lastChange = "2018-03-04 04:33:50 +0000";
layers = (
{
layerId = "F25FDEC7-9088-49C2-ACEA-4290AADBBD1B";
paths = (
{
closed = 1;
nodes = (
"516 0 LINE",
"719 0 LINE",
"719 1323 LINE",
"1186 1323 LINE",
"1186 1493 LINE",
"453 1493 LINE SMOOTH",
"168 1493 OFFCURVE",
"47 1390 OFFCURVE",
"47 1149 CURVE SMOOTH",
"47 1079 LINE",
"203 1079 LINE",
"203 1128 LINE SMOOTH",
"203 1280 OFFCURVE",
"278 1338 OFFCURVE",
"453 1327 CURVE SMOOTH",
"516 1323 LINE"
);
}
);
width = 1233;
},
{
layerId = "60AE9F57-5482-48B8-82FC-FC2DEE823110";
paths = (
{
closed = 1;
nodes = (
"469 0 LINE",
"764 0 LINE",
"764 1235 LINE",
"1143 1235 LINE",
"1143 1493 LINE",
"390 1495 LINE",
"422 1492 OFFCURVE",
"403 1490 OFFCURVE",
"333 1490 CURVE SMOOTH",
"251 1491 OFFCURVE",
"180 1465 OFFCURVE",
"120 1414 CURVE SMOOTH",
"98 1395 OFFCURVE",
"81 1378 OFFCURVE",
"69 1361 CURVE SMOOTH",
"37 1318 OFFCURVE",
"21 1244 OFFCURVE",
"21 1141 CURVE SMOOTH",
"21 1064 LINE",
"276 1064 LINE",
"276 1087 OFFCURVE",
"276 1102 OFFCURVE",
"277 1111 CURVE SMOOTH",
"281 1159 OFFCURVE",
"292 1194 OFFCURVE",
"310 1216 CURVE SMOOTH",
"321 1229 OFFCURVE",
"341 1235 OFFCURVE",
"370 1236 CURVE",
"371 1237 OFFCURVE",
"377 1237 OFFCURVE",
"390 1237 CURVE SMOOTH",
"469 1235 LINE"
);
}
);
width = 1233;
}
);
note = uni01AC;
unicode = 01AC;
},
{
glyphname = Tonefive;
lastChange = "2018-03-04 04:33:50 +0000";
layers = (
{
layerId = "F25FDEC7-9088-49C2-ACEA-4290AADBBD1B";
paths = (
{
closed = 1;
nodes = (
"431 142 OFFCURVE",
"228 194 OFFCURVE",
"228 435 CURVE",
"26 435 LINE",
"26 358 OFFCURVE",
"41 289 OFFCURVE",
"70 228 CURVE SMOOTH",
"151 57 OFFCURVE",
"335 -28 OFFCURVE",
"622 -28 CURVE SMOOTH",
"995 -28 OFFCURVE",
"1206 140 OFFCURVE",
"1206 435 CURVE SMOOTH",
"1206 529 OFFCURVE",
"1179 610 OFFCURVE",
"1126 677 CURVE SMOOTH",
"1013 821 OFFCURVE",
"848 884 OFFCURVE",
"708 884 CURVE SMOOTH",
"418 884 LINE",
"418 1323 LINE",
"1139 1323 LINE",
"1139 1493 LINE",
"215 1493 LINE",
"215 716 LINE",
"656 716 LINE SMOOTH",
"875 716 OFFCURVE",
"1006 614 OFFCURVE",
"1006 435 CURVE SMOOTH",
"1006 401 OFFCURVE",
"1002 370 OFFCURVE",
"993 341 CURVE SMOOTH",
"952 208 OFFCURVE",
"827 142 OFFCURVE",
"616 142 CURVE SMOOTH"
);
}
);
width = 1233;
},
{
layerId = "60AE9F57-5482-48B8-82FC-FC2DEE823110";
paths = (
{
closed = 1;
nodes = (
"579 646 LINE SMOOTH",
"775 646 OFFCURVE",
"876 575 OFFCURVE",
"876 439 CURVE SMOOTH",
"876 307 OFFCURVE",
"776 234 OFFCURVE",
"592 234 CURVE SMOOTH",
"444 234 OFFCURVE",
"328 312 OFFCURVE",
"328 439 CURVE",
"10 439 LINE",
"10 142 OFFCURVE",
"172 -28 OFFCURVE",
"623 -28 CURVE SMOOTH",
"1014 -28 OFFCURVE",
"1223 129 OFFCURVE",
"1223 425 CURVE SMOOTH",
"1223 616 OFFCURVE",
"1096 776 OFFCURVE",
"996 816 CURVE",
"902 859 OFFCURVE",
"816 880 OFFCURVE",
"739 880 CURVE SMOOTH",
"477 880 LINE",
"477 1233 LINE",
"1112 1233 LINE",
"1112 1493 LINE",
"182 1493 LINE",
"182 646 LINE",
"324 646 LINE",
"477 646 LINE"
);
}
);
width = 1233;
}
);
note = uni01BC;
unicode = 01BC;
},
{
glyphname = Tonesix;
lastChange = "2018-03-04 04:33:50 +0000";
layers = (
{
layerId = "F25FDEC7-9088-49C2-ACEA-4290AADBBD1B";
paths = (
{
closed = 1;
nodes = (
"880 713 OFFCURVE",
"982 625 OFFCURVE",
"982 430 CURVE SMOOTH",
"982 242 OFFCURVE",
"891 166 OFFCURVE",
"656 166 CURVE SMOOTH",
"417 166 LINE",
"417 713 LINE",
"656 713 LINE SMOOTH"
);
},
{
closed = 1;
nodes = (
"48 1176 LINE",
"214 948 LINE",
"214 0 LINE",
"656 0 LINE SMOOTH",
"1007 0 OFFCURVE",
"1185 139 OFFCURVE",
"1185 410 CURVE SMOOTH",
"1185 517 OFFCURVE",
"1167 604 OFFCURVE",
"1132 671 CURVE SMOOTH",
"1065 798 OFFCURVE",
"905 867 OFFCURVE",
"652 877 CURVE",
"417 877 LINE",
"417 1493 LINE"
);
}
);
width = 1233;
},
{
layerId = "60AE9F57-5482-48B8-82FC-FC2DEE823110";
paths = (
{
closed = 1;
nodes = (
"621 686 LINE SMOOTH",
"814 686 OFFCURVE",
"883 628 OFFCURVE",
"883 467 CURVE SMOOTH",
"883 306 OFFCURVE",
"814 248 OFFCURVE",
"621 248 CURVE SMOOTH",
"500 248 LINE",
"500 686 LINE"
);
},
{
closed = 1;
nodes = (
"1022 0 OFFCURVE",
"1190 138 OFFCURVE",
"1190 467 CURVE SMOOTH",
"1190 796 OFFCURVE",
"1022 934 OFFCURVE",
"610 934 CURVE SMOOTH",
"500 934 LINE",
"500 1493 LINE",
"43 1068 LINE",
"205 934 LINE",
"205 0 LINE",
"610 0 LINE SMOOTH"
);
}
);
width = 1233;
}
);
note = uni0184;
unicode = 0184;
},
{
glyphname = Tonetwo;
lastChange = "2018-03-04 04:33:50 +0000";
layers = (
{
layerId = "F25FDEC7-9088-49C2-ACEA-4290AADBBD1B";
paths = (
{
closed = 1;
nodes = (
"348 1316 OFFCURVE",
"471 1356 OFFCURVE",
"596 1356 CURVE SMOOTH",
"787 1356 OFFCURVE",
"905 1261 OFFCURVE",
"905 1110 CURVE SMOOTH",
"905 978 OFFCURVE",
"846 919 OFFCURVE",
"647 872 CURVE SMOOTH",
"541 848 LINE SMOOTH",
"261 783 OFFCURVE",
"139 649 OFFCURVE",
"139 408 CURVE SMOOTH",
"139 124 OFFCURVE",
"319 -29 OFFCURVE",
"655 -29 CURVE SMOOTH",
"795 -29 OFFCURVE",
"936 1 OFFCURVE",
"1079 61 CURVE",
"1079 276 LINE",
"926 179 OFFCURVE",
"794 135 OFFCURVE",
"655 135 CURVE SMOOTH",
"451 135 OFFCURVE",
"332 231 OFFCURVE",
"332 395 CURVE SMOOTH",
"332 544 OFFCURVE",
"401 614 OFFCURVE",
"594 657 CURVE SMOOTH",
"702 682 LINE SMOOTH",
"979 745 OFFCURVE",
"1098 866 OFFCURVE",
"1098 1079 CURVE SMOOTH",
"1098 1346 OFFCURVE",
"903 1520 OFFCURVE",
"606 1520 CURVE SMOOTH",
"491 1520 OFFCURVE",
"365 1494 OFFCURVE",
"225 1442 CURVE",
"225 1237 LINE"
);
}
);
width = 1233;
},
{
layerId = "60AE9F57-5482-48B8-82FC-FC2DEE823110";
paths = (
{
closed = 1;
nodes = (
"1026 768 OFFCURVE",
"1110 874 OFFCURVE",
"1110 1085 CURVE SMOOTH",
"1110 1356 OFFCURVE",
"926 1520 OFFCURVE",
"623 1520 CURVE SMOOTH",
"486 1520 OFFCURVE",
"348 1488 OFFCURVE",
"213 1427 CURVE",
"213 1139 LINE",
"340 1228 OFFCURVE",
"472 1276 OFFCURVE",
"600 1276 CURVE SMOOTH",
"743 1276 OFFCURVE",
"821 1217 OFFCURVE",
"821 1110 CURVE SMOOTH",
"821 1069 OFFCURVE",
"807 1035 OFFCURVE",
"780 1008 CURVE SMOOTH",
"752 981 OFFCURVE",
"694 951 OFFCURVE",
"606 918 CURVE SMOOTH",
"479 870 LINE SMOOTH",
"239 782 OFFCURVE",
"129 641 OFFCURVE",
"129 420 CURVE SMOOTH",
"129 119 OFFCURVE",
"306 -29 OFFCURVE",
"666 -29 CURVE SMOOTH",
"814 -29 OFFCURVE",
"965 7 OFFCURVE",
"1104 76 CURVE",
"1104 381 LINE",
"947 269 OFFCURVE",
"801 215 OFFCURVE",
"657 215 CURVE SMOOTH",
"512 215 OFFCURVE",
"428 284 OFFCURVE",
"428 403 CURVE SMOOTH",
"428 492 OFFCURVE",
"483 561 OFFCURVE",
"584 600 CURVE SMOOTH",
"681 637 OFFCURVE",
"729 655 OFFCURVE",
"729 655 CURVE"
);
}
);
width = 1233;
}
);
note = uni01A7;
unicode = 01A7;
},
{
glyphname = Tretroflexhook;
lastChange = "2018-03-04 04:33:50 +0000";
layers = (
{
layerId = "F25FDEC7-9088-49C2-ACEA-4290AADBBD1B";
paths = (
{
closed = 1;
nodes = (
"516 1323 LINE",
"516 -20 LINE SMOOTH",
"516 -280 OFFCURVE",
"640 -426 OFFCURVE",
"860 -426 CURVE SMOOTH",
"1083 -426 LINE",
"1083 -270 LINE",
"898 -270 LINE SMOOTH",
"778 -270 OFFCURVE",
"719 -188 OFFCURVE",
"719 -20 CURVE SMOOTH",
"719 1323 LINE",
"1186 1323 LINE",
"1186 1493 LINE",
"47 1493 LINE",
"47 1323 LINE"
);
}
);
width = 1233;
},
{
layerId = "60AE9F57-5482-48B8-82FC-FC2DEE823110";
paths = (
{
closed = 1;
nodes = (
"478 -291 OFFCURVE",
"579 -426 OFFCURVE",
"859 -426 CURVE SMOOTH",
"985 -426 LINE",
"985 -201 LINE",
"946 -201 LINE SMOOTH",
"815 -201 OFFCURVE",
"764 -138 OFFCURVE",
"764 41 CURVE SMOOTH",
"764 1235 LINE",
"1143 1235 LINE",
"1143 1493 LINE",
"90 1493 LINE",
"90 1235 LINE",
"469 1235 LINE",
"469 0 LINE SMOOTH"
);
}
);
width = 1233;
}
);
note = uni01AE;
unicode = 01AE;
},
{
glyphname = U;
lastChange = "2018-03-04 04:33:50 +0000";
layers = (
{
layerId = "F25FDEC7-9088-49C2-ACEA-4290AADBBD1B";
paths = (
{
closed = 1;
nodes = (
"147 422 OFFCURVE",
"157 314 OFFCURVE",
"176 249 CURVE SMOOTH",
"195 183 OFFCURVE",
"228 129 OFFCURVE",
"274 88 CURVE SMOOTH",
"363 9 OFFCURVE",
"476 -29 OFFCURVE",
"616 -29 CURVE SMOOTH",
"687 -29 OFFCURVE",
"750 -19 OFFCURVE",
"807 0 CURVE SMOOTH",
"920 39 OFFCURVE",
"1019 119 OFFCURVE",
"1057 248 CURVE SMOOTH",
"1076 312 OFFCURVE",
"1085 420 OFFCURVE",
"1085 573 CURVE SMOOTH",
"1085 1493 LINE",
"883 1493 LINE",
"883 479 LINE SMOOTH",
"883 407 OFFCURVE",
"881 356 OFFCURVE",
"877 325 CURVE SMOOTH",
"873 294 OFFCURVE",
"866 271 OFFCURVE",
"856 254 CURVE SMOOTH",
"812 175 OFFCURVE",
"732 135 OFFCURVE",
"616 135 CURVE SMOOTH",
"559 135 OFFCURVE",
"510 145 OFFCURVE",
"470 165 CURVE SMOOTH",
"389 205 OFFCURVE",
"364 264 OFFCURVE",
"356 326 CURVE SMOOTH",
"352 357 OFFCURVE",
"350 408 OFFCURVE",
"350 481 CURVE SMOOTH",
"350 1493 LINE",
"147 1493 LINE",
"147 573 LINE SMOOTH"
);
}
);
width = 1233;
},
{
layerId = "60AE9F57-5482-48B8-82FC-FC2DEE823110";
paths = (
{
closed = 1;
nodes = (
"106 146 OFFCURVE",
"260 -29 OFFCURVE",
"616 -29 CURVE SMOOTH",
"973 -29 OFFCURVE",
"1126 146 OFFCURVE",
"1126 551 CURVE SMOOTH",
"1126 1493 LINE",
"831 1493 LINE",
"831 477 LINE SMOOTH",
"831 328 OFFCURVE",
"751 238 OFFCURVE",
"616 238 CURVE SMOOTH",
"481 238 OFFCURVE",
"401 328 OFFCURVE",
"401 477 CURVE SMOOTH",
"401 1493 LINE",
"106 1493 LINE",
"106 551 LINE SMOOTH"
);
}
);
width = 1233;
}
);
note = U;
unicode = 0055;
},
{
glyphname = Ubar;
lastChange = "2018-03-04 04:33:50 +0000";
layers = (
{
layerId = "F25FDEC7-9088-49C2-ACEA-4290AADBBD1B";
paths = (
{
closed = 1;
nodes = (
"147 573 LINE SMOOTH",
"147 422 OFFCURVE",
"157 314 OFFCURVE",
"176 249 CURVE SMOOTH",
"195 183 OFFCURVE",
"228 129 OFFCURVE",
"274 88 CURVE SMOOTH",
"363 9 OFFCURVE",
"476 -29 OFFCURVE",
"616 -29 CURVE SMOOTH",
"687 -29 OFFCURVE",
"750 -19 OFFCURVE",
"807 0 CURVE SMOOTH",
"920 39 OFFCURVE",
"1019 119 OFFCURVE",
"1057 248 CURVE SMOOTH",
"1076 312 OFFCURVE",
"1085 420 OFFCURVE",
"1085 573 CURVE SMOOTH",
"1085 577 LINE",
"1212 577 LINE",
"1212 747 LINE",
"1085 747 LINE",
"1085 1493 LINE",
"883 1493 LINE",
"883 747 LINE",
"350 747 LINE",
"350 1493 LINE",
"147 1493 LINE",
"147 747 LINE",
"21 747 LINE",
"21 577 LINE",
"147 577 LINE"
);
},
{
closed = 1;
nodes = (
"883 407 OFFCURVE",
"881 356 OFFCURVE",
"877 325 CURVE SMOOTH",
"873 294 OFFCURVE",
"866 271 OFFCURVE",
"856 254 CURVE SMOOTH",
"812 175 OFFCURVE",
"732 135 OFFCURVE",
"616 135 CURVE SMOOTH",
"559 135 OFFCURVE",
"510 145 OFFCURVE",
"470 165 CURVE SMOOTH",
"389 205 OFFCURVE",
"364 264 OFFCURVE",
"356 326 CURVE SMOOTH",
"352 357 OFFCURVE",
"350 408 OFFCURVE",
"350 481 CURVE SMOOTH",
"350 577 LINE",
"883 577 LINE",
"883 479 LINE SMOOTH"
);
}
);
width = 1233;
},
{
layerId = "60AE9F57-5482-48B8-82FC-FC2DEE823110";
paths = (
{
closed = 1;
nodes = (
"110 146 OFFCURVE",
"261 -29 OFFCURVE",
"616 -29 CURVE SMOOTH",
"973 -29 OFFCURVE",
"1122 146 OFFCURVE",
"1126 538 CURVE",
"1212 538 LINE",
"1212 730 LINE",
"1126 730 LINE",
"1126 1493 LINE",
"831 1493 LINE",
"831 730 LINE",
"401 730 LINE",
"401 1493 LINE",
"106 1493 LINE",
"106 730 LINE",
"21 730 LINE",
"21 538 LINE",
"106 538 LINE"
);
},
{
closed = 1;
nodes = (
"831 328 OFFCURVE",
"751 238 OFFCURVE",
"616 238 CURVE SMOOTH",
"481 238 OFFCURVE",
"401 328 OFFCURVE",
"401 477 CURVE SMOOTH",
"401 538 LINE",
"831 538 LINE",
"831 477 LINE SMOOTH"
);
}
);
width = 1233;
}
);
note = uni0244;
unicode = 0244;
},
{
glyphname = Upsilonafrican;
lastChange = "2018-03-04 04:33:50 +0000";
layers = (
{
layerId = "F25FDEC7-9088-49C2-ACEA-4290AADBBD1B";
paths = (
{
closed = 1;
nodes = (
"696 1288 LINE",
"856 1187 OFFCURVE",
"950 957 OFFCURVE",
"950 661 CURVE SMOOTH",
"950 354 OFFCURVE",
"822 166 OFFCURVE",
"617 166 CURVE SMOOTH",
"412 166 OFFCURVE",
"283 354 OFFCURVE",
"283 661 CURVE SMOOTH",
"283 957 OFFCURVE",
"377 1187 OFFCURVE",
"537 1288 CURVE",
"537 1460 LINE",
"74 1460 LINE",
"74 1288 LINE",
"322 1288 LINE",
"158 1111 OFFCURVE",
"88 929 OFFCURVE",
"88 678 CURVE SMOOTH",
"88 262 OFFCURVE",
"296 0 OFFCURVE",
"619 0 CURVE SMOOTH",
"939 0 OFFCURVE",
"1147 263 OFFCURVE",
"1147 678 CURVE SMOOTH",
"1147 929 OFFCURVE",
"1078 1109 OFFCURVE",
"914 1288 CURVE",
"1159 1288 LINE",
"1159 1460 LINE",
"696 1460 LINE"
);
}
);
width = 1233;
},
{
layerId = "60AE9F57-5482-48B8-82FC-FC2DEE823110";
paths = (
{
closed = 1;
nodes = (
"670 1460 LINE",
"670 1192 LINE",
"779 1089 OFFCURVE",
"832 933 OFFCURVE",
"832 712 CURVE SMOOTH",
"832 427 OFFCURVE",
"753 266 OFFCURVE",
"617 266 CURVE SMOOTH",
"480 266 OFFCURVE",
"402 427 OFFCURVE",
"402 712 CURVE SMOOTH",
"402 935 OFFCURVE",
"453 1087 OFFCURVE",
"561 1192 CURVE",
"561 1460 LINE",
"90 1460 LINE",
"90 1249 LINE",
"328 1249 LINE",
"168 1104 OFFCURVE",
"100 933 OFFCURVE",
"100 678 CURVE SMOOTH",
"100 262 OFFCURVE",
"303 0 OFFCURVE",
"619 0 CURVE SMOOTH",
"932 0 OFFCURVE",
"1133 262 OFFCURVE",
"1133 678 CURVE SMOOTH",
"1133 933 OFFCURVE",
"1065 1104 OFFCURVE",
"905 1249 CURVE",
"1143 1249 LINE",
"1143 1460 LINE"
);
}
);
width = 1233;
}
);
note = uni01B1;
unicode = 01B1;
},
{
glyphname = V;
lastChange = "2018-03-04 04:33:50 +0000";
layers = (
{
layerId = "F25FDEC7-9088-49C2-ACEA-4290AADBBD1B";
paths = (
{
closed = 1;
nodes = (
"57 1493 LINE",
"494 0 LINE",
"739 0 LINE",
"1176 1493 LINE",
"967 1493 LINE",
"616 170 LINE",
"266 1493 LINE"
);
}
);
width = 1233;
},
{
layerId = "60AE9F57-5482-48B8-82FC-FC2DEE823110";
paths = (
{
closed = 1;
nodes = (
"57 1493 LINE",
"412 0 LINE",
"821 0 LINE",
"1176 1493 LINE",
"879 1493 LINE",
"616 246 LINE",
"354 1493 LINE"
);
}
);
width = 1233;
}
);
note = V;
unicode = 0056;
},
{
glyphname = Gammaafrican;
lastChange = "2018-03-04 04:33:50 +0000";
layers = (
{
layerId = "F25FDEC7-9088-49C2-ACEA-4290AADBBD1B";
paths = (
{
closed = 1;
nodes = (
"988 1353 LINE",
"616 798 LINE",
"244 1353 LINE",
"28 1353 LINE",
"492 657 LINE",
"296 334 OFFCURVE",
"198 51 OFFCURVE",
"198 -194 CURVE SMOOTH",
"198 -351 OFFCURVE",
"345 -430 OFFCURVE",
"638 -430 CURVE SMOOTH",
"915 -430 OFFCURVE",
"1054 -351 OFFCURVE",
"1054 -194 CURVE SMOOTH",
"1054 69 OFFCURVE",
"946 351 OFFCURVE",
"730 650 CURVE",
"1206 1353 LINE"
);
},
{
closed = 1;
nodes = (
"748 295 OFFCURVE",
"822 87 OFFCURVE",
"822 -130 CURVE SMOOTH",
"822 -222 OFFCURVE",
"754 -268 OFFCURVE",
"618 -268 CURVE SMOOTH",
"474 -268 OFFCURVE",
"402 -222 OFFCURVE",
"402 -130 CURVE SMOOTH",
"402 86 OFFCURVE",
"468 294 OFFCURVE",
"600 495 CURVE"
);
}
);
width = 1233;
},
{
layerId = "60AE9F57-5482-48B8-82FC-FC2DEE823110";
paths = (
{
closed = 1;
nodes = (
"126 193 OFFCURVE",
"71 -297 OFFCURVE",
"610 -290 CURVE SMOOTH",
"1149 -283 OFFCURVE",
"1079 253 OFFCURVE",
"802 762 CURVE",
"1200 1493 LINE",
"877 1493 LINE",
"616 1012 LINE",
"354 1493 LINE",
"33 1493 LINE",
"431 762 LINE"
);
},
{
closed = 1;
nodes = (
"705 356 OFFCURVE",
"750 229 OFFCURVE",
"750 130 CURVE SMOOTH",
"750 43 OFFCURVE",
"704 0 OFFCURVE",
"611 0 CURVE SMOOTH",
"520 0 OFFCURVE",
"475 42 OFFCURVE",
"474 126 CURVE SMOOTH",
"473 204 OFFCURVE",
"520 332 OFFCURVE",
"616 510 CURVE"
);
}
);
width = 1233;
}
);
note = uni0194;
unicode = 0194;
},
{
glyphname = Vhook;
lastChange = "2018-03-04 04:33:50 +0000";
layers = (
{
layerId = "F25FDEC7-9088-49C2-ACEA-4290AADBBD1B";
paths = (
{
closed = 1;
nodes = (
"865 0 OFFCURVE",
"1066 268 OFFCURVE",
"1066 683 CURVE SMOOTH",
"1066 934 OFFCURVE",
"997 1114 OFFCURVE",
"834 1293 CURVE",
"616 1293 LINE",
"776 1192 OFFCURVE",
"870 962 OFFCURVE",
"870 666 CURVE SMOOTH",
"870 359 OFFCURVE",
"741 171 OFFCURVE",
"536 171 CURVE SMOOTH",
"416 171 OFFCURVE",
"358 253 OFFCURVE",
"358 421 CURVE SMOOTH",
"358 1493 LINE",
"154 1493 LINE",
"154 406 LINE SMOOTH",
"154 142 OFFCURVE",
"279 0 OFFCURVE",
"506 0 CURVE SMOOTH"
);
}
);
width = 1233;
},
{
layerId = "60AE9F57-5482-48B8-82FC-FC2DEE823110";
paths = (
{
closed = 1;
nodes = (
"805 560 OFFCURVE",
"795 261 OFFCURVE",
"590 261 CURVE SMOOTH",
"454 262 OFFCURVE",
"412 306 OFFCURVE",
"412 495 CURVE SMOOTH",
"412 1493 LINE",
"117 1493 LINE",
"117 1233 LINE",
"118 462 LINE SMOOTH",
"118 227 OFFCURVE",
"205 0 OFFCURVE",
"542 0 CURVE SMOOTH",
"927 0 OFFCURVE",
"1106 257 OFFCURVE",
"1106 673 CURVE SMOOTH",
"1106 928 OFFCURVE",
"1038 1099 OFFCURVE",
"878 1244 CURVE",
"643 1244 LINE",
"643 1187 LINE",
"751 1086 OFFCURVE",
"805 926 OFFCURVE",
"805 707 CURVE SMOOTH"
);
}
);
width = 1233;
}
);
note = uni01B2;
unicode = 01B2;
},
{
glyphname = Vturned;
lastChange = "2018-03-04 04:33:50 +0000";
layers = (
{
layerId = "F25FDEC7-9088-49C2-ACEA-4290AADBBD1B";
paths = (
{
closed = 1;
nodes = (
"1176 0 LINE",
"739 1493 LINE",
"494 1493 LINE",
"57 0 LINE",
"266 0 LINE",
"617 1323 LINE",
"967 0 LINE"
);
}
);
width = 1233;
},
{
layerId = "60AE9F57-5482-48B8-82FC-FC2DEE823110";
paths = (
{
closed = 1;
nodes = (
"1176 0 LINE",
"821 1493 LINE",
"412 1493 LINE",
"57 0 LINE",
"354 0 LINE",
"617 1247 LINE",
"879 0 LINE"
);
}
);
width = 1233;
}
);
note = uni0245;
unicode = 0245;
},
{
glyphname = W;
lastChange = "2018-03-04 04:33:50 +0000";
layers = (
{
layerId = "F25FDEC7-9088-49C2-ACEA-4290AADBBD1B";
paths = (
{
closed = 1;
nodes = (
"414 0 LINE",
"616 887 LINE",
"819 0 LINE",
"1010 0 LINE",
"1233 1493 LINE",
"1036 1493 LINE",
"893 279 LINE",
"721 1083 LINE",
"510 1083 LINE",
"340 281 LINE",
"197 1493 LINE",
"0 1493 LINE",
"223 0 LINE"
);
}
);
width = 1233;
},
{
layerId = "60AE9F57-5482-48B8-82FC-FC2DEE823110";
paths = (
{
closed = 1;
nodes = (
"457 0 LINE",
"616 784 LINE",
"786 0 LINE",
"1061 0 LINE",
"1233 1493 LINE",
"973 1493 LINE",
"889 397 LINE",
"739 1106 LINE",
"494 1106 LINE",
"365 397 LINE",
"258 1493 LINE",
"0 1493 LINE",
"184 0 LINE"
);
}
);
width = 1233;
}
);
note = W;
unicode = 0057;
},
{
glyphname = X;
lastChange = "2018-03-04 04:33:50 +0000";
layers = (
{
layerId = "F25FDEC7-9088-49C2-ACEA-4290AADBBD1B";
paths = (
{
closed = 1;
nodes = (
"18 0 LINE",
"236 0 LINE",
"631 643 LINE",
"997 0 LINE",
"1214 0 LINE",
"735 791 LINE",
"1182 1493 LINE",
"965 1493 LINE",
"631 930 LINE",
"303 1493 LINE",
"86 1493 LINE",
"518 791 LINE"
);
}
);
width = 1233;
},
{
layerId = "60AE9F57-5482-48B8-82FC-FC2DEE823110";
paths = (
{
closed = 1;
nodes = (
"1194 1493 LINE",
"889 1493 LINE",
"616 1018 LINE",
"344 1493 LINE",
"39 1493 LINE",
"465 758 LINE",
"27 0 LINE",
"332 0 LINE",
"616 494 LINE",
"901 0 LINE",
"1206 0 LINE",
"770 758 LINE"
);
}
);
width = 1233;
}
);
note = X;
unicode = 0058;
},
{
glyphname = Y;
lastChange = "2018-03-04 04:33:50 +0000";
layers = (
{
layerId = "F25FDEC7-9088-49C2-ACEA-4290AADBBD1B";
paths = (
{
closed = 1;
nodes = (
"514 0 LINE",
"717 0 LINE",
"717 670 LINE",
"1196 1493 LINE",
"979 1493 LINE",
"616 834 LINE",
"252 1493 LINE",
"37 1493 LINE",
"514 670 LINE"
);
}
);
width = 1233;
},
{
layerId = "60AE9F57-5482-48B8-82FC-FC2DEE823110";
paths = (
{
closed = 1;
nodes = (
"469 0 LINE",
"764 0 LINE",
"764 588 LINE",
"1225 1493 LINE",
"907 1493 LINE",
"616 893 LINE",
"326 1493 LINE",
"8 1493 LINE",
"469 588 LINE"
);
}
);
width = 1233;
}
);
note = Y;
unicode = 0059;
},
{
glyphname = Yhook;
lastChange = "2018-03-04 04:33:50 +0000";
layers = (
{
layerId = "F25FDEC7-9088-49C2-ACEA-4290AADBBD1B";
paths = (
{
closed = 1;
nodes = (
"926 1237 OFFCURVE",
"968 1293 OFFCURVE",
"1002 1309 CURVE",
"1023 1320 OFFCURVE",
"1042 1325 OFFCURVE",
"1061 1325 CURVE SMOOTH",
"1088 1325 OFFCURVE",
"1112 1315 OFFCURVE",
"1135 1294 CURVE SMOOTH",
"1145 1285 LINE",
"1216 1419 LINE",
"1191 1438 LINE SMOOTH",
"1141 1476 OFFCURVE",
"1089 1495 OFFCURVE",
"1036 1495 CURVE SMOOTH",
"1006 1495 OFFCURVE",
"976 1489 OFFCURVE",
"945 1477 CURVE SMOOTH",
"872 1449 OFFCURVE",
"803 1368 OFFCURVE",
"737 1235 CURVE SMOOTH",
"538 834 LINE",
"210 1493 LINE",
"17 1493 LINE",
"446 670 LINE",
"446 0 LINE",
"629 0 LINE",
"629 670 LINE",
"875 1140 LINE SMOOTH"
);
}
);
width = 1233;
},
{
layerId = "60AE9F57-5482-48B8-82FC-FC2DEE823110";
paths = (
{
closed = 1;
nodes = (
"1000 1168 OFFCURVE",
"1050 1240 OFFCURVE",
"1083 1241 CURVE SMOOTH",
"1118 1242 OFFCURVE",
"1146 1237 OFFCURVE",
"1167 1224 CURVE",
"1230 1439 LINE",
"1169 1467 LINE SMOOTH",
"944 1570 OFFCURVE",
"874 1531 OFFCURVE",
"678 1104 CURVE SMOOTH",
"581 893 LINE",
"305 1493 LINE",
"3 1493 LINE",
"432 588 LINE",
"432 0 LINE",
"727 0 LINE",
"727 588 LINE",
"933 1026 LINE SMOOTH"
);
}
);
width = 1233;
}
);
note = uni01B3;
unicode = 01B3;
},
{
glyphname = Yr;
lastChange = "2018-03-04 04:33:50 +0000";
layers = (
{
layerId = "F25FDEC7-9088-49C2-ACEA-4290AADBBD1B";
paths = (
{
closed = 1;
nodes = (
"955 469 OFFCURVE",
"1067 600 OFFCURVE",
"1067 797 CURVE SMOOTH",
"1067 1077 OFFCURVE",
"887 1229 OFFCURVE",
"559 1229 CURVE SMOOTH",
"346 1229 LINE",
"346 1493 LINE",
"143 1493 LINE",
"143 0 LINE",
"346 0 LINE",
"346 367 LINE",
"539 367 LINE SMOOTH",
"671 367 OFFCURVE",
"735 328 OFFCURVE",
"838 113 CURVE SMOOTH",
"1016 -264 LINE",
"1233 -264 LINE",
"1030 144 LINE SMOOTH",
"919 367 OFFCURVE",
"864 414 OFFCURVE",
"760 441 CURVE"
);
},
{
closed = 1;
nodes = (
"751 1063 OFFCURVE",
"854 969 OFFCURVE",
"854 797 CURVE SMOOTH",
"854 618 OFFCURVE",
"760 533 OFFCURVE",
"567 533 CURVE SMOOTH",
"346 533 LINE",
"346 1063 LINE",
"559 1063 LINE SMOOTH"
);
}
);
width = 1233;
},
{
layerId = "60AE9F57-5482-48B8-82FC-FC2DEE823110";
paths = (
{
closed = 1;
nodes = (
"995 491 OFFCURVE",
"1098 616 OFFCURVE",
"1098 821 CURVE SMOOTH",
"1098 1128 OFFCURVE",
"943 1255 OFFCURVE",
"559 1255 CURVE SMOOTH",
"428 1255 LINE",
"428 1493 LINE",
"133 1493 LINE",
"133 0 LINE",
"428 0 LINE",
"428 352 LINE",
"522 352 LINE SMOOTH",
"593 352 OFFCURVE",
"655 296 OFFCURVE",
"708 183 CURVE",
"708 182 OFFCURVE",
"715 168 OFFCURVE",
"729 139 CURVE SMOOTH",
"909 -238 LINE",
"1233 -238 LINE",
"963 299 LINE SMOOTH",
"899 426 OFFCURVE",
"866 455 OFFCURVE",
"807 467 CURVE"
);
},
{
closed = 1;
nodes = (
"730 1007 OFFCURVE",
"793 949 OFFCURVE",
"793 804 CURVE SMOOTH",
"793 659 OFFCURVE",
"728 600 OFFCURVE",
"567 600 CURVE SMOOTH",
"428 600 LINE",
"428 1007 LINE",
"567 1007 LINE SMOOTH"
);
}
);
width = 1233;
}
);
note = uni01A6;
unicode = 01A6;
},
{
glyphname = Z;
lastChange = "2018-03-04 04:33:50 +0000";
layers = (
{
layerId = "F25FDEC7-9088-49C2-ACEA-4290AADBBD1B";
paths = (
{
closed = 1;
nodes = (
"915 1323 LINE",
"156 154 LINE",
"156 0 LINE",
"1169 0 LINE",
"1169 170 LINE",
"367 170 LINE",
"1147 1339 LINE",
"1147 1493 LINE",
"178 1493 LINE",
"178 1323 LINE"
);
}
);
width = 1233;
},
{
layerId = "60AE9F57-5482-48B8-82FC-FC2DEE823110";
paths = (
{
closed = 1;
nodes = (
"786 1233 LINE",
"115 244 LINE",
"115 0 LINE",
"1161 0 LINE",
"1161 260 LINE",
"455 260 LINE",
"1147 1249 LINE",
"1147 1493 LINE",
"137 1493 LINE",
"137 1233 LINE"
);
}
);
width = 1233;
}
);
note = Z;
unicode = 005A;
},
{
glyphname = Zhook;
lastChange = "2018-03-04 04:33:50 +0000";
layers = (
{
layerId = "F25FDEC7-9088-49C2-ACEA-4290AADBBD1B";
paths = (
{
closed = 1;
nodes = (
"915 1323 LINE",
"156 154 LINE",
"156 0 LINE",
"985 0 LINE",
"985 -20 LINE SMOOTH",
"985 -188 OFFCURVE",
"926 -270 OFFCURVE",
"806 -270 CURVE SMOOTH",
"621 -270 LINE",
"621 -426 LINE",
"826 -426 LINE SMOOTH",
"1046 -426 OFFCURVE",
"1170 -280 OFFCURVE",
"1170 -20 CURVE SMOOTH",
"1170 128 LINE",
"1169 128 LINE",
"1169 170 LINE",
"367 170 LINE",
"1147 1339 LINE",
"1147 1493 LINE",
"178 1493 LINE",
"178 1323 LINE"
);
}
);
width = 1233;
},
{
layerId = "60AE9F57-5482-48B8-82FC-FC2DEE823110";
paths = (
{
closed = 1;
nodes = (
"786 1233 LINE",
"115 244 LINE",
"115 0 LINE",
"869 0 LINE",
"861 -133 OFFCURVE",
"819 -199 OFFCURVE",
"688 -199 CURVE SMOOTH",
"649 -199 LINE",
"649 -424 LINE",
"770 -424 LINE SMOOTH",
"1050 -424 OFFCURVE",
"1151 -288 OFFCURVE",
"1160 0 CURVE",
"1161 0 LINE",
"1161 260 LINE",
"455 260 LINE",
"1147 1249 LINE",
"1147 1493 LINE",
"137 1493 LINE",
"137 1233 LINE"
);
}
);
width = 1233;
}
);
note = uni0224;
unicode = 0224;
},
{
glyphname = Zstroke;
lastChange = "2018-03-04 04:33:50 +0000";
layers = (
{
layerId = "F25FDEC7-9088-49C2-ACEA-4290AADBBD1B";
paths = (
{
closed = 1;
nodes = (
"915 1323 LINE",
"541 747 LINE",
"251 747 LINE",
"251 577 LINE",
"431 577 LINE",
"156 154 LINE",
"156 0 LINE",
"1169 0 LINE",
"1169 170 LINE",
"367 170 LINE",
"639 577 LINE",
"984 577 LINE",
"984 747 LINE",
"752 747 LINE",
"1147 1339 LINE",
"1147 1493 LINE",
"178 1493 LINE",
"178 1323 LINE"
);
}
);
width = 1233;
},
{
layerId = "60AE9F57-5482-48B8-82FC-FC2DEE823110";
paths = (
{
closed = 1;
nodes = (
"786 1233 LINE",
"445 730 LINE",
"222 730 LINE",
"222 538 LINE",
"314 538 LINE",
"115 244 LINE",
"115 0 LINE",
"1161 0 LINE",
"1161 260 LINE",
"455 260 LINE",
"650 538 LINE",
"1011 538 LINE",
"1011 730 LINE",
"784 730 LINE",
"1147 1249 LINE",
"1147 1493 LINE",
"137 1493 LINE",
"137 1233 LINE"
);
}
);
width = 1233;
}
);
note = uni01B5;
unicode = 01B5;
},
{
glyphname = Zswashtail;
lastChange = "2018-03-04 04:33:50 +0000";
layers = (
{
layerId = "F25FDEC7-9088-49C2-ACEA-4290AADBBD1B";
paths = (
{
closed = 1;
nodes = (
"324 0 OFFCURVE",
"378 -21 OFFCURVE",
"422 -63 CURVE SMOOTH",
"675 -306 LINE SMOOTH",
"751 -379 OFFCURVE",
"833 -435 OFFCURVE",
"899 -460 CURVE SMOOTH",
"965 -485 OFFCURVE",
"1013 -496 OFFCURVE",
"1056 -496 CURVE SMOOTH",
"1170 -496 LINE",
"1170 -326 LINE",
"1089 -326 LINE SMOOTH",
"1036 -326 OFFCURVE",
"984 -308 OFFCURVE",
"930 -271 CURVE SMOOTH",
"876 -235 OFFCURVE",
"838 -202 OFFCURVE",
"778 -143 CURVE SMOOTH",
"566 62 LINE SMOOTH",
"501 125 OFFCURVE",
"435 161 OFFCURVE",
"367 170 CURVE",
"1147 1339 LINE",
"1147 1493 LINE",
"178 1493 LINE",
"178 1323 LINE",
"915 1323 LINE",
"156 154 LINE",
"156 0 LINE",
"261 0 LINE SMOOTH"
);
}
);
width = 1233;
},
{
layerId = "60AE9F57-5482-48B8-82FC-FC2DEE823110";
paths = (
{
closed = 1;
nodes = (
"1147 1493 LINE",
"137 1493 LINE",
"137 1233 LINE",
"786 1233 LINE",
"115 244 LINE",
"115 0 LINE",
"213 -11 OFFCURVE",
"338 -75 OFFCURVE",
"491 -192 CURVE SMOOTH",
"725 -372 LINE SMOOTH",
"830 -452 OFFCURVE",
"939 -492 OFFCURVE",
"1054 -492 CURVE SMOOTH",
"1161 -492 LINE",
"1161 -201 LINE",
"1042 -201 LINE SMOOTH",
"987 -201 OFFCURVE",
"926 -177 OFFCURVE",
"859 -130 CURVE SMOOTH",
"610 49 LINE SMOOTH",
"563 83 OFFCURVE",
"491 123 OFFCURVE",
"392 170 CURVE",
"1147 1249 LINE"
);
}
);
width = 1233;
}
);
note = uni2C7F;
unicode = 2C7F;
},
{
glyphname = Eng.alt;
lastChange = "2018-03-04 04:33:50 +0000";
layers = (
{
layerId = "F25FDEC7-9088-49C2-ACEA-4290AADBBD1B";
paths = (
{
closed = 1;
nodes = (
"334 0 LINE",
"334 1129 LINE",
"899 0 LINE",
"899 -195 OFFCURVE",
"840 -270 OFFCURVE",
"720 -270 CURVE SMOOTH",
"535 -270 LINE",
"535 -426 LINE",
"740 -426 LINE SMOOTH",
"960 -426 OFFCURVE",
"1084 -280 OFFCURVE",
"1084 -20 CURVE SMOOTH",
"1084 1493 LINE",
"899 1493 LINE",
"899 364 LINE",
"334 1493 LINE",
"149 1493 LINE",
"149 0 LINE"
);
}
);
width = 1233;
},
{
layerId = "60AE9F57-5482-48B8-82FC-FC2DEE823110";
paths = (
{
closed = 1;
nodes = (
"379 0 LINE",
"379 1035 LINE",
"832 44 LINE",
"832 -133 OFFCURVE",
"783 -199 OFFCURVE",
"650 -199 CURVE SMOOTH",
"611 -199 LINE",
"611 -424 LINE",
"732 -424 LINE SMOOTH",
"1009 -424 OFFCURVE",
"1124 -295 OFFCURVE",
"1124 60 CURVE SMOOTH",
"1124 1493 LINE",
"852 1493 LINE",
"852 458 LINE",
"379 1493 LINE",
"108 1493 LINE",
"108 0 LINE"
);
}
);
width = 1233;
}
);
note = Eng.alt;
},
{
glyphname = Bsmall;
lastChange = "2018-03-04 04:33:50 +0000";
layers = (
{
layerId = "F25FDEC7-9088-49C2-ACEA-4290AADBBD1B";
paths = (
{
closed = 1;
nodes = (
"761 530 OFFCURVE",
"820 461 OFFCURVE",
"820 338 CURVE SMOOTH",
"820 254 OFFCURVE",
"756 170 OFFCURVE",
"632 170 CURVE SMOOTH",
"411 170 LINE",
"411 530 LINE",
"636 530 LINE SMOOTH"
);
},
{
closed = 1;
nodes = (
"735 980 OFFCURVE",
"790 909 OFFCURVE",
"790 848 CURVE SMOOTH",
"790 764 OFFCURVE",
"734 700 OFFCURVE",
"621 700 CURVE SMOOTH",
"411 700 LINE",
"411 980 LINE",
"620 980 LINE SMOOTH"
);
},
{
closed = 1;
nodes = (
"622 0 LINE SMOOTH",
"879 0 OFFCURVE",
"1024 117 OFFCURVE",
"1024 322 CURVE SMOOTH",
"1024 478 OFFCURVE",
"935 587 OFFCURVE",
"782 620 CURVE",
"910 640 OFFCURVE",
"976 725 OFFCURVE",
"976 865 CURVE SMOOTH",
"976 1046 OFFCURVE",
"843 1149 OFFCURVE",
"606 1149 CURVE SMOOTH",
"209 1149 LINE",
"209 0 LINE"
);
}
);
width = 1233;
},
{
layerId = "60AE9F57-5482-48B8-82FC-FC2DEE823110";
paths = (
{
closed = 1;
nodes = (
"739 465 OFFCURVE",
"802 432 OFFCURVE",
"802 364 CURVE SMOOTH",
"802 296 OFFCURVE",
"739 262 OFFCURVE",
"614 262 CURVE SMOOTH",
"447 262 LINE",
"447 465 LINE",
"614 465 LINE SMOOTH"
);
},
{
closed = 1;
nodes = (
"702 895 OFFCURVE",
"753 860 OFFCURVE",
"753 796 CURVE SMOOTH",
"753 729 OFFCURVE",
"699 698 OFFCURVE",
"603 698 CURVE SMOOTH",
"447 698 LINE",
"447 895 LINE",
"603 895 LINE SMOOTH"
);
},
{
closed = 1;
nodes = (
"636 0 LINE SMOOTH",
"959 0 OFFCURVE",
"1114 105 OFFCURVE",
"1114 321 CURVE SMOOTH",
"1114 462 OFFCURVE",
"1037 563 OFFCURVE",
"904 599 CURVE",
"1008 636 OFFCURVE",
"1065 715 OFFCURVE",
"1065 824 CURVE SMOOTH",
"1065 1031 OFFCURVE",
"923 1120 OFFCURVE",
"587 1120 CURVE SMOOTH",
"119 1120 LINE",
"119 0 LINE"
);
}
);
width = 1233;
}
);
note = uni0299;
unicode = 0299;
},
{
glyphname = Gsmall;
lastChange = "2018-03-04 04:33:50 +0000";
layers = (
{
layerId = "F25FDEC7-9088-49C2-ACEA-4290AADBBD1B";
paths = (
{
closed = 1;
nodes = (
"893 163 OFFCURVE",
"808 156 OFFCURVE",
"692 156 CURVE SMOOTH",
"455 156 OFFCURVE",
"316 315 OFFCURVE",
"316 588 CURVE SMOOTH",
"316 861 OFFCURVE",
"455 1020 OFFCURVE",
"692 1020 CURVE SMOOTH",
"788 1020 OFFCURVE",
"922 997 OFFCURVE",
"1082 894 CURVE",
"1082 1066 LINE",
"911 1166 OFFCURVE",
"767 1176 OFFCURVE",
"684 1176 CURVE SMOOTH",
"335 1176 OFFCURVE",
"122 953 OFFCURVE",
"122 588 CURVE SMOOTH",
"122 228 OFFCURVE",
"336 0 OFFCURVE",
"672 0 CURVE SMOOTH",
"941 0 OFFCURVE",
"1016 27 OFFCURVE",
"1112 72 CURVE",
"1112 600 LINE",
"790 600 LINE",
"790 460 LINE",
"946 460 LINE",
"946 178 LINE"
);
}
);
width = 1233;
},
{
layerId = "60AE9F57-5482-48B8-82FC-FC2DEE823110";
paths = (
{
closed = 1;
nodes = (
"593 630 LINE",
"593 409 LINE",
"841 409 LINE",
"843 241 LINE",
"807 226 OFFCURVE",
"762 219 OFFCURVE",
"710 219 CURVE SMOOTH",
"519 219 OFFCURVE",
"412 343 OFFCURVE",
"412 559 CURVE SMOOTH",
"412 778 OFFCURVE",
"523 900 OFFCURVE",
"722 900 CURVE SMOOTH",
"829 900 OFFCURVE",
"936 868 OFFCURVE",
"1044 803 CURVE",
"1044 1039 LINE",
"939 1092 OFFCURVE",
"820 1119 OFFCURVE",
"692 1119 CURVE SMOOTH",
"359 1119 OFFCURVE",
"154 907 OFFCURVE",
"154 559 CURVE SMOOTH",
"154 215 OFFCURVE",
"355 0 OFFCURVE",
"678 0 CURVE SMOOTH",
"821 0 OFFCURVE",
"955 34 OFFCURVE",
"1079 101 CURVE",
"1079 630 LINE"
);
}
);
width = 1233;
}
);
note = uni0262;
unicode = 0262;
},
{
glyphname = Gsmallhook;
lastChange = "2018-03-04 04:33:50 +0000";
layers = (
{
layerId = "F25FDEC7-9088-49C2-ACEA-4290AADBBD1B";
paths = (
{
closed = 1;
nodes = (
"679 163 OFFCURVE",
"616 156 OFFCURVE",
"529 156 CURVE SMOOTH",
"350 156 OFFCURVE",
"246 315 OFFCURVE",
"246 588 CURVE SMOOTH",
"246 861 OFFCURVE",
"350 1020 OFFCURVE",
"529 1020 CURVE SMOOTH",
"566 1020 OFFCURVE",
"605 1013 OFFCURVE",
"647 998 CURVE SMOOTH",
"773 954 OFFCURVE",
"846 919 OFFCURVE",
"865 894 CURVE",
"865 1000 LINE",
"867 1000 LINE",
"867 1148 LINE SMOOTH",
"867 1249 OFFCURVE",
"876 1316 OFFCURVE",
"895 1350 CURVE",
"915 1382 OFFCURVE",
"951 1398 OFFCURVE",
"1003 1398 CURVE SMOOTH",
"1132 1398 LINE",
"1132 1554 LINE",
"942 1554 LINE SMOOTH",
"851 1554 OFFCURVE",
"786 1522 OFFCURVE",
"746 1458 CURVE SMOOTH",
"705 1395 OFFCURVE",
"684 1292 OFFCURVE",
"684 1148 CURVE SMOOTH",
"684 1147 LINE",
"675 1150 OFFCURVE",
"663 1154 OFFCURVE",
"647 1158 CURVE SMOOTH",
"599 1170 OFFCURVE",
"558 1176 OFFCURVE",
"524 1176 CURVE SMOOTH",
"232 1176 OFFCURVE",
"54 949 OFFCURVE",
"54 588 CURVE SMOOTH",
"54 229 OFFCURVE",
"231 0 OFFCURVE",
"514 0 CURVE SMOOTH",
"717 0 OFFCURVE",
"887 67 OFFCURVE",
"888 72 CURVE",
"888 600 LINE",
"602 600 LINE",
"602 460 LINE",
"718 460 LINE",
"718 178 LINE"
);
}
);
width = 1233;
},
{
layerId = "60AE9F57-5482-48B8-82FC-FC2DEE823110";
paths = (
{
closed = 1;
nodes = (
"501 630 LINE",
"501 409 LINE",
"749 409 LINE",
"750 241 LINE",
"715 226 OFFCURVE",
"670 219 OFFCURVE",
"618 219 CURVE SMOOTH",
"427 219 OFFCURVE",
"319 343 OFFCURVE",
"319 559 CURVE SMOOTH",
"319 778 OFFCURVE",
"431 900 OFFCURVE",
"630 900 CURVE SMOOTH",
"737 900 OFFCURVE",
"843 868 OFFCURVE",
"951 803 CURVE",
"951 1088 LINE SMOOTH",
"951 1264 OFFCURVE",
"1000 1330 OFFCURVE",
"1133 1330 CURVE SMOOTH",
"1172 1330 LINE",
"1172 1555 LINE",
"1051 1555 LINE SMOOTH",
"771 1555 OFFCURVE",
"667 1422 OFFCURVE",
"660 1117 CURVE",
"640 1118 OFFCURVE",
"620 1119 OFFCURVE",
"599 1119 CURVE SMOOTH",
"266 1119 OFFCURVE",
"61 907 OFFCURVE",
"61 559 CURVE SMOOTH",
"61 215 OFFCURVE",
"263 0 OFFCURVE",
"586 0 CURVE SMOOTH",
"729 0 OFFCURVE",
"862 34 OFFCURVE",
"987 101 CURVE",
"987 630 LINE"
);
}
);
width = 1233;
}
);
note = uni029B;
unicode = 029B;
},
{
glyphname = Hsmall;
lastChange = "2018-03-04 04:33:50 +0000";
layers = (
{
layerId = "F25FDEC7-9088-49C2-ACEA-4290AADBBD1B";
paths = (
{
closed = 1;
nodes = (
"346 0 LINE",
"346 530 LINE",
"887 530 LINE",
"887 0 LINE",
"1089 0 LINE",
"1089 1147 LINE",
"887 1147 LINE",
"887 700 LINE",
"346 700 LINE",
"346 1147 LINE",
"144 1147 LINE",
"144 0 LINE"
);
}
);
width = 1233;
},
{
layerId = "60AE9F57-5482-48B8-82FC-FC2DEE823110";
paths = (
{
closed = 1;
nodes = (
"446 0 LINE",
"446 463 LINE",
"787 463 LINE",
"787 0 LINE",
"1113 0 LINE",
"1113 1120 LINE",
"787 1120 LINE",
"787 715 LINE",
"446 715 LINE",
"446 1120 LINE",
"120 1120 LINE",
"120 0 LINE"
);
}
);
width = 1233;
}
);
note = uni029C;
unicode = 029C;
},
{
glyphname = Ismall;
lastChange = "2018-03-04 04:33:50 +0000";
layers = (
{
layerId = "F25FDEC7-9088-49C2-ACEA-4290AADBBD1B";
paths = (
{
closed = 1;
nodes = (
"524 977 LINE",
"524 143 LINE",
"160 143 LINE",
"160 0 LINE",
"1074 0 LINE",
"1074 143 LINE",
"708 143 LINE",
"708 977 LINE",
"1074 977 LINE",
"1074 1118 LINE",
"160 1118 LINE",
"160 977 LINE"
);
}
);
width = 1233;
},
{
layerId = "60AE9F57-5482-48B8-82FC-FC2DEE823110";
paths = (
{
closed = 1;
nodes = (
"1128 1120 LINE",
"106 1120 LINE",
"106 895 LINE",
"470 895 LINE",
"470 225 LINE",
"106 225 LINE",
"106 0 LINE",
"1128 0 LINE",
"1128 225 LINE",
"764 225 LINE",
"764 895 LINE",
"1128 895 LINE"
);
}
);
width = 1233;
}
);
note = uni026A;
unicode = 026A;
},
{
glyphname = Lsmall;
lastChange = "2018-03-04 04:33:50 +0000";
layers = (
{
layerId = "F25FDEC7-9088-49C2-ACEA-4290AADBBD1B";
paths = (
{
closed = 1;
nodes = (
"988 0 LINE",
"988 170 LINE",
"447 170 LINE",
"447 1147 LINE",
"245 1147 LINE",
"245 0 LINE"
);
}
);
width = 1233;
},
{
layerId = "60AE9F57-5482-48B8-82FC-FC2DEE823110";
paths = (
{
closed = 1;
nodes = (
"998 0 LINE",
"998 291 LINE",
"559 291 LINE",
"560 1120 LINE",
"236 1120 LINE",
"235 0 LINE"
);
}
);
width = 1233;
}
);
note = uni029F;
unicode = 029F;
},
{
glyphname = Nsmall;
lastChange = "2018-03-04 04:33:50 +0000";
layers = (
{
layerId = "F25FDEC7-9088-49C2-ACEA-4290AADBBD1B";
paths = (
{
closed = 1;
nodes = (
"340 0 LINE",
"340 903 LINE",
"817 0 LINE",
"1089 0 LINE",
"1089 1147 LINE",
"893 1147 LINE",
"893 244 LINE",
"416 1147 LINE",
"144 1147 LINE",
"144 0 LINE"
);
}
);
width = 1233;
},
{
layerId = "60AE9F57-5482-48B8-82FC-FC2DEE823110";
paths = (
{
closed = 1;
nodes = (
"449 0 LINE",
"449 651 LINE",
"726 0 LINE",
"1113 0 LINE",
"1113 1120 LINE",
"784 1120 LINE",
"784 469 LINE",
"507 1120 LINE",
"120 1120 LINE",
"120 0 LINE"
);
}
);
width = 1233;
}
);
note = uni0274;
unicode = 0274;
},
{
glyphname = OEsmall;
lastChange = "2018-03-04 04:33:50 +0000";
layers = (
{
layerId = "F25FDEC7-9088-49C2-ACEA-4290AADBBD1B";
paths = (
{
closed = 1;
nodes = (
"240 1120 OFFCURVE",
"69 926 OFFCURVE",
"69 561 CURVE SMOOTH",
"69 193 OFFCURVE",
"240 0 OFFCURVE",
"564 0 CURVE SMOOTH",
"1164 0 LINE",
"1164 172 LINE",
"780 172 LINE",
"780 520 LINE",
"1136 520 LINE",
"1136 675 LINE",
"780 675 LINE",
"780 950 LINE",
"1153 950 LINE",
"1153 1120 LINE",
"564 1120 LINE SMOOTH"
);
},
{
closed = 1;
nodes = (
"573 142 LINE SMOOTH",
"372 142 OFFCURVE",
"272 282 OFFCURVE",
"272 559 CURVE SMOOTH",
"272 835 OFFCURVE",
"372 973 OFFCURVE",
"573 973 CURVE SMOOTH",
"596 973 LINE",
"596 142 LINE"
);
}
);
width = 1233;
},
{
layerId = "60AE9F57-5482-48B8-82FC-FC2DEE823110";
paths = (
{
closed = 1;
nodes = (
"547 218 LINE SMOOTH",
"391 218 OFFCURVE",
"314 332 OFFCURVE",
"314 561 CURVE SMOOTH",
"314 789 OFFCURVE",
"391 902 OFFCURVE",
"547 902 CURVE SMOOTH",
"622 902 LINE",
"622 218 LINE"
);
},
{
closed = 1;
nodes = (
"571 1120 OFFCURVE",
"565 1120 OFFCURVE",
"557 1120 CURVE",
"548 1121 OFFCURVE",
"542 1121 OFFCURVE",
"539 1121 CURVE SMOOTH",
"240 1121 OFFCURVE",
"75 921 OFFCURVE",
"75 561 CURVE SMOOTH",
"75 200 OFFCURVE",
"240 -2 OFFCURVE",
"539 -2 CURVE SMOOTH",
"543 -2 OFFCURVE",
"549 -2 OFFCURVE",
"557 -1 CURVE SMOOTH",
"565 0 OFFCURVE",
"571 0 OFFCURVE",
"575 0 CURVE SMOOTH",
"1158 0 LINE",
"1158 218 LINE",
"865 218 LINE",
"865 475 LINE",
"1127 475 LINE",
"1127 693 LINE",
"865 693 LINE",
"865 902 LINE",
"1146 902 LINE",
"1146 1120 LINE",
"575 1120 LINE SMOOTH"
);
}
);
width = 1233;
}
);
note = uni0276;
unicode = 0276;
},
{
glyphname = Rsmall;
lastChange = "2018-03-04 04:33:50 +0000";
layers = (
{
layerId = "F25FDEC7-9088-49C2-ACEA-4290AADBBD1B";
paths = (
{
closed = 1;
nodes = (
"865 561 OFFCURVE",
"942 657 OFFCURVE",
"942 797 CURVE SMOOTH",
"942 1018 OFFCURVE",
"799 1118 OFFCURVE",
"510 1118 CURVE SMOOTH",
"122 1118 LINE",
"122 0 LINE",
"307 0 LINE",
"307 473 LINE",
"476 473 LINE SMOOTH",
"605 473 OFFCURVE",
"670 438 OFFCURVE",
"754 287 CURVE SMOOTH",
"916 0 LINE",
"1111 0 LINE",
"937 306 LINE SMOOTH",
"866 431 OFFCURVE",
"797 502 OFFCURVE",
"724 525 CURVE"
);
},
{
closed = 1;
nodes = (
"664 965 OFFCURVE",
"751 909 OFFCURVE",
"751 797 CURVE SMOOTH",
"751 686 OFFCURVE",
"664 628 OFFCURVE",
"505 628 CURVE SMOOTH",
"307 628 LINE",
"307 965 LINE",
"505 965 LINE SMOOTH"
);
}
);
width = 1233;
},
{
layerId = "60AE9F57-5482-48B8-82FC-FC2DEE823110";
paths = (
{
closed = 1;
nodes = (
"883 548 OFFCURVE",
"980 639 OFFCURVE",
"980 794 CURVE SMOOTH",
"980 1025 OFFCURVE",
"832 1120 OFFCURVE",
"468 1120 CURVE SMOOTH",
"104 1120 LINE",
"104 0 LINE",
"414 0 LINE",
"414 442 LINE",
"432 442 LINE SMOOTH",
"456 442 OFFCURVE",
"477 437 OFFCURVE",
"495 426 CURVE SMOOTH",
"521 411 OFFCURVE",
"551 374 OFFCURVE",
"586 316 CURVE SMOOTH",
"594 302 OFFCURVE",
"601 291 OFFCURVE",
"606 283 CURVE SMOOTH",
"776 0 LINE",
"1128 0 LINE",
"872 403 LINE SMOOTH",
"867 411 OFFCURVE",
"861 419 OFFCURVE",
"854 427 CURVE",
"826 462 OFFCURVE",
"760 518 OFFCURVE",
"704 529 CURVE"
);
},
{
closed = 1;
nodes = (
"487 894 OFFCURVE",
"498 894 OFFCURVE",
"507 893 CURVE",
"551 891 OFFCURVE",
"587 879 OFFCURVE",
"616 858 CURVE",
"624 853 OFFCURVE",
"630 848 OFFCURVE",
"635 844 CURVE SMOOTH",
"676 811 OFFCURVE",
"681 737 OFFCURVE",
"616 684 CURVE",
"604 676 LINE SMOOTH",
"577 657 OFFCURVE",
"534 648 OFFCURVE",
"476 648 CURVE SMOOTH",
"414 648 LINE",
"414 894 LINE",
"476 894 LINE SMOOTH"
);
}
);
width = 1233;
}
);
note = uni0280;
unicode = 0280;
},
{
glyphname = Rsmallinverted;
lastChange = "2018-03-04 04:33:50 +0000";
layers = (
{
layerId = "F25FDEC7-9088-49C2-ACEA-4290AADBBD1B";
paths = (
{
closed = 1;
nodes = (
"797 618 OFFCURVE",
"866 689 OFFCURVE",
"937 814 CURVE SMOOTH",
"1111 1118 LINE",
"916 1118 LINE",
"754 833 LINE SMOOTH",
"670 682 OFFCURVE",
"605 647 OFFCURVE",
"476 647 CURVE SMOOTH",
"307 647 LINE",
"307 1118 LINE",
"122 1118 LINE",
"122 0 LINE",
"510 0 LINE SMOOTH",
"799 0 OFFCURVE",
"942 107 OFFCURVE",
"942 323 CURVE SMOOTH",
"942 463 OFFCURVE",
"865 559 OFFCURVE",
"724 595 CURVE"
);
},
{
closed = 1;
nodes = (
"505 492 LINE SMOOTH",
"664 492 OFFCURVE",
"751 434 OFFCURVE",
"751 323 CURVE SMOOTH",
"751 211 OFFCURVE",
"664 155 OFFCURVE",
"505 155 CURVE SMOOTH",
"307 155 LINE",
"307 492 LINE"
);
}
);
width = 1233;
},
{
layerId = "60AE9F57-5482-48B8-82FC-FC2DEE823110";
paths = (
{
closed = 1;
nodes = (
"623 490 OFFCURVE",
"672 450 OFFCURVE",
"672 353 CURVE SMOOTH",
"672 257 OFFCURVE",
"623 219 OFFCURVE",
"502 219 CURVE SMOOTH",
"423 219 LINE",
"423 490 LINE",
"502 490 LINE SMOOTH"
);
},
{
closed = 1;
nodes = (
"65 1120 LINE",
"65 0 LINE",
"560 0 LINE SMOOTH",
"875 0 OFFCURVE",
"1016 96 OFFCURVE",
"1016 309 CURVE SMOOTH",
"1016 457 OFFCURVE",
"940 552 OFFCURVE",
"787 596 CURVE",
"871 615 OFFCURVE",
"933 673 OFFCURVE",
"1001 802 CURVE SMOOTH",
"1168 1120 LINE",
"805 1120 LINE",
"660 842 LINE SMOOTH",
"611 747 OFFCURVE",
"560 711 OFFCURVE",
"460 711 CURVE SMOOTH",
"423 711 LINE",
"423 1120 LINE"
);
}
);
width = 1233;
}
);
note = uni0281;
unicode = 0281;
},
{
glyphname = Ysmall;
lastChange = "2018-03-04 04:33:50 +0000";
layers = (
{
layerId = "F25FDEC7-9088-49C2-ACEA-4290AADBBD1B";
paths = (
{
closed = 1;
nodes = (
"509 0 LINE",
"712 0 LINE",
"712 525 LINE",
"1131 1149 LINE",
"914 1149 LINE",
"612 693 LINE",
"319 1149 LINE",
"102 1149 LINE",
"509 525 LINE"
);
}
);
width = 1233;
},
{
layerId = "60AE9F57-5482-48B8-82FC-FC2DEE823110";
paths = (
{
closed = 1;
nodes = (
"478 0 LINE",
"755 0 LINE",
"755 472 LINE",
"1165 1120 LINE",
"828 1120 LINE",
"616 775 LINE",
"403 1120 LINE",
"68 1120 LINE",
"478 472 LINE"
);
}
);
width = 1233;
}
);
note = uni028F;
unicode = 028F;
},
{
glyphname = a;
lastChange = "2018-03-04 04:33:50 +0000";
layers = (
{
layerId = "F25FDEC7-9088-49C2-ACEA-4290AADBBD1B";
paths = (
{
closed = 1;
nodes = (
"874 522 LINE SMOOTH",
"873 274 OFFCURVE",
"750 125 OFFCURVE",
"547 125 CURVE SMOOTH",
"403 125 OFFCURVE",
"317 203 OFFCURVE",
"317 338 CURVE SMOOTH",
"317 487 OFFCURVE",
"426 563 OFFCURVE",
"641 563 CURVE SMOOTH",
"874 563 LINE"
);
},
{
closed = 1;
nodes = (
"1059 835 OFFCURVE",
"1040 916 OFFCURVE",
"989 983 CURVE SMOOTH",
"908 1092 OFFCURVE",
"777 1147 OFFCURVE",
"592 1147 CURVE SMOOTH",
"475 1147 OFFCURVE",
"351 1121 OFFCURVE",
"215 1069 CURVE",
"215 885 LINE",
"336 954 OFFCURVE",
"467 991 OFFCURVE",
"592 991 CURVE SMOOTH",
"788 991 OFFCURVE",
"873 915 OFFCURVE",
"874 736 CURVE SMOOTH",
"874 707 LINE",
"627 707 LINE SMOOTH",
"303 707 OFFCURVE",
"133 575 OFFCURVE",
"133 326 CURVE SMOOTH",
"133 110 OFFCURVE",
"280 -29 OFFCURVE",
"508 -29 CURVE SMOOTH",
"679 -29 OFFCURVE",
"795 33 OFFCURVE",
"874 166 CURVE",
"874 0 LINE",
"1059 0 LINE",
"1059 639 LINE SMOOTH"
);
}
);
width = 1233;
},
{
layerId = "60AE9F57-5482-48B8-82FC-FC2DEE823110";
paths = (
{
closed = 1;
nodes = (
"817 506 LINE SMOOTH",
"817 297 OFFCURVE",
"728 174 OFFCURVE",
"573 174 CURVE SMOOTH",
"470 174 OFFCURVE",
"406 239 OFFCURVE",
"406 340 CURVE SMOOTH",
"406 476 OFFCURVE",
"481 526 OFFCURVE",
"700 526 CURVE SMOOTH",
"817 526 LINE"
);
},
{
closed = 1;
nodes = (
"1108 1020 OFFCURVE",
"978 1147 OFFCURVE",
"614 1147 CURVE SMOOTH",
"465 1147 OFFCURVE",
"334 1122 OFFCURVE",
"205 1069 CURVE",
"205 819 LINE",
"348 896 OFFCURVE",
"474 930 OFFCURVE",
"614 930 CURVE SMOOTH",
"747 930 OFFCURVE",
"817 881 OFFCURVE",
"817 786 CURVE SMOOTH",
"817 737 LINE",
"614 737 LINE SMOOTH",
"259 737 OFFCURVE",
"94 615 OFFCURVE",
"94 354 CURVE SMOOTH",
"94 113 OFFCURVE",
"243 -29 OFFCURVE",
"498 -29 CURVE SMOOTH",
"631 -29 OFFCURVE",
"746 26 OFFCURVE",
"817 125 CURVE",
"817 0 LINE",
"1108 0 LINE",
"1108 639 LINE SMOOTH"
);
}
);
width = 1233;
}
);
note = a;
unicode = 0061;
},
{
glyphname = aeTurned;
lastChange = "2018-03-04 04:33:50 +0000";
layers = (
{
layerId = "F25FDEC7-9088-49C2-ACEA-4290AADBBD1B";
paths = (
{
closed = 1;
nodes = (
"698 799 OFFCURVE",
"710 882 OFFCURVE",
"735 927 CURVE SMOOTH",
"760 971 OFFCURVE",
"803 993 OFFCURVE",
"864 993 CURVE SMOOTH",
"975 993 OFFCURVE",
"1036 926 OFFCURVE",
"1036 807 CURVE SMOOTH",
"1036 656 OFFCURVE",
"972 604 OFFCURVE",
"747 604 CURVE SMOOTH",
"698 604 LINE",
"698 676 LINE SMOOTH"
);
},
{
closed = 1;
nodes = (
"532 418 LINE SMOOTH",
"532 209 OFFCURVE",
"485 125 OFFCURVE",
"369 125 CURVE SMOOTH",
"253 125 OFFCURVE",
"205 208 OFFCURVE",
"205 409 CURVE SMOOTH",
"205 461 LINE",
"532 461 LINE"
);
},
{
closed = 1;
nodes = (
"41 106 OFFCURVE",
"128 -29 OFFCURVE",
"360 -29 CURVE SMOOTH",
"479 -29 OFFCURVE",
"570 17 OFFCURVE",
"614 98 CURVE",
"663 13 OFFCURVE",
"745 -29 OFFCURVE",
"866 -29 CURVE SMOOTH",
"946 -29 OFFCURVE",
"1032 -8 OFFCURVE",
"1135 39 CURVE",
"1135 207 LINE",
"1052 155 OFFCURVE",
"960 125 OFFCURVE",
"885 125 CURVE SMOOTH",
"760 125 OFFCURVE",
"692 213 OFFCURVE",
"692 373 CURVE SMOOTH",
"692 461 LINE",
"809 461 LINE SMOOTH",
"1064 461 OFFCURVE",
"1200 583 OFFCURVE",
"1200 811 CURVE SMOOTH",
"1200 1030 OFFCURVE",
"1089 1147 OFFCURVE",
"881 1147 CURVE SMOOTH",
"752 1147 OFFCURVE",
"664 1094 OFFCURVE",
"612 987 CURVE",
"569 1091 OFFCURVE",
"468 1147 OFFCURVE",
"321 1147 CURVE SMOOTH",
"226 1147 OFFCURVE",
"136 1118 OFFCURVE",
"63 1063 CURVE",
"63 891 LINE",
"130 959 OFFCURVE",
"216 993 OFFCURVE",
"321 993 CURVE SMOOTH",
"470 993 OFFCURVE",
"534 903 OFFCURVE",
"534 688 CURVE SMOOTH",
"534 643 OFFCURVE",
"533 624 OFFCURVE",
"532 604 CURVE",
"41 604 LINE",
"41 514 LINE SMOOTH"
);
}
);
width = 1233;
},
{
layerId = "60AE9F57-5482-48B8-82FC-FC2DEE823110";
paths = (
{
closed = 1;
nodes = (
"752 877 OFFCURVE",
"792 934 OFFCURVE",
"876 934 CURVE SMOOTH",
"957 934 OFFCURVE",
"1001 883 OFFCURVE",
"1001 788 CURVE SMOOTH",
"1001 688 OFFCURVE",
"941 635 OFFCURVE",
"825 635 CURVE SMOOTH",
"752 635 LINE",
"752 717 LINE",
"752 760 LINE SMOOTH"
);
},
{
closed = 1;
nodes = (
"504 405 LINE SMOOTH",
"504 322 OFFCURVE",
"496 264 OFFCURVE",
"479 233 CURVE SMOOTH",
"462 202 OFFCURVE",
"433 186 OFFCURVE",
"391 186 CURVE SMOOTH",
"349 186 OFFCURVE",
"320 202 OFFCURVE",
"303 233 CURVE SMOOTH",
"286 264 OFFCURVE",
"278 322 OFFCURVE",
"278 405 CURVE SMOOTH",
"278 428 LINE",
"504 428 LINE"
);
},
{
closed = 1;
nodes = (
"53 108 OFFCURVE",
"141 -29 OFFCURVE",
"377 -29 CURVE SMOOTH",
"500 -29 OFFCURVE",
"590 17 OFFCURVE",
"629 98 CURVE",
"676 11 OFFCURVE",
"756 -29 OFFCURVE",
"887 -29 CURVE SMOOTH",
"972 -29 OFFCURVE",
"1066 -3 OFFCURVE",
"1165 49 CURVE",
"1165 295 LINE",
"1066 223 OFFCURVE",
"975 186 OFFCURVE",
"899 186 CURVE SMOOTH",
"798 186 OFFCURVE",
"745 249 OFFCURVE",
"745 373 CURVE SMOOTH",
"745 424 LINE",
"821 424 LINE SMOOTH",
"1093 424 OFFCURVE",
"1227 545 OFFCURVE",
"1227 792 CURVE SMOOTH",
"1227 1019 OFFCURVE",
"1106 1147 OFFCURVE",
"893 1147 CURVE SMOOTH",
"762 1147 OFFCURVE",
"678 1095 OFFCURVE",
"623 983 CURVE",
"567 1090 OFFCURVE",
"465 1147 OFFCURVE",
"328 1147 CURVE SMOOTH",
"217 1147 OFFCURVE",
"137 1120 OFFCURVE",
"70 1061 CURVE",
"70 817 LINE",
"149 894 OFFCURVE",
"229 934 OFFCURVE",
"309 934 CURVE SMOOTH",
"436 934 OFFCURVE",
"504 831 OFFCURVE",
"504 639 CURVE",
"53 639 LINE",
"53 512 LINE SMOOTH"
);
}
);
width = 1233;
}
);
note = uni1D02;
unicode = 1D02;
},
{
glyphname = "ain-egyptological";
lastChange = "2018-03-04 04:33:50 +0000";
layers = (
{
layerId = "F25FDEC7-9088-49C2-ACEA-4290AADBBD1B";
paths = (
{
closed = 1;
nodes = (
"421 839 OFFCURVE",
"618 958 OFFCURVE",
"1012 958 CURVE",
"1012 1147 LINE",
"494 1147 OFFCURVE",
"235 966 OFFCURVE",
"235 603 CURVE SMOOTH",
"235 462 OFFCURVE",
"281 289 OFFCURVE",
"374 86 CURVE",
"538 132 LINE",
"460 272 OFFCURVE",
"421 428 OFFCURVE",
"421 600 CURVE SMOOTH"
);
}
);
width = 1233;
},
{
layerId = "60AE9F57-5482-48B8-82FC-FC2DEE823110";
paths = (
{
closed = 1;
nodes = (
"493 773 OFFCURVE",
"679 857 OFFCURVE",
"1052 856 CURVE",
"1052 1147 LINE",
"474 1147 OFFCURVE",
"185 966 OFFCURVE",
"185 603 CURVE SMOOTH",
"185 462 OFFCURVE",
"231 289 OFFCURVE",
"324 86 CURVE",
"590 164 LINE",
"525 283 OFFCURVE",
"493 431 OFFCURVE",
"493 606 CURVE SMOOTH"
);
}
);
width = 1233;
}
);
note = uniA725;
unicode = A725;
},
{
glyphname = "alef-egyptological";
lastChange = "2018-03-04 04:33:50 +0000";
layers = (
{
layerId = "F25FDEC7-9088-49C2-ACEA-4290AADBBD1B";
paths = (
{
closed = 1;
nodes = (
"763 0 OFFCURVE",
"933 109 OFFCURVE",
"926 328 CURVE SMOOTH",
"922 453 OFFCURVE",
"872 546 OFFCURVE",
"777 605 CURVE",
"865 656 OFFCURVE",
"906 735 OFFCURVE",
"901 840 CURVE SMOOTH",
"892 1027 OFFCURVE",
"713 1120 OFFCURVE",
"366 1120 CURVE",
"366 968 LINE",
"819 968 OFFCURVE",
"849 686 OFFCURVE",
"396 686 CURVE",
"396 533 LINE",
"849 533 OFFCURVE",
"869 153 OFFCURVE",
"416 153 CURVE",
"416 0 LINE"
);
}
);
width = 1233;
},
{
layerId = "60AE9F57-5482-48B8-82FC-FC2DEE823110";
paths = (
{
closed = 1;
nodes = (
"770 0 OFFCURVE",
"964 109 OFFCURVE",
"957 328 CURVE SMOOTH",
"954 440 OFFCURVE",
"901 526 OFFCURVE",
"798 585 CURVE",
"893 650 OFFCURVE",
"938 735 OFFCURVE",
"932 840 CURVE SMOOTH",
"922 1027 OFFCURVE",
"720 1120 OFFCURVE",
"327 1120 CURVE",
"327 904 LINE",
"740 904 OFFCURVE",
"770 676 OFFCURVE",
"357 676 CURVE",
"357 460 LINE",
"770 460 OFFCURVE",
"790 216 OFFCURVE",
"377 216 CURVE",
"377 0 LINE"
);
}
);
width = 1233;
}
);
note = uniA723;
unicode = A723;
},
{
glyphname = "alpha-latin";
lastChange = "2018-03-04 04:33:50 +0000";
layers = (
{
layerId = "F25FDEC7-9088-49C2-ACEA-4290AADBBD1B";
paths = (
{
closed = 1;
nodes = (
"799 1088 OFFCURVE",
"694 1147 OFFCURVE",
"559 1147 CURVE SMOOTH",
"290 1147 OFFCURVE",
"123 927 OFFCURVE",
"123 563 CURVE SMOOTH",
"123 194 OFFCURVE",
"288 -29 OFFCURVE",
"559 -29 CURVE SMOOTH",
"692 -29 OFFCURVE",
"797 30 OFFCURVE",
"858 141 CURVE",
"858 0 LINE",
"1042 0 LINE",
"1042 1118 LINE",
"858 1118 LINE",
"858 977 LINE"
);
},
{
closed = 1;
nodes = (
"317 844 OFFCURVE",
"409 991 OFFCURVE",
"586 991 CURVE SMOOTH",
"763 991 OFFCURVE",
"858 843 OFFCURVE",
"858 559 CURVE SMOOTH",
"858 276 OFFCURVE",
"763 127 OFFCURVE",
"586 127 CURVE SMOOTH",
"409 127 OFFCURVE",
"317 274 OFFCURVE",
"317 559 CURVE SMOOTH"
);
}
);
width = 1233;
},
{
layerId = "60AE9F57-5482-48B8-82FC-FC2DEE823110";
paths = (
{
closed = 1;
nodes = (
"749 1085 OFFCURVE",
"654 1147 OFFCURVE",
"534 1147 CURVE SMOOTH",
"269 1147 OFFCURVE",
"120 938 OFFCURVE",
"120 559 CURVE SMOOTH",
"120 186 OFFCURVE",
"268 -29 OFFCURVE",
"524 -29 CURVE SMOOTH",
"659 -29 OFFCURVE",
"758 37 OFFCURVE",
"821 166 CURVE",
"821 0 LINE",
"1113 0 LINE",
"1113 1119 LINE",
"821 1119 LINE",
"821 961 LINE"
);
},
{
closed = 1;
nodes = (
"503 872 OFFCURVE",
"553 903 OFFCURVE",
"616 903 CURVE SMOOTH",
"743 903 OFFCURVE",
"821 773 OFFCURVE",
"821 557 CURVE SMOOTH",
"821 341 OFFCURVE",
"743 211 OFFCURVE",
"616 211 CURVE SMOOTH",
"489 211 OFFCURVE",
"413 341 OFFCURVE",
"413 557 CURVE SMOOTH",
"413 665 OFFCURVE",
"431 750 OFFCURVE",
"467 811 CURVE SMOOTH"
);
}
);
width = 1233;
}
);
note = uni0251;
unicode = 0251;
},
{
glyphname = "alphaturned-latin";
lastChange = "2018-03-04 04:33:50 +0000";
layers = (
{
layerId = "F25FDEC7-9088-49C2-ACEA-4290AADBBD1B";
paths = (
{
closed = 1;
nodes = (
"917 272 OFFCURVE",
"825 125 OFFCURVE",
"648 125 CURVE SMOOTH",
"471 125 OFFCURVE",
"376 273 OFFCURVE",
"376 557 CURVE SMOOTH",
"376 840 OFFCURVE",
"471 989 OFFCURVE",
"648 989 CURVE SMOOTH",
"825 989 OFFCURVE",
"917 842 OFFCURVE",
"917 557 CURVE SMOOTH"
);
},
{
closed = 1;
nodes = (
"192 1118 LINE",
"192 0 LINE",
"376 0 LINE",
"376 139 LINE",
"435 28 OFFCURVE",
"540 -31 OFFCURVE",
"675 -31 CURVE SMOOTH",
"944 -31 OFFCURVE",
"1111 189 OFFCURVE",
"1111 553 CURVE SMOOTH",
"1111 922 OFFCURVE",
"946 1145 OFFCURVE",
"675 1145 CURVE SMOOTH",
"542 1145 OFFCURVE",
"437 1086 OFFCURVE",
"376 975 CURVE",
"376 1118 LINE"
);
}
);
width = 1233;
},
{
layerId = "60AE9F57-5482-48B8-82FC-FC2DEE823110";
paths = (
{
closed = 1;
nodes = (
"484 33 OFFCURVE",
"579 -29 OFFCURVE",
"699 -29 CURVE SMOOTH",
"964 -29 OFFCURVE",
"1113 180 OFFCURVE",
"1113 559 CURVE SMOOTH",
"1113 932 OFFCURVE",
"965 1147 OFFCURVE",
"709 1147 CURVE SMOOTH",
"574 1147 OFFCURVE",
"475 1081 OFFCURVE",
"412 952 CURVE",
"412 1118 LINE",
"120 1118 LINE",
"120 -1 LINE",
"412 -1 LINE",
"412 157 LINE"
);
},
{
closed = 1;
nodes = (
"730 246 OFFCURVE",
"680 215 OFFCURVE",
"617 215 CURVE SMOOTH",
"490 215 OFFCURVE",
"412 345 OFFCURVE",
"412 561 CURVE SMOOTH",
"412 777 OFFCURVE",
"490 907 OFFCURVE",
"617 907 CURVE SMOOTH",
"744 907 OFFCURVE",
"820 777 OFFCURVE",
"820 561 CURVE SMOOTH",
"820 453 OFFCURVE",
"802 368 OFFCURVE",
"766 307 CURVE SMOOTH"
);
}
);
width = 1233;
}
);
note = uni0252;
unicode = 0252;
},
{
glyphname = aturned;
lastChange = "2018-03-04 04:33:50 +0000";
layers = (
{
layerId = "F25FDEC7-9088-49C2-ACEA-4290AADBBD1B";
paths = (
{
closed = 1;
nodes = (
"338 596 LINE SMOOTH",
"338 844 OFFCURVE",
"463 993 OFFCURVE",
"666 993 CURVE SMOOTH",
"810 993 OFFCURVE",
"896 915 OFFCURVE",
"896 780 CURVE SMOOTH",
"896 631 OFFCURVE",
"785 555 OFFCURVE",
"572 555 CURVE SMOOTH",
"338 555 LINE"
);
},
{
closed = 1;
nodes = (
"154 283 OFFCURVE",
"173 202 OFFCURVE",
"224 135 CURVE SMOOTH",
"304 26 OFFCURVE",
"436 -29 OFFCURVE",
"620 -29 CURVE SMOOTH",
"737 -29 OFFCURVE",
"862 -3 OFFCURVE",
"998 49 CURVE",
"998 233 LINE",
"875 164 OFFCURVE",
"745 127 OFFCURVE",
"620 127 CURVE SMOOTH",
"425 127 OFFCURVE",
"338 203 OFFCURVE",
"338 382 CURVE SMOOTH",
"338 411 LINE",
"586 411 LINE SMOOTH",
"909 411 OFFCURVE",
"1080 543 OFFCURVE",
"1080 792 CURVE SMOOTH",
"1080 1008 OFFCURVE",
"933 1147 OFFCURVE",
"704 1147 CURVE SMOOTH",
"533 1147 OFFCURVE",
"418 1085 OFFCURVE",
"338 952 CURVE",
"338 1118 LINE",
"154 1118 LINE",
"154 479 LINE SMOOTH"
);
}
);
width = 1233;
},
{
layerId = "60AE9F57-5482-48B8-82FC-FC2DEE823110";
paths = (
{
closed = 1;
nodes = (
"400 612 LINE SMOOTH",
"400 821 OFFCURVE",
"489 944 OFFCURVE",
"644 944 CURVE SMOOTH",
"748 944 OFFCURVE",
"812 879 OFFCURVE",
"812 778 CURVE SMOOTH",
"812 642 OFFCURVE",
"737 592 OFFCURVE",
"518 592 CURVE SMOOTH",
"400 592 LINE"
);
},
{
closed = 1;
nodes = (
"110 98 OFFCURVE",
"239 -29 OFFCURVE",
"604 -29 CURVE SMOOTH",
"753 -29 OFFCURVE",
"884 -4 OFFCURVE",
"1012 49 CURVE",
"1012 299 LINE",
"871 222 OFFCURVE",
"743 188 OFFCURVE",
"604 188 CURVE SMOOTH",
"471 188 OFFCURVE",
"400 237 OFFCURVE",
"400 332 CURVE SMOOTH",
"400 381 LINE",
"604 381 LINE SMOOTH",
"959 381 OFFCURVE",
"1124 503 OFFCURVE",
"1124 764 CURVE SMOOTH",
"1124 1005 OFFCURVE",
"973 1147 OFFCURVE",
"720 1147 CURVE SMOOTH",
"587 1147 OFFCURVE",
"472 1092 OFFCURVE",
"400 993 CURVE",
"400 1118 LINE",
"110 1118 LINE",
"110 479 LINE SMOOTH"
);
}
);
width = 1233;
}
);
note = uni0250;
unicode = 0250;
},
{
glyphname = ae;
lastChange = "2018-03-04 04:33:50 +0000";
layers = (
{
layerId = "F25FDEC7-9088-49C2-ACEA-4290AADBBD1B";
paths = (
{
closed = 1;
nodes = (
"543 319 OFFCURVE",
"531 236 OFFCURVE",
"506 192 CURVE SMOOTH",
"481 147 OFFCURVE",
"438 125 OFFCURVE",
"377 125 CURVE SMOOTH",
"266 125 OFFCURVE",
"205 192 OFFCURVE",
"205 311 CURVE SMOOTH",
"205 462 OFFCURVE",
"269 514 OFFCURVE",
"494 514 CURVE SMOOTH",
"543 514 LINE",
"543 442 LINE SMOOTH"
);
},
{
closed = 1;
nodes = (
"709 700 LINE SMOOTH",
"709 909 OFFCURVE",
"756 993 OFFCURVE",
"872 993 CURVE SMOOTH",
"988 993 OFFCURVE",
"1036 910 OFFCURVE",
"1036 709 CURVE SMOOTH",
"1036 657 LINE",
"709 657 LINE"
);
},
{
closed = 1;
nodes = (
"1200 1012 OFFCURVE",
"1113 1147 OFFCURVE",
"881 1147 CURVE SMOOTH",
"762 1147 OFFCURVE",
"671 1101 OFFCURVE",
"627 1020 CURVE",
"578 1105 OFFCURVE",
"496 1147 OFFCURVE",
"375 1147 CURVE SMOOTH",
"295 1147 OFFCURVE",
"209 1126 OFFCURVE",
"106 1079 CURVE",
"106 911 LINE",
"189 963 OFFCURVE",
"281 993 OFFCURVE",
"356 993 CURVE SMOOTH",
"481 993 OFFCURVE",
"549 905 OFFCURVE",
"549 745 CURVE SMOOTH",
"549 657 LINE",
"432 657 LINE SMOOTH",
"177 657 OFFCURVE",
"41 535 OFFCURVE",
"41 307 CURVE SMOOTH",
"41 88 OFFCURVE",
"152 -29 OFFCURVE",
"360 -29 CURVE SMOOTH",
"489 -29 OFFCURVE",
"577 24 OFFCURVE",
"629 131 CURVE",
"672 27 OFFCURVE",
"773 -29 OFFCURVE",
"920 -29 CURVE SMOOTH",
"1015 -29 OFFCURVE",
"1105 0 OFFCURVE",
"1178 55 CURVE",
"1178 227 LINE",
"1111 159 OFFCURVE",
"1025 125 OFFCURVE",
"920 125 CURVE SMOOTH",
"771 125 OFFCURVE",
"707 215 OFFCURVE",
"707 430 CURVE SMOOTH",
"707 475 OFFCURVE",
"708 494 OFFCURVE",
"709 514 CURVE",
"1200 514 LINE",
"1200 604 LINE SMOOTH"
);
}
);
width = 1233;
},
{
layerId = "60AE9F57-5482-48B8-82FC-FC2DEE823110";
paths = (
{
closed = 1;
nodes = (
"489 241 OFFCURVE",
"449 184 OFFCURVE",
"365 184 CURVE SMOOTH",
"284 184 OFFCURVE",
"240 235 OFFCURVE",
"240 330 CURVE SMOOTH",
"240 430 OFFCURVE",
"300 483 OFFCURVE",
"416 483 CURVE SMOOTH",
"489 483 LINE",
"489 401 LINE",
"489 358 LINE SMOOTH"
);
},
{
closed = 1;
nodes = (
"737 713 LINE SMOOTH",
"737 796 OFFCURVE",
"745 854 OFFCURVE",
"762 885 CURVE SMOOTH",
"779 916 OFFCURVE",
"808 932 OFFCURVE",
"850 932 CURVE SMOOTH",
"892 932 OFFCURVE",
"921 916 OFFCURVE",
"938 885 CURVE SMOOTH",
"955 854 OFFCURVE",
"963 796 OFFCURVE",
"963 713 CURVE SMOOTH",
"963 690 LINE",
"737 690 LINE"
);
},
{
closed = 1;
nodes = (
"1188 1010 OFFCURVE",
"1100 1147 OFFCURVE",
"864 1147 CURVE SMOOTH",
"741 1147 OFFCURVE",
"651 1101 OFFCURVE",
"612 1020 CURVE",
"565 1107 OFFCURVE",
"485 1147 OFFCURVE",
"354 1147 CURVE SMOOTH",
"269 1147 OFFCURVE",
"175 1121 OFFCURVE",
"76 1069 CURVE",
"76 823 LINE",
"175 895 OFFCURVE",
"266 932 OFFCURVE",
"342 932 CURVE SMOOTH",
"443 932 OFFCURVE",
"496 869 OFFCURVE",
"496 745 CURVE SMOOTH",
"496 694 LINE",
"420 694 LINE SMOOTH",
"148 694 OFFCURVE",
"14 573 OFFCURVE",
"14 326 CURVE SMOOTH",
"14 99 OFFCURVE",
"135 -29 OFFCURVE",
"348 -29 CURVE SMOOTH",
"479 -29 OFFCURVE",
"563 23 OFFCURVE",
"618 135 CURVE",
"674 28 OFFCURVE",
"776 -29 OFFCURVE",
"913 -29 CURVE SMOOTH",
"1024 -29 OFFCURVE",
"1104 -2 OFFCURVE",
"1171 57 CURVE",
"1171 301 LINE",
"1092 224 OFFCURVE",
"1012 184 OFFCURVE",
"932 184 CURVE SMOOTH",
"805 184 OFFCURVE",
"737 287 OFFCURVE",
"737 479 CURVE",
"1188 479 LINE",
"1188 606 LINE SMOOTH"
);
}
);
width = 1233;
}
);
note = ae;
unicode = 00E6;
},
{
glyphname = b;
lastChange = "2018-03-04 04:33:50 +0000";
layers = (
{
layerId = "F25FDEC7-9088-49C2-ACEA-4290AADBBD1B";
paths = (
{
closed = 1;
nodes = (
"918 274 OFFCURVE",
"826 127 OFFCURVE",
"649 127 CURVE SMOOTH",
"470 127 OFFCURVE",
"377 276 OFFCURVE",
"377 559 CURVE SMOOTH",
"377 843 OFFCURVE",
"470 991 OFFCURVE",
"649 991 CURVE SMOOTH",
"826 991 OFFCURVE",
"918 844 OFFCURVE",
"918 559 CURVE SMOOTH"
);
},
{
closed = 1;
nodes = (
"193 1556 LINE",
"193 0 LINE",
"377 0 LINE",
"377 141 LINE",
"438 30 OFFCURVE",
"543 -29 OFFCURVE",
"676 -29 CURVE SMOOTH",
"947 -29 OFFCURVE",
"1112 194 OFFCURVE",
"1112 563 CURVE SMOOTH",
"1112 927 OFFCURVE",
"947 1147 OFFCURVE",
"678 1147 CURVE SMOOTH",
"542 1147 OFFCURVE",
"436 1086 OFFCURVE",
"377 977 CURVE",
"377 1556 LINE"
);
}
);
width = 1233;
},
{
layerId = "60AE9F57-5482-48B8-82FC-FC2DEE823110";
paths = (
{
closed = 1;
nodes = (
"850 341 OFFCURVE",
"774 211 OFFCURVE",
"647 211 CURVE SMOOTH",
"520 211 OFFCURVE",
"442 341 OFFCURVE",
"442 557 CURVE SMOOTH",
"442 773 OFFCURVE",
"520 903 OFFCURVE",
"647 903 CURVE SMOOTH",
"774 903 OFFCURVE",
"850 773 OFFCURVE",
"850 557 CURVE SMOOTH"
);
},
{
closed = 1;
nodes = (
"150 1556 LINE",
"150 0 LINE",
"442 0 LINE",
"442 166 LINE",
"503 37 OFFCURVE",
"604 -29 OFFCURVE",
"739 -29 CURVE SMOOTH",
"995 -29 OFFCURVE",
"1143 186 OFFCURVE",
"1143 559 CURVE SMOOTH",
"1143 938 OFFCURVE",
"994 1147 OFFCURVE",
"729 1147 CURVE SMOOTH",
"609 1147 OFFCURVE",
"514 1085 OFFCURVE",
"442 961 CURVE",
"442 1556 LINE"
);
}
);
width = 1233;
}
);
note = b;
unicode = 0062;
},
{
glyphname = bhook;
lastChange = "2018-03-04 04:33:50 +0000";
layers = (
{
layerId = "F25FDEC7-9088-49C2-ACEA-4290AADBBD1B";
paths = (
{
closed = 1;
nodes = (
"918 274 OFFCURVE",
"826 127 OFFCURVE",
"649 127 CURVE SMOOTH",
"470 127 OFFCURVE",
"377 276 OFFCURVE",
"377 559 CURVE SMOOTH",
"377 843 OFFCURVE",
"470 991 OFFCURVE",
"649 991 CURVE SMOOTH",
"826 991 OFFCURVE",
"918 844 OFFCURVE",
"918 559 CURVE SMOOTH"
);
},
{
closed = 1;
nodes = (
"377 1317 OFFCURVE",
"437 1400 OFFCURVE",
"557 1400 CURVE SMOOTH",
"741 1400 LINE",
"741 1556 LINE",
"537 1556 LINE SMOOTH",
"317 1556 OFFCURVE",
"193 1410 OFFCURVE",
"193 1150 CURVE SMOOTH",
"193 0 LINE",
"377 0 LINE",
"377 141 LINE",
"438 30 OFFCURVE",
"543 -29 OFFCURVE",
"676 -29 CURVE SMOOTH",
"947 -29 OFFCURVE",
"1112 194 OFFCURVE",
"1112 563 CURVE SMOOTH",
"1112 927 OFFCURVE",
"947 1147 OFFCURVE",
"678 1147 CURVE SMOOTH",
"542 1147 OFFCURVE",
"436 1086 OFFCURVE",
"377 977 CURVE",
"377 1150 LINE SMOOTH"
);
}
);
width = 1233;
},
{
layerId = "60AE9F57-5482-48B8-82FC-FC2DEE823110";
paths = (
{
closed = 1;
nodes = (
"850 341 OFFCURVE",
"774 211 OFFCURVE",
"647 211 CURVE SMOOTH",
"520 211 OFFCURVE",
"442 341 OFFCURVE",
"442 557 CURVE SMOOTH",
"442 773 OFFCURVE",
"520 903 OFFCURVE",
"647 903 CURVE SMOOTH",
"774 903 OFFCURVE",
"850 773 OFFCURVE",
"850 557 CURVE SMOOTH"
);
},
{
closed = 1;
nodes = (
"442 1264 OFFCURVE",
"492 1330 OFFCURVE",
"623 1330 CURVE SMOOTH",
"857 1330 LINE",
"857 1555 LINE",
"541 1555 LINE SMOOTH",
"261 1555 OFFCURVE",
"150 1424 OFFCURVE",
"150 1088 CURVE SMOOTH",
"150 0 LINE",
"442 0 LINE",
"442 166 LINE",
"503 37 OFFCURVE",
"604 -29 OFFCURVE",
"739 -29 CURVE SMOOTH",
"995 -29 OFFCURVE",
"1143 186 OFFCURVE",
"1143 559 CURVE SMOOTH",
"1143 938 OFFCURVE",
"994 1147 OFFCURVE",
"729 1147 CURVE SMOOTH",
"609 1147 OFFCURVE",
"514 1085 OFFCURVE",
"442 961 CURVE",
"442 1088 LINE SMOOTH"
);
}
);
width = 1233;
}
);
note = uni0253;
unicode = 0253;
},
{
glyphname = bidentalpercussive;
lastChange = "2018-03-04 04:33:50 +0000";
layers = (
{
layerId = "F25FDEC7-9088-49C2-ACEA-4290AADBBD1B";
paths = (
{
closed = 1;
nodes = (
"286 173 LINE",
"286 434 LINE",
"947 434 LINE",
"947 173 LINE",
"1090 173 LINE",
"1090 597 LINE",
"143 597 LINE",
"143 173 LINE"
);
},
{
closed = 1;
nodes = (
"286 887 LINE",
"286 1148 LINE",
"947 1148 LINE",
"947 887 LINE",
"1090 887 LINE",
"1090 1311 LINE",
"143 1311 LINE",
"143 887 LINE"
);
}
);
width = 1233;
},
{
layerId = "60AE9F57-5482-48B8-82FC-FC2DEE823110";
paths = (
{
closed = 1;
nodes = (
"804 474 LINE",
"804 177 LINE",
"947 177 LINE",
"947 627 LINE",
"286 627 LINE",
"286 177 LINE",
"429 177 LINE",
"429 474 LINE"
);
},
{
closed = 1;
nodes = (
"804 1159 LINE",
"804 862 LINE",
"947 862 LINE",
"947 1312 LINE",
"286 1312 LINE",
"286 862 LINE",
"429 862 LINE",
"429 1159 LINE"
);
}
);
width = 1233;
}
);
note = uni02AD;
unicode = 02AD;
},
{
glyphname = bilabialclick;
lastChange = "2018-03-04 04:33:50 +0000";
layers = (
{
layerId = "F25FDEC7-9088-49C2-ACEA-4290AADBBD1B";
paths = (
{
closed = 1;
nodes = (
"95 277 OFFCURVE",
"331 45 OFFCURVE",
"620 45 CURVE SMOOTH",
"908 45 OFFCURVE",
"1139 277 OFFCURVE",
"1139 565 CURVE SMOOTH",
"1139 848 OFFCURVE",
"902 1090 OFFCURVE",
"619 1090 CURVE SMOOTH",
"331 1090 OFFCURVE",
"95 848 OFFCURVE",
"95 565 CURVE SMOOTH"
);
},
{
closed = 1;
nodes = (
"276 750 OFFCURVE",
"430 908 OFFCURVE",
"618 908 CURVE SMOOTH",
"802 908 OFFCURVE",
"957 750 OFFCURVE",
"957 566 CURVE SMOOTH",
"957 378 OFFCURVE",
"806 227 OFFCURVE",
"618 227 CURVE SMOOTH",
"430 227 OFFCURVE",
"276 378 OFFCURVE",
"276 566 CURVE SMOOTH"
);
},
{
closed = 1;
nodes = (
"503 504 OFFCURVE",
"554 454 OFFCURVE",
"617 454 CURVE SMOOTH",
"680 454 OFFCURVE",
"730 504 OFFCURVE",
"730 567 CURVE SMOOTH",
"730 628 OFFCURVE",
"678 681 OFFCURVE",
"617 681 CURVE SMOOTH",
"554 681 OFFCURVE",
"503 628 OFFCURVE",
"503 567 CURVE SMOOTH"
);
}
);
width = 1233;
},
{
layerId = "60AE9F57-5482-48B8-82FC-FC2DEE823110";
paths = (
{
closed = 1;
nodes = (
"325 741 OFFCURVE",
"457 891 OFFCURVE",
"618 891 CURVE SMOOTH",
"775 891 OFFCURVE",
"908 741 OFFCURVE",
"908 566 CURVE SMOOTH",
"908 387 OFFCURVE",
"778 244 OFFCURVE",
"618 244 CURVE SMOOTH",
"457 244 OFFCURVE",
"325 387 OFFCURVE",
"325 566 CURVE SMOOTH"
);
},
{
closed = 1;
nodes = (
"55 220 OFFCURVE",
"308 -57 OFFCURVE",
"619 -57 CURVE SMOOTH",
"930 -57 OFFCURVE",
"1178 220 OFFCURVE",
"1178 565 CURVE SMOOTH",
"1178 902 OFFCURVE",
"923 1192 OFFCURVE",
"619 1192 CURVE SMOOTH",
"308 1192 OFFCURVE",
"55 902 OFFCURVE",
"55 565 CURVE SMOOTH"
);
},
{
closed = 1;
nodes = (
"499 495 OFFCURVE",
"552 437 OFFCURVE",
"617 437 CURVE SMOOTH",
"682 437 OFFCURVE",
"734 495 OFFCURVE",
"734 567 CURVE SMOOTH",
"734 597 OFFCURVE",
"723 628 OFFCURVE",
"700 659 CURVE",
"685 685 OFFCURVE",
"657 698 OFFCURVE",
"617 698 CURVE SMOOTH",
"552 698 OFFCURVE",
"499 638 OFFCURVE",
"499 567 CURVE SMOOTH"
);
}
);
width = 1233;
}
);
note = uni0298;
unicode = 0298;
},
{
glyphname = bilabialpercussive;
lastChange = "2018-03-04 04:33:50 +0000";
layers = (
{
layerId = "F25FDEC7-9088-49C2-ACEA-4290AADBBD1B";
paths = (
{
closed = 1;
nodes = (
"464 -30 LINE",
"617 484 LINE",
"769 -30 LINE",
"905 -30 LINE",
"1090 597 LINE",
"974 597 LINE",
"830 108 LINE",
"685 597 LINE",
"548 597 LINE",
"404 108 LINE",
"259 597 LINE",
"143 597 LINE",
"328 -30 LINE"
);
},
{
closed = 1;
nodes = (
"464 684 LINE",
"617 1198 LINE",
"769 684 LINE",
"905 684 LINE",
"1090 1311 LINE",
"974 1311 LINE",
"830 822 LINE",
"685 1311 LINE",
"548 1311 LINE",
"404 822 LINE",
"259 1311 LINE",
"143 1311 LINE",
"328 684 LINE"
);
}
);
width = 1233;
},
{
layerId = "60AE9F57-5482-48B8-82FC-FC2DEE823110";
paths = (
{
closed = 1;
nodes = (
"496 0 LINE",
"616 431 LINE",
"737 0 LINE",
"988 0 LINE",
"1176 627 LINE",
"954 627 LINE",
"833 199 LINE",
"712 627 LINE",
"521 627 LINE",
"400 195 LINE",
"280 627 LINE",
"57 627 LINE",
"246 0 LINE"
);
},
{
closed = 1;
nodes = (
"496 685 LINE",
"616 1116 LINE",
"737 685 LINE",
"988 685 LINE",
"1176 1312 LINE",
"954 1312 LINE",
"833 884 LINE",
"712 1312 LINE",
"521 1312 LINE",
"400 880 LINE",
"280 1312 LINE",
"57 1312 LINE",
"246 685 LINE"
);
}
);
width = 1233;
}
);
note = uni02AC;
unicode = 02AC;
},
{
glyphname = bstroke;
lastChange = "2018-03-04 04:33:50 +0000";
layers = (
{
layerId = "F25FDEC7-9088-49C2-ACEA-4290AADBBD1B";
paths = (
{
closed = 1;
nodes = (
"732 1270 LINE",
"732 1434 LINE",
"377 1434 LINE",
"377 1556 LINE",
"193 1556 LINE",
"193 1434 LINE",
"70 1434 LINE",
"70 1270 LINE",
"193 1270 LINE",
"193 0 LINE",
"377 0 LINE",
"377 141 LINE",
"438 30 OFFCURVE",
"543 -29 OFFCURVE",
"676 -29 CURVE SMOOTH",
"947 -29 OFFCURVE",
"1112 194 OFFCURVE",
"1112 563 CURVE SMOOTH",
"1112 927 OFFCURVE",
"947 1147 OFFCURVE",
"678 1147 CURVE SMOOTH",
"542 1147 OFFCURVE",
"436 1086 OFFCURVE",
"377 977 CURVE",
"377 1270 LINE"
);
},
{
closed = 1;
nodes = (
"805 163 OFFCURVE",
"738 127 OFFCURVE",
"649 127 CURVE SMOOTH",
"470 127 OFFCURVE",
"377 276 OFFCURVE",
"377 559 CURVE SMOOTH",
"377 843 OFFCURVE",
"470 991 OFFCURVE",
"649 991 CURVE SMOOTH",
"826 991 OFFCURVE",
"918 844 OFFCURVE",
"918 559 CURVE SMOOTH",
"918 416 OFFCURVE",
"895 309 OFFCURVE",
"850 236 CURVE SMOOTH"
);
}
);
width = 1233;
},
{
layerId = "60AE9F57-5482-48B8-82FC-FC2DEE823110";
paths = (
{
closed = 1;
nodes = (
"740 1270 LINE",
"740 1434 LINE",
"442 1434 LINE",
"442 1556 LINE",
"150 1556 LINE",
"150 1434 LINE",
"12 1434 LINE",
"12 1270 LINE",
"150 1270 LINE",
"150 0 LINE",
"442 0 LINE",
"442 166 LINE",
"503 37 OFFCURVE",
"604 -29 OFFCURVE",
"739 -29 CURVE SMOOTH",
"995 -29 OFFCURVE",
"1143 186 OFFCURVE",
"1143 559 CURVE SMOOTH",
"1143 938 OFFCURVE",
"994 1147 OFFCURVE",
"729 1147 CURVE SMOOTH",
"609 1147 OFFCURVE",
"514 1085 OFFCURVE",
"442 961 CURVE",
"442 1270 LINE"
);
},
{
closed = 1;
nodes = (
"760 242 OFFCURVE",
"710 211 OFFCURVE",
"647 211 CURVE SMOOTH",
"520 211 OFFCURVE",
"442 341 OFFCURVE",
"442 557 CURVE SMOOTH",
"442 773 OFFCURVE",
"520 903 OFFCURVE",
"647 903 CURVE SMOOTH",
"774 903 OFFCURVE",
"850 773 OFFCURVE",
"850 557 CURVE SMOOTH",
"850 449 OFFCURVE",
"832 364 OFFCURVE",
"796 303 CURVE SMOOTH"
);
}
);
width = 1233;
}
);
note = uni0180;
unicode = 0180;
},
{
glyphname = btopbar;
lastChange = "2018-03-04 04:33:50 +0000";
layers = (
{
layerId = "F25FDEC7-9088-49C2-ACEA-4290AADBBD1B";
paths = (
{
closed = 1;
nodes = (
"945 1372 LINE",
"945 1556 LINE",
"193 1556 LINE",
"193 0 LINE",
"377 0 LINE",
"377 141 LINE",
"438 30 OFFCURVE",
"543 -29 OFFCURVE",
"676 -29 CURVE SMOOTH",
"947 -29 OFFCURVE",
"1112 194 OFFCURVE",
"1112 563 CURVE SMOOTH",
"1112 927 OFFCURVE",
"947 1147 OFFCURVE",
"678 1147 CURVE SMOOTH",
"542 1147 OFFCURVE",
"436 1086 OFFCURVE",
"377 977 CURVE",
"377 1372 LINE"
);
},
{
closed = 1;
nodes = (
"805 163 OFFCURVE",
"738 127 OFFCURVE",
"649 127 CURVE SMOOTH",
"470 127 OFFCURVE",
"377 276 OFFCURVE",
"377 559 CURVE SMOOTH",
"377 843 OFFCURVE",
"470 991 OFFCURVE",
"649 991 CURVE SMOOTH",
"826 991 OFFCURVE",
"918 844 OFFCURVE",
"918 559 CURVE SMOOTH",
"918 416 OFFCURVE",
"895 309 OFFCURVE",
"850 236 CURVE SMOOTH"
);
}
);
width = 1233;
},
{
layerId = "60AE9F57-5482-48B8-82FC-FC2DEE823110";
paths = (
{
closed = 1;
nodes = (
"995 -29 OFFCURVE",
"1143 186 OFFCURVE",
"1143 559 CURVE SMOOTH",
"1143 935 OFFCURVE",
"998 1147 OFFCURVE",
"729 1147 CURVE SMOOTH",
"610 1147 OFFCURVE",
"514 1085 OFFCURVE",
"442 961 CURVE",
"442 1347 LINE",
"949 1347 LINE",
"949 1556 LINE",
"150 1556 LINE",
"150 0 LINE",
"442 0 LINE",
"442 166 LINE",
"503 36 OFFCURVE",
"602 -29 OFFCURVE",
"739 -29 CURVE SMOOTH"
);
},
{
closed = 1;
nodes = (
"760 242 OFFCURVE",
"710 211 OFFCURVE",
"647 211 CURVE SMOOTH",
"520 211 OFFCURVE",
"442 341 OFFCURVE",
"442 557 CURVE SMOOTH",
"442 773 OFFCURVE",
"520 903 OFFCURVE",
"647 903 CURVE SMOOTH",
"774 903 OFFCURVE",
"850 773 OFFCURVE",
"850 557 CURVE SMOOTH",
"850 449 OFFCURVE",
"832 364 OFFCURVE",
"796 303 CURVE SMOOTH"
);
}
);
width = 1233;
}
);
note = uni0183;
unicode = 0183;
},
{
glyphname = c;
lastChange = "2018-03-04 04:33:50 +0000";
layers = (
{
layerId = "F25FDEC7-9088-49C2-ACEA-4290AADBBD1B";
paths = (
{
closed = 1;
nodes = (
"974 165 OFFCURVE",
"876 127 OFFCURVE",
"748 127 CURVE SMOOTH",
"519 127 OFFCURVE",
"389 283 OFFCURVE",
"389 559 CURVE SMOOTH",
"389 836 OFFCURVE",
"517 991 OFFCURVE",
"748 991 CURVE SMOOTH",
"872 991 OFFCURVE",
"964 955 OFFCURVE",
"1061 868 CURVE",
"1061 1061 LINE",
"957 1120 OFFCURVE",
"856 1147 OFFCURVE",
"748 1147 CURVE SMOOTH",
"401 1147 OFFCURVE",
"195 927 OFFCURVE",
"195 559 CURVE SMOOTH",
"195 191 OFFCURVE",
"401 -29 OFFCURVE",
"748 -29 CURVE SMOOTH",
"857 -29 OFFCURVE",
"962 0 OFFCURVE",
"1061 57 CURVE",
"1061 248 LINE"
);
}
);
width = 1233;
},
{
layerId = "60AE9F57-5482-48B8-82FC-FC2DEE823110";
paths = (
{
closed = 1;
nodes = (
"973 249 OFFCURVE",
"875 211 OFFCURVE",
"762 211 CURVE SMOOTH",
"571 211 OFFCURVE",
"465 335 OFFCURVE",
"465 559 CURVE SMOOTH",
"465 783 OFFCURVE",
"571 909 OFFCURVE",
"762 909 CURVE SMOOTH",
"871 909 OFFCURVE",
"976 868 OFFCURVE",
"1061 795 CURVE",
"1061 1063 LINE",
"950 1122 OFFCURVE",
"841 1149 OFFCURVE",
"721 1149 CURVE SMOOTH",
"376 1149 OFFCURVE",
"168 928 OFFCURVE",
"168 559 CURVE SMOOTH",
"168 191 OFFCURVE",
"374 -29 OFFCURVE",
"719 -29 CURVE SMOOTH",
"850 -29 OFFCURVE",
"962 0 OFFCURVE",
"1061 57 CURVE",
"1061 326 LINE"
);
}
);
width = 1233;
}
);
note = c;
unicode = 0063;
},
{
glyphname = ccurl;
lastChange = "2018-03-04 04:33:50 +0000";
layers = (
{
layerId = "F25FDEC7-9088-49C2-ACEA-4290AADBBD1B";
paths = (
{
closed = 1;
nodes = (
"589 -96 OFFCURVE",
"591 -54 OFFCURVE",
"595 -16 CURVE",
"642 -27 OFFCURVE",
"693 -33 OFFCURVE",
"748 -33 CURVE SMOOTH",
"971 -33 OFFCURVE",
"1082 30 OFFCURVE",
"1082 156 CURVE SMOOTH",
"1082 320 OFFCURVE",
"982 402 OFFCURVE",
"781 402 CURVE SMOOTH",
"651 402 OFFCURVE",
"558 343 OFFCURVE",
"501 226 CURVE",
"497 231 OFFCURVE",
"493 235 OFFCURVE",
"488 240 CURVE SMOOTH",
"422 306 OFFCURVE",
"389 412 OFFCURVE",
"389 559 CURVE SMOOTH",
"389 836 OFFCURVE",
"517 991 OFFCURVE",
"748 991 CURVE SMOOTH",
"872 991 OFFCURVE",
"964 955 OFFCURVE",
"1061 868 CURVE",
"1061 1061 LINE",
"957 1120 OFFCURVE",
"856 1147 OFFCURVE",
"748 1147 CURVE SMOOTH",
"401 1147 OFFCURVE",
"195 927 OFFCURVE",
"195 559 CURVE SMOOTH",
"195 380 OFFCURVE",
"245 237 OFFCURVE",
"344 130 CURVE SMOOTH",
"376 96 OFFCURVE",
"411 67 OFFCURVE",
"449 44 CURVE",
"440 -10 OFFCURVE",
"436 -72 OFFCURVE",
"436 -141 CURVE",
"589 -141 LINE"
);
},
{
closed = 1;
nodes = (
"663 221 OFFCURVE",
"713 259 OFFCURVE",
"780 259 CURVE SMOOTH",
"868 259 OFFCURVE",
"912 234 OFFCURVE",
"912 184 CURVE SMOOTH",
"912 146 OFFCURVE",
"863 127 OFFCURVE",
"766 127 CURVE SMOOTH",
"717 127 OFFCURVE",
"672 133 OFFCURVE",
"632 146 CURVE"
);
}
);
width = 1233;
},
{
layerId = "60AE9F57-5482-48B8-82FC-FC2DEE823110";
paths = (
{
closed = 1;
nodes = (
"693 303 OFFCURVE",
"737 339 OFFCURVE",
"792 339 CURVE SMOOTH",
"967 339 OFFCURVE",
"974 207 OFFCURVE",
"778 207 CURVE SMOOTH",
"773 207 LINE SMOOTH",
"737 208 OFFCURVE",
"700 216 OFFCURVE",
"662 232 CURVE"
);
},
{
closed = 1;
nodes = (
"475 381 OFFCURVE",
"459 456 OFFCURVE",
"459 559 CURVE SMOOTH",
"459 783 OFFCURVE",
"565 909 OFFCURVE",
"756 909 CURVE SMOOTH",
"865 909 OFFCURVE",
"970 868 OFFCURVE",
"1055 795 CURVE",
"1055 1063 LINE",
"944 1122 OFFCURVE",
"835 1149 OFFCURVE",
"715 1149 CURVE SMOOTH",
"370 1149 OFFCURVE",
"162 928 OFFCURVE",
"162 559 CURVE SMOOTH",
"162 375 OFFCURVE",
"211 231 OFFCURVE",
"308 127 CURVE SMOOTH",
"349 84 OFFCURVE",
"396 49 OFFCURVE",
"450 24 CURVE",
"449 -23 OFFCURVE",
"449 -78 OFFCURVE",
"449 -140 CURVE",
"649 -141 LINE",
"649 -27 LINE",
"651 -28 OFFCURVE",
"653 -28 OFFCURVE",
"655 -28 CURVE",
"658 -29 OFFCURVE",
"693 -29 OFFCURVE",
"761 -29 CURVE SMOOTH",
"1181 -29 OFFCURVE",
"1163 525 OFFCURVE",
"782 532 CURVE SMOOTH",
"669 532 OFFCURVE",
"579 472 OFFCURVE",
"510 351 CURVE",
"507 334 LINE"
);
}
);
width = 1233;
}
);
note = uni0255;
unicode = 0255;
},
{
glyphname = chook;
lastChange = "2018-03-04 04:33:50 +0000";
layers = (
{
layerId = "F25FDEC7-9088-49C2-ACEA-4290AADBBD1B";
paths = (
{
closed = 1;
nodes = (
"873 165 OFFCURVE",
"775 127 OFFCURVE",
"647 127 CURVE SMOOTH",
"418 127 OFFCURVE",
"288 283 OFFCURVE",
"288 559 CURVE SMOOTH",
"288 836 OFFCURVE",
"416 991 OFFCURVE",
"647 991 CURVE SMOOTH",
"771 991 OFFCURVE",
"863 955 OFFCURVE",
"960 868 CURVE",
"960 1016 LINE SMOOTH",
"960 1184 OFFCURVE",
"1019 1266 OFFCURVE",
"1139 1266 CURVE",
"1139 1422 LINE",
"1119 1422 LINE SMOOTH",
"899 1422 OFFCURVE",
"809 1283 OFFCURVE",
"784 1131 CURVE",
"739 1142 OFFCURVE",
"694 1147 OFFCURVE",
"647 1147 CURVE SMOOTH",
"300 1147 OFFCURVE",
"94 927 OFFCURVE",
"94 559 CURVE SMOOTH",
"94 191 OFFCURVE",
"300 -29 OFFCURVE",
"647 -29 CURVE SMOOTH",
"756 -29 OFFCURVE",
"861 0 OFFCURVE",
"960 57 CURVE",
"960 248 LINE"
);
}
);
width = 1233;
},
{
layerId = "60AE9F57-5482-48B8-82FC-FC2DEE823110";
paths = (
{
closed = 1;
nodes = (
"722 211 OFFCURVE",
"685 217 OFFCURVE",
"651 228 CURVE SMOOTH",
"527 270 OFFCURVE",
"465 380 OFFCURVE",
"465 559 CURVE SMOOTH",
"465 743 OFFCURVE",
"534 909 OFFCURVE",
"762 909 CURVE SMOOTH",
"873 909 OFFCURVE",
"972 871 OFFCURVE",
"1061 795 CURVE",
"1061 1063 LINE",
"1062 1089 LINE SMOOTH",
"1070 1281 OFFCURVE",
"1117 1331 OFFCURVE",
"1244 1331 CURVE SMOOTH",
"1283 1331 LINE",
"1283 1556 LINE",
"1162 1556 LINE SMOOTH",
"882 1556 OFFCURVE",
"795 1434 OFFCURVE",
"774 1147 CURVE",
"757 1148 OFFCURVE",
"739 1149 OFFCURVE",
"721 1149 CURVE SMOOTH",
"376 1149 OFFCURVE",
"168 928 OFFCURVE",
"168 559 CURVE SMOOTH",
"168 191 OFFCURVE",
"374 -29 OFFCURVE",
"719 -29 CURVE SMOOTH",
"848 -29 OFFCURVE",
"962 0 OFFCURVE",
"1061 57 CURVE",
"1061 326 LINE",
"974 249 OFFCURVE",
"874 211 OFFCURVE",
"762 211 CURVE SMOOTH"
);
}
);
width = 1233;
}
);
note = uni0188;
unicode = 0188;
},
{
glyphname = cstretched;
lastChange = "2018-03-04 04:33:50 +0000";
layers = (
{
layerId = "F25FDEC7-9088-49C2-ACEA-4290AADBBD1B";
paths = (
{
closed = 1;
nodes = (
"194 -218 OFFCURVE",
"349 -438 OFFCURVE",
"716 -438 CURVE SMOOTH",
"829 -438 OFFCURVE",
"938 -415 OFFCURVE",
"1039 -368 CURVE",
"1039 -196 LINE",
"935 -253 OFFCURVE",
"831 -282 OFFCURVE",
"724 -282 CURVE SMOOTH",
"485 -282 OFFCURVE",
"389 -147 OFFCURVE",
"388 30 CURVE",
"388 1086 LINE SMOOTH",
"389 1263 OFFCURVE",
"485 1398 OFFCURVE",
"724 1398 CURVE SMOOTH",
"831 1398 OFFCURVE",
"935 1369 OFFCURVE",
"1039 1312 CURVE",
"1039 1484 LINE",
"938 1531 OFFCURVE",
"829 1554 OFFCURVE",
"716 1554 CURVE SMOOTH",
"349 1554 OFFCURVE",
"194 1334 OFFCURVE",
"194 1086 CURVE SMOOTH",
"194 30 LINE SMOOTH"
);
}
);
width = 1233;
},
{
layerId = "60AE9F57-5482-48B8-82FC-FC2DEE823110";
paths = (
{
closed = 1;
nodes = (
"481 1124 OFFCURVE",
"568 1273 OFFCURVE",
"783 1273 CURVE SMOOTH",
"879 1273 OFFCURVE",
"974 1244 OFFCURVE",
"1067 1187 CURVE",
"1067 1485 LINE",
"976 1532 OFFCURVE",
"907 1555 OFFCURVE",
"690 1555 CURVE SMOOTH",
"402 1556 OFFCURVE",
"166 1284 OFFCURVE",
"166 997 CURVE SMOOTH",
"166 132 LINE SMOOTH",
"166 -155 OFFCURVE",
"402 -427 OFFCURVE",
"690 -426 CURVE SMOOTH",
"907 -426 OFFCURVE",
"976 -403 OFFCURVE",
"1067 -356 CURVE",
"1067 -58 LINE",
"974 -115 OFFCURVE",
"879 -144 OFFCURVE",
"783 -144 CURVE SMOOTH",
"568 -144 OFFCURVE",
"482 4 OFFCURVE",
"481 132 CURVE",
"481 997 LINE SMOOTH"
);
}
);
width = 1233;
}
);
note = uni0297;
unicode = 0297;
},
{
glyphname = cstroke;
lastChange = "2018-03-04 04:33:50 +0000";
layers = (
{
layerId = "F25FDEC7-9088-49C2-ACEA-4290AADBBD1B";
paths = (
{
closed = 1;
nodes = (
"394 453 OFFCURVE",
"389 504 OFFCURVE",
"389 559 CURVE SMOOTH",
"389 836 OFFCURVE",
"517 991 OFFCURVE",
"748 991 CURVE SMOOTH",
"795 991 OFFCURVE",
"840 985 OFFCURVE",
"881 973 CURVE",
"405 406 LINE"
);
},
{
closed = 1;
nodes = (
"974 165 OFFCURVE",
"876 127 OFFCURVE",
"748 127 CURVE SMOOTH",
"633 127 OFFCURVE",
"545 165 OFFCURVE",
"482 240 CURVE SMOOTH",
"472 252 OFFCURVE",
"463 265 OFFCURVE",
"454 279 CURVE",
"994 920 LINE",
"1016 905 OFFCURVE",
"1038 888 OFFCURVE",
"1061 868 CURVE",
"1061 1001 LINE",
"1174 1135 LINE",
"1081 1212 LINE",
"986 1098 LINE",
"959 1109 OFFCURVE",
"933 1119 OFFCURVE",
"906 1126 CURVE SMOOTH",
"855 1140 OFFCURVE",
"802 1147 OFFCURVE",
"748 1147 CURVE SMOOTH",
"401 1147 OFFCURVE",
"195 927 OFFCURVE",
"195 559 CURVE SMOOTH",
"195 433 OFFCURVE",
"218 326 OFFCURVE",
"263 238 CURVE",
"47 -20 LINE",
"139 -96 LINE",
"334 136 LINE",
"342 127 LINE SMOOTH",
"439 23 OFFCURVE",
"575 -29 OFFCURVE",
"748 -29 CURVE SMOOTH",
"857 -29 OFFCURVE",
"962 0 OFFCURVE",
"1061 57 CURVE",
"1061 248 LINE"
);
}
);
width = 1233;
},
{
layerId = "60AE9F57-5482-48B8-82FC-FC2DEE823110";
paths = (
{
closed = 1;
nodes = (
"439 13 OFFCURVE",
"564 -29 OFFCURVE",
"719 -29 CURVE SMOOTH",
"850 -29 OFFCURVE",
"962 0 OFFCURVE",
"1061 57 CURVE",
"1061 326 LINE",
"973 249 OFFCURVE",
"875 211 OFFCURVE",
"762 211 CURVE SMOOTH",
"667 211 OFFCURVE",
"593 241 OFFCURVE",
"542 301 CURVE SMOOTH",
"538 306 OFFCURVE",
"534 312 OFFCURVE",
"530 317 CURVE",
"981 851 LINE",
"1009 836 OFFCURVE",
"1036 817 OFFCURVE",
"1061 795 CURVE",
"1061 947 LINE",
"1202 1114 LINE",
"1063 1235 LINE",
"957 1109 LINE",
"936 1116 OFFCURVE",
"915 1123 OFFCURVE",
"894 1128 CURVE SMOOTH",
"839 1142 OFFCURVE",
"781 1149 OFFCURVE",
"721 1149 CURVE SMOOTH",
"376 1149 OFFCURVE",
"168 928 OFFCURVE",
"168 559 CURVE SMOOTH",
"168 438 OFFCURVE",
"189 334 OFFCURVE",
"231 247 CURVE",
"25 2 LINE",
"164 -117 LINE",
"345 97 LINE"
);
},
{
closed = 1;
nodes = (
"465 537 OFFCURVE",
"465 548 OFFCURVE",
"465 559 CURVE SMOOTH",
"465 783 OFFCURVE",
"571 909 OFFCURVE",
"762 909 CURVE SMOOTH",
"771 909 OFFCURVE",
"779 909 OFFCURVE",
"788 908 CURVE",
"466 526 LINE"
);
}
);
width = 1233;
}
);
note = uni023C;
unicode = 023C;
},
{
glyphname = d;
lastChange = "2018-03-04 04:33:50 +0000";
layers = (
{
layerId = "F25FDEC7-9088-49C2-ACEA-4290AADBBD1B";
paths = (
{
closed = 1;
nodes = (
"799 1088 OFFCURVE",
"694 1147 OFFCURVE",
"559 1147 CURVE SMOOTH",
"290 1147 OFFCURVE",
"123 927 OFFCURVE",
"123 563 CURVE SMOOTH",
"123 194 OFFCURVE",
"288 -29 OFFCURVE",
"559 -29 CURVE SMOOTH",
"692 -29 OFFCURVE",
"797 30 OFFCURVE",
"858 141 CURVE",
"858 0 LINE",
"1042 0 LINE",
"1042 1556 LINE",
"858 1556 LINE",
"858 977 LINE"
);
},
{
closed = 1;
nodes = (
"317 844 OFFCURVE",
"409 991 OFFCURVE",
"586 991 CURVE SMOOTH",
"763 991 OFFCURVE",
"858 843 OFFCURVE",
"858 559 CURVE SMOOTH",
"858 276 OFFCURVE",
"763 127 OFFCURVE",
"586 127 CURVE SMOOTH",
"409 127 OFFCURVE",
"317 274 OFFCURVE",
"317 559 CURVE SMOOTH"
);
}
);
width = 1233;
},
{
layerId = "60AE9F57-5482-48B8-82FC-FC2DEE823110";
paths = (
{
closed = 1;
nodes = (
"719 1085 OFFCURVE",
"624 1147 OFFCURVE",
"504 1147 CURVE SMOOTH",
"239 1147 OFFCURVE",
"90 938 OFFCURVE",
"90 559 CURVE SMOOTH",
"90 186 OFFCURVE",
"238 -29 OFFCURVE",
"494 -29 CURVE SMOOTH",
"629 -29 OFFCURVE",
"728 37 OFFCURVE",
"791 166 CURVE",
"791 0 LINE",
"1083 0 LINE",
"1083 1556 LINE",
"791 1556 LINE",
"791 961 LINE"
);
},
{
closed = 1;
nodes = (
"383 773 OFFCURVE",
"459 903 OFFCURVE",
"586 903 CURVE SMOOTH",
"713 903 OFFCURVE",
"791 773 OFFCURVE",
"791 557 CURVE SMOOTH",
"791 341 OFFCURVE",
"713 211 OFFCURVE",
"586 211 CURVE SMOOTH",
"459 211 OFFCURVE",
"383 341 OFFCURVE",
"383 557 CURVE SMOOTH"
);
}
);
width = 1233;
}
);
note = d;
unicode = 0064;
},
{
glyphname = eth;
lastChange = "2018-03-04 04:33:50 +0000";
layers = (
{
layerId = "F25FDEC7-9088-49C2-ACEA-4290AADBBD1B";
paths = (
{
closed = 1;
nodes = (
"934 1505 LINE",
"645 1411 LINE",
"518 1556 LINE",
"299 1556 LINE",
"481 1356 LINE",
"244 1276 LINE",
"274 1178 LINE",
"553 1270 LINE",
"604 1211 OFFCURVE",
"652 1152 OFFCURVE",
"696 1092 CURVE",
"676 1095 OFFCURVE",
"657 1096 OFFCURVE",
"612 1096 CURVE SMOOTH",
"313 1096 OFFCURVE",
"137 888 OFFCURVE",
"137 535 CURVE SMOOTH",
"137 178 OFFCURVE",
"312 -29 OFFCURVE",
"616 -29 CURVE SMOOTH",
"921 -29 OFFCURVE",
"1096 178 OFFCURVE",
"1096 535 CURVE SMOOTH",
"1096 802 OFFCURVE",
"980 1044 OFFCURVE",
"717 1327 CURVE",
"967 1407 LINE"
);
},
{
closed = 1;
nodes = (
"860 825 OFFCURVE",
"901 682 OFFCURVE",
"901 535 CURVE SMOOTH",
"901 274 OFFCURVE",
"799 127 OFFCURVE",
"616 127 CURVE SMOOTH",
"435 127 OFFCURVE",
"332 274 OFFCURVE",
"332 535 CURVE SMOOTH",
"332 800 OFFCURVE",
"436 944 OFFCURVE",
"631 944 CURVE SMOOTH",
"691 944 OFFCURVE",
"746 935 OFFCURVE",
"793 918 CURVE"
);
}
);
width = 1233;
},
{
layerId = "60AE9F57-5482-48B8-82FC-FC2DEE823110";
paths = (
{
closed = 1;
nodes = (
"827 688 OFFCURVE",
"836 623 OFFCURVE",
"836 563 CURVE SMOOTH",
"836 332 OFFCURVE",
"757 209 OFFCURVE",
"612 209 CURVE SMOOTH",
"473 209 OFFCURVE",
"389 334 OFFCURVE",
"389 545 CURVE SMOOTH",
"389 712 OFFCURVE",
"476 815 OFFCURVE",
"616 815 CURVE SMOOTH",
"680 815 OFFCURVE",
"746 796 OFFCURVE",
"811 760 CURVE"
);
},
{
closed = 1;
nodes = (
"1051 1444 LINE",
"985 1567 LINE",
"688 1440 LINE",
"596 1556 LINE",
"303 1556 LINE",
"461 1354 LINE",
"178 1245 LINE",
"233 1128 LINE",
"545 1247 LINE",
"705 1028 LINE",
"669 1045 OFFCURVE",
"628 1053 OFFCURVE",
"575 1053 CURVE SMOOTH",
"286 1053 OFFCURVE",
"98 852 OFFCURVE",
"98 537 CURVE SMOOTH",
"98 190 OFFCURVE",
"297 -29 OFFCURVE",
"612 -29 CURVE SMOOTH",
"935 -29 OFFCURVE",
"1126 191 OFFCURVE",
"1126 559 CURVE SMOOTH",
"1126 760 OFFCURVE",
"1073 917 OFFCURVE",
"940 1100 CURVE SMOOTH",
"774 1327 LINE"
);
}
);
width = 1233;
}
);
note = eth;
unicode = 00F0;
},
{
glyphname = dbdigraph;
lastChange = "2018-03-04 04:33:50 +0000";
layers = (
{
layerId = "F25FDEC7-9088-49C2-ACEA-4290AADBBD1B";
paths = (
{
closed = 1;
nodes = (
"305 955 OFFCURVE",
"345 991 OFFCURVE",
"398 991 CURVE SMOOTH",
"451 991 OFFCURVE",
"492 955 OFFCURVE",
"520 882 CURVE SMOOTH",
"547 809 OFFCURVE",
"561 701 OFFCURVE",
"561 559 CURVE SMOOTH",
"561 418 OFFCURVE",
"547 310 OFFCURVE",
"520 237 CURVE SMOOTH",
"492 164 OFFCURVE",
"451 127 OFFCURVE",
"398 127 CURVE SMOOTH",
"345 127 OFFCURVE",
"305 163 OFFCURVE",
"278 236 CURVE SMOOTH",
"251 309 OFFCURVE",
"237 416 OFFCURVE",
"237 559 CURVE SMOOTH",
"237 702 OFFCURVE",
"251 809 OFFCURVE",
"278 882 CURVE SMOOTH"
);
},
{
closed = 1;
nodes = (
"929 163 OFFCURVE",
"888 127 OFFCURVE",
"835 127 CURVE SMOOTH",
"781 127 OFFCURVE",
"740 164 OFFCURVE",
"713 237 CURVE SMOOTH",
"686 310 OFFCURVE",
"672 418 OFFCURVE",
"672 559 CURVE SMOOTH",
"672 701 OFFCURVE",
"686 809 OFFCURVE",
"713 882 CURVE SMOOTH",
"740 955 OFFCURVE",
"781 991 OFFCURVE",
"835 991 CURVE SMOOTH",
"888 991 OFFCURVE",
"929 955 OFFCURVE",
"956 882 CURVE SMOOTH",
"983 809 OFFCURVE",
"996 702 OFFCURVE",
"996 559 CURVE SMOOTH",
"996 416 OFFCURVE",
"983 309 OFFCURVE",
"956 236 CURVE SMOOTH"
);
},
{
closed = 1;
nodes = (
"561 1556 LINE",
"561 977 LINE",
"526 1088 OFFCURVE",
"462 1147 OFFCURVE",
"382 1147 CURVE SMOOTH",
"301 1147 OFFCURVE",
"238 1095 OFFCURVE",
"191 992 CURVE SMOOTH",
"144 888 OFFCURVE",
"120 745 OFFCURVE",
"120 563 CURVE SMOOTH",
"120 378 OFFCURVE",
"143 234 OFFCURVE",
"190 129 CURVE SMOOTH",
"237 24 OFFCURVE",
"301 -29 OFFCURVE",
"382 -29 CURVE SMOOTH",
"462 -29 OFFCURVE",
"525 30 OFFCURVE",
"561 141 CURVE",
"561 0 LINE",
"672 0 LINE",
"672 141 LINE",
"708 30 OFFCURVE",
"771 -29 OFFCURVE",
"851 -29 CURVE SMOOTH",
"932 -29 OFFCURVE",
"996 24 OFFCURVE",
"1043 129 CURVE SMOOTH",
"1090 234 OFFCURVE",
"1113 378 OFFCURVE",
"1113 563 CURVE SMOOTH",
"1113 745 OFFCURVE",
"1090 888 OFFCURVE",
"1044 992 CURVE SMOOTH",
"997 1095 OFFCURVE",
"933 1147 OFFCURVE",
"852 1147 CURVE SMOOTH",
"771 1147 OFFCURVE",
"707 1086 OFFCURVE",
"672 977 CURVE",
"672 1556 LINE"
);
}
);
width = 1233;
},
{
layerId = "60AE9F57-5482-48B8-82FC-FC2DEE823110";
paths = (
{
closed = 1;
nodes = (
"292 872 OFFCURVE",
"326 903 OFFCURVE",
"371 903 CURVE SMOOTH",
"415 903 OFFCURVE",
"450 872 OFFCURVE",
"476 811 CURVE SMOOTH",
"501 750 OFFCURVE",
"514 665 OFFCURVE",
"514 557 CURVE SMOOTH",
"514 449 OFFCURVE",
"501 364 OFFCURVE",
"476 303 CURVE SMOOTH",
"450 242 OFFCURVE",
"415 211 OFFCURVE",
"371 211 CURVE SMOOTH",
"326 211 OFFCURVE",
"292 242 OFFCURVE",
"267 303 CURVE SMOOTH",
"242 364 OFFCURVE",
"229 449 OFFCURVE",
"229 557 CURVE SMOOTH",
"229 665 OFFCURVE",
"242 750 OFFCURVE",
"267 811 CURVE SMOOTH"
);
},
{
closed = 1;
nodes = (
"942 242 OFFCURVE",
"907 211 OFFCURVE",
"863 211 CURVE SMOOTH",
"818 211 OFFCURVE",
"783 242 OFFCURVE",
"758 303 CURVE SMOOTH",
"732 364 OFFCURVE",
"719 449 OFFCURVE",
"719 557 CURVE SMOOTH",
"719 665 OFFCURVE",
"732 750 OFFCURVE",
"758 811 CURVE SMOOTH",
"783 872 OFFCURVE",
"818 903 OFFCURVE",
"863 903 CURVE SMOOTH",
"907 903 OFFCURVE",
"942 872 OFFCURVE",
"967 811 CURVE SMOOTH",
"992 750 OFFCURVE",
"1004 665 OFFCURVE",
"1004 557 CURVE SMOOTH",
"1004 449 OFFCURVE",
"992 364 OFFCURVE",
"967 303 CURVE SMOOTH"
);
},
{
closed = 1;
nodes = (
"514 1556 LINE",
"514 961 LINE",
"463 1085 OFFCURVE",
"397 1147 OFFCURVE",
"313 1147 CURVE SMOOTH",
"128 1147 OFFCURVE",
"24 938 OFFCURVE",
"24 559 CURVE SMOOTH",
"24 186 OFFCURVE",
"127 -29 OFFCURVE",
"306 -29 CURVE SMOOTH",
"401 -29 OFFCURVE",
"470 37 OFFCURVE",
"514 166 CURVE",
"514 0 LINE",
"719 0 LINE",
"719 166 LINE",
"762 37 OFFCURVE",
"832 -29 OFFCURVE",
"927 -29 CURVE SMOOTH",
"1106 -29 OFFCURVE",
"1209 186 OFFCURVE",
"1209 559 CURVE SMOOTH",
"1209 938 OFFCURVE",
"1105 1147 OFFCURVE",
"920 1147 CURVE SMOOTH",
"836 1147 OFFCURVE",
"768 1085 OFFCURVE",
"719 961 CURVE",
"719 1556 LINE"
);
}
);
width = 1233;
}
);
note = uni0238;
unicode = 0238;
},
{
glyphname = dcroat;
lastChange = "2018-03-04 04:33:50 +0000";
layers = (
{
layerId = "F25FDEC7-9088-49C2-ACEA-4290AADBBD1B";
paths = (
{
closed = 1;
nodes = (
"799 1088 OFFCURVE",
"694 1147 OFFCURVE",
"559 1147 CURVE SMOOTH",
"290 1147 OFFCURVE",
"123 927 OFFCURVE",
"123 563 CURVE SMOOTH",
"123 194 OFFCURVE",
"288 -29 OFFCURVE",
"559 -29 CURVE SMOOTH",
"692 -29 OFFCURVE",
"797 30 OFFCURVE",
"858 141 CURVE",
"858 0 LINE",
"1042 0 LINE",
"1042 1286 LINE",
"1233 1286 LINE",
"1233 1407 LINE",
"1042 1407 LINE",
"1042 1556 LINE",
"858 1556 LINE",
"858 1407 LINE",
"553 1407 LINE",
"553 1286 LINE",
"858 1286 LINE",
"858 977 LINE"
);
},
{
closed = 1;
nodes = (
"317 844 OFFCURVE",
"409 991 OFFCURVE",
"586 991 CURVE SMOOTH",
"763 991 OFFCURVE",
"858 843 OFFCURVE",
"858 559 CURVE SMOOTH",
"858 276 OFFCURVE",
"763 127 OFFCURVE",
"586 127 CURVE SMOOTH",
"409 127 OFFCURVE",
"317 274 OFFCURVE",
"317 559 CURVE SMOOTH"
);
}
);
width = 1233;
},
{
layerId = "60AE9F57-5482-48B8-82FC-FC2DEE823110";
paths = (
{
closed = 1;
nodes = (
"719 1085 OFFCURVE",
"624 1147 OFFCURVE",
"504 1147 CURVE SMOOTH",
"239 1147 OFFCURVE",
"90 938 OFFCURVE",
"90 559 CURVE SMOOTH",
"90 186 OFFCURVE",
"238 -29 OFFCURVE",
"494 -29 CURVE SMOOTH",
"629 -29 OFFCURVE",
"728 37 OFFCURVE",
"791 166 CURVE",
"791 0 LINE",
"1083 0 LINE",
"1083 1251 LINE",
"1229 1251 LINE",
"1229 1440 LINE",
"1083 1440 LINE",
"1083 1556 LINE",
"791 1556 LINE",
"791 1440 LINE",
"485 1440 LINE",
"485 1251 LINE",
"791 1251 LINE",
"791 961 LINE"
);
},
{
closed = 1;
nodes = (
"383 773 OFFCURVE",
"459 903 OFFCURVE",
"586 903 CURVE SMOOTH",
"713 903 OFFCURVE",
"791 773 OFFCURVE",
"791 557 CURVE SMOOTH",
"791 341 OFFCURVE",
"713 211 OFFCURVE",
"586 211 CURVE SMOOTH",
"459 211 OFFCURVE",
"383 341 OFFCURVE",
"383 557 CURVE SMOOTH"
);
}
);
width = 1233;
}
);
note = dcroat;
unicode = 0111;
},
{
glyphname = dcurl;
lastChange = "2018-03-04 04:33:50 +0000";
layers = (
{
layerId = "F25FDEC7-9088-49C2-ACEA-4290AADBBD1B";
paths = (
{
closed = 1;
nodes = (
"930 277 OFFCURVE",
"978 344 OFFCURVE",
"1021 344 CURVE SMOOTH",
"1064 344 OFFCURVE",
"1084 323 OFFCURVE",
"1081 282 CURVE",
"1079 179 OFFCURVE",
"1037 127 OFFCURVE",
"955 127 CURVE SMOOTH",
"911 126 OFFCURVE",
"885 132 OFFCURVE",
"877 144 CURVE"
);
},
{
closed = 1;
nodes = (
"604 1556 LINE",
"604 977 LINE",
"557 1088 OFFCURVE",
"473 1147 OFFCURVE",
"366 1147 CURVE SMOOTH",
"151 1147 OFFCURVE",
"18 927 OFFCURVE",
"18 563 CURVE SMOOTH",
"18 194 OFFCURVE",
"149 -26 OFFCURVE",
"366 -29 CURVE SMOOTH",
"499 -30 OFFCURVE",
"590 65 OFFCURVE",
"627 185 CURVE",
"643 148 LINE SMOOTH",
"668 89 OFFCURVE",
"692 55 OFFCURVE",
"713 46 CURVE",
"645 -148 LINE",
"764 -148 LINE",
"777 -110 OFFCURVE",
"794 -65 OFFCURVE",
"814 -12 CURVE",
"846 -23 OFFCURVE",
"886 -29 OFFCURVE",
"933 -29 CURVE SMOOTH",
"1100 -29 OFFCURVE",
"1183 75 OFFCURVE",
"1183 284 CURVE SMOOTH",
"1183 575 OFFCURVE",
"953 580 OFFCURVE",
"801 255 CURVE",
"792 278 OFFCURVE",
"788 329 OFFCURVE",
"788 406 CURVE SMOOTH",
"788 1556 LINE"
);
},
{
closed = 1;
nodes = (
"263 955 OFFCURVE",
"316 991 OFFCURVE",
"387 991 CURVE SMOOTH",
"528 991 OFFCURVE",
"604 843 OFFCURVE",
"604 559 CURVE SMOOTH",
"604 276 OFFCURVE",
"528 127 OFFCURVE",
"387 127 CURVE SMOOTH",
"246 127 OFFCURVE",
"173 274 OFFCURVE",
"173 559 CURVE SMOOTH",
"173 702 OFFCURVE",
"191 809 OFFCURVE",
"227 882 CURVE SMOOTH"
);
}
);
width = 1233;
},
{
layerId = "60AE9F57-5482-48B8-82FC-FC2DEE823110";
paths = (
{
closed = 1;
nodes = (
"997 301 OFFCURVE",
"1034 344 OFFCURVE",
"1069 344 CURVE SMOOTH",
"1097 344 OFFCURVE",
"1111 322 OFFCURVE",
"1111 278 CURVE SMOOTH",
"1111 233 OFFCURVE",
"1076 211 OFFCURVE",
"1007 211 CURVE SMOOTH",
"977 210 OFFCURVE",
"961 212 OFFCURVE",
"958 216 CURVE"
);
},
{
closed = 1;
nodes = (
"566 1556 LINE",
"566 1028 LINE",
"533 1088 OFFCURVE",
"484 1147 OFFCURVE",
"404 1147 CURVE SMOOTH",
"163 1147 OFFCURVE",
"8 938 OFFCURVE",
"8 559 CURVE SMOOTH",
"8 186 OFFCURVE",
"161 -29 OFFCURVE",
"397 -29 CURVE SMOOTH",
"498 -29 OFFCURVE",
"561 33 OFFCURVE",
"601 177 CURVE",
"642 96 OFFCURVE",
"685 47 OFFCURVE",
"730 28 CURVE",
"715 -19 OFFCURVE",
"697 -75 OFFCURVE",
"676 -140 CURVE",
"819 -140 LINE",
"862 -19 LINE",
"864 -26 OFFCURVE",
"904 -29 OFFCURVE",
"982 -29 CURVE SMOOTH",
"1309 -29 OFFCURVE",
"1275 588 OFFCURVE",
"1070 588 CURVE SMOOTH",
"987 588 OFFCURVE",
"917 510 OFFCURVE",
"858 354 CURVE",
"858 1556 LINE"
);
},
{
closed = 1;
nodes = (
"358 872 OFFCURVE",
"389 903 OFFCURVE",
"429 903 CURVE SMOOTH",
"469 903 OFFCURVE",
"501 872 OFFCURVE",
"524 811 CURVE SMOOTH",
"547 750 OFFCURVE",
"558 665 OFFCURVE",
"558 557 CURVE SMOOTH",
"558 449 OFFCURVE",
"547 364 OFFCURVE",
"524 303 CURVE SMOOTH",
"501 242 OFFCURVE",
"469 211 OFFCURVE",
"429 211 CURVE SMOOTH",
"389 211 OFFCURVE",
"358 242 OFFCURVE",
"335 303 CURVE SMOOTH",
"312 364 OFFCURVE",
"301 449 OFFCURVE",
"301 557 CURVE SMOOTH",
"301 665 OFFCURVE",
"312 750 OFFCURVE",
"335 811 CURVE SMOOTH"
);
}
);
width = 1233;
}
);
note = uni0221;
unicode = 0221;
},
{
glyphname = deltaturned;
lastChange = "2018-03-04 04:33:50 +0000";
layers = (
{
layerId = "F25FDEC7-9088-49C2-ACEA-4290AADBBD1B";
paths = (
{
closed = 1;
nodes = (
"428 127 OFFCURVE",
"331 274 OFFCURVE",
"331 559 CURVE SMOOTH",
"331 843 OFFCURVE",
"428 991 OFFCURVE",
"616 991 CURVE SMOOTH",
"803 991 OFFCURVE",
"900 843 OFFCURVE",
"900 559 CURVE SMOOTH",
"900 274 OFFCURVE",
"803 127 OFFCURVE",
"616 127 CURVE SMOOTH"
);
},
{
closed = 1;
nodes = (
"927 73 OFFCURVE",
"951 97 OFFCURVE",
"972 122 CURVE SMOOTH",
"1054 223 OFFCURVE",
"1095 368 OFFCURVE",
"1095 559 CURVE SMOOTH",
"1095 942 OFFCURVE",
"927 1147 OFFCURVE",
"616 1147 CURVE SMOOTH",
"304 1147 OFFCURVE",
"136 942 OFFCURVE",
"136 559 CURVE SMOOTH",
"136 178 OFFCURVE",
"303 -25 OFFCURVE",
"616 -29 CURVE SMOOTH",
"686 -30 OFFCURVE",
"729 -34 OFFCURVE",
"745 -43 CURVE",
"800 -71 OFFCURVE",
"816 -96 OFFCURVE",
"816 -140 CURVE SMOOTH",
"816 -171 OFFCURVE",
"807 -194 OFFCURVE",
"789 -210 CURVE",
"750 -238 LINE SMOOTH",
"710 -267 OFFCURVE",
"666 -282 OFFCURVE",
"617 -283 CURVE SMOOTH",
"585 -284 LINE",
"566 -284 LINE SMOOTH",
"469 -284 OFFCURVE",
"370 -262 OFFCURVE",
"282 -230 CURVE",
"282 -403 LINE",
"433 -439 LINE SMOOTH",
"466 -447 OFFCURVE",
"517 -451 OFFCURVE",
"585 -451 CURVE SMOOTH",
"848 -451 OFFCURVE",
"1019 -332 OFFCURVE",
"1019 -151 CURVE SMOOTH",
"1019 -90 OFFCURVE",
"998 -39 OFFCURVE",
"957 2 CURVE SMOOTH",
"930 29 OFFCURVE",
"911 45 OFFCURVE",
"898 51 CURVE"
);
}
);
width = 1233;
},
{
layerId = "60AE9F57-5482-48B8-82FC-FC2DEE823110";
paths = (
{
closed = 1;
nodes = (
"922 54 OFFCURVE",
"952 80 OFFCURVE",
"994 130 CURVE SMOOTH",
"1087 241 OFFCURVE",
"1134 384 OFFCURVE",
"1134 559 CURVE SMOOTH",
"1134 920 OFFCURVE",
"932 1147 OFFCURVE",
"616 1147 CURVE SMOOTH",
"299 1147 OFFCURVE",
"97 920 OFFCURVE",
"97 559 CURVE SMOOTH",
"97 198 OFFCURVE",
"299 -29 OFFCURVE",
"616 -29 CURVE SMOOTH",
"725 -29 OFFCURVE",
"779 -63 OFFCURVE",
"779 -131 CURVE SMOOTH",
"779 -160 OFFCURVE",
"767 -183 OFFCURVE",
"744 -200 CURVE",
"722 -215 LINE",
"683 -238 OFFCURVE",
"629 -249 OFFCURVE",
"560 -249 CURVE SMOOTH",
"452 -249 OFFCURVE",
"383 -237 OFFCURVE",
"255 -196 CURVE SMOOTH",
"246 -193 OFFCURVE",
"238 -191 OFFCURVE",
"230 -188 CURVE",
"230 -403 LINE",
"311 -423 OFFCURVE",
"361 -434 OFFCURVE",
"382 -437 CURVE",
"385 -438 OFFCURVE",
"389 -438 OFFCURVE",
"392 -439 CURVE",
"448 -447 OFFCURVE",
"509 -451 OFFCURVE",
"575 -451 CURVE SMOOTH",
"874 -451 OFFCURVE",
"1050 -341 OFFCURVE",
"1050 -161 CURVE SMOOTH",
"1050 -60 OFFCURVE",
"1002 11 OFFCURVE",
"905 53 CURVE"
);
},
{
closed = 1;
nodes = (
"475 209 OFFCURVE",
"390 339 OFFCURVE",
"390 559 CURVE SMOOTH",
"390 779 OFFCURVE",
"475 909 OFFCURVE",
"616 909 CURVE SMOOTH",
"756 909 OFFCURVE",
"841 779 OFFCURVE",
"841 559 CURVE SMOOTH",
"841 339 OFFCURVE",
"756 209 OFFCURVE",
"616 209 CURVE SMOOTH"
);
}
);
width = 1233;
}
);
note = uni018D;
unicode = 018D;
},
